<svg xmlns="http://www.w3.org/2000/svg" width="96" height="27" fill="none" viewBox="0 0 96 27"><path fill="url(#arrow_svg__a)" d="M.43.81c3.753 8.813 25.716 21.379 41.658 24.238 17.254 3.1 27.29 1.681 48.14-6.936-.365 1.345-.702 2.392-.93 3.457-.247 1.16-.487 2.341-.53 3.518-.018.367.592.996.99 1.07.386.066 1.113-.328 1.268-.702 1.367-3.205 2.66-6.44 3.92-9.692.42-1.083.059-1.918-1.13-2.275-4.373-1.308-8.736-2.676-13.14-3.897-1.035-.288-2.218-.072-3.634-.093.969 2.943 3.432 2.734 5.142 3.593 1.802.912 3.77 1.497 6.085 2.392-5.84 3.534-11.651 5.66-17.76 6.879-22.443 4.48-42.576-1.068-60.83-14.368-2.377-1.73-4.556-3.736-6.845-5.59-.616-.5-1.327-.888-2.397-1.594z"></path><defs><linearGradient id="arrow_svg__a" x1="88.768" x2="4.12" y1="20.51" y2="7.68" gradientUnits="userSpaceOnUse"><stop stop-color="#19730A"></stop><stop offset="1" stop-color="#25BC0D"></stop></linearGradient></defs></svg>