<svg width="250" height="200" viewBox="0 0 250 200" fill="none" xmlns="http://www.w3.org/2000/svg">
<g clip-path="url(#clip0_1_250)">
<path d="M57.1 103.5V104.3L57.2 105L57.4 105.7L57.5 106.5V107.2V108L57.6 108.7L57.8 109.4L58 110.2L58.1 110.9L58.3 111.6L58.4 112.4L58.6 113.1L58.8 113.8L59 114.5L59.1 115.3L59.4 116L59.6 116.7L59.7 117.4L59.9 118.2L60.1 118.9L60.4 119.6L60.7 120.3L60.8 121L61.1 121.7L61.4 122.4L61.7 123.1L62 123.7L62.2 124.4L62.5 125.1L62.8 125.8L63.1 126.5L63.5 127.1L63.7 126.4L63.8 125.7L64.2 125L64.3 124.3L64.5 123.6L64.6 122.8L64.8 122.1L65 121.4L65.1 120.6L65.2 119.9L65.5 119.2L65.4 118.4L65.6 117.7V117L65.7 116.2L65.8 115.5L66 114.8L66.1 114V113.3L66.2 112.5L66.3 111.8L66.2 111.1L66.3 110.3L66.4 109.6L66.3 108.8L66.4 108.1V107.3L66.3 106.6L66.5 105.8L66.3 105.1V104.3V103.6L66.2 102.8V102.1V101.3L66.1 100.6L65.9 99.9V99.1L65.8 98.4L65.6 97.6L65.5 96.9L65.3 96.2L65.2 95.5L65.1 94.7L64.9 94L64.8 93.2L64.6 92.5L64.3 91.8L64.2 91.1L64 90.4L63.7 89.7V88.9L63.3 88.2L63.2 87.5L62.9 86.8L62.6 86.1L62.5 85.4L62.2 84.7L61.9 84L61.7 83.3L61.3 82.6L61.2 81.9L60.8 81.2L60.5 80.6L60.1 79.9L59.9 79.3L59.6 79.9L59.5 80.7L59.2 81.4L59 82.1L58.9 82.8L58.7 83.5L58.6 84.3L58.3 85L58.2 85.7V86.4L58 87.2L57.9 87.9L57.8 88.6L57.6 89.4V90.1L57.5 90.9L57.4 91.6L57.3 92.3L57.1 93.1V93.8L57.2 94.6L57.1 95.3L57 96V96.8V97.5L56.9 98.3V99V99.8L57 100.5L56.9 101.3V102V102.8L57.1 103.5Z" fill="#00643C"/>
<path d="M70.9 111.8L70.8 112.5L70.6 113.3L70.5 114L70.3 114.7L70.2 115.5L70.1 116.2V117L70 117.7L69.7 118.5V119.2V120V120.7V121.5L69.6 122.3L69.7 123V123.8L69.5 124.5L69.6 125.3L69.7 126V126.8V127.5L69.9 128.2L69.8 129L70 129.7L70.1 130.5L70.5 129.8L70.9 129.2L71.3 128.6L71.7 127.9L72.1 127.3L72.4 126.6L72.9 126.1L73.3 125.4L73.5 124.7L73.9 124L74.2 123.3L74.5 122.6L74.8 121.9L75.1 121.2L75.5 120.6L75.6 119.8L76 119.2L76.2 118.5L76.6 117.8V117L76.9 116.3L77.1 115.6L77.3 114.9L77.6 114.2L77.8 113.4L78 112.7L78.1 111.9V111.2L78.4 110.5L78.5 109.7V109L78.7 108.2L78.9 107.5L78.8 106.7L78.9 106V105.2L79 104.4V103.7V102.9L79.2 102.2L79.1 101.4L79 100.7L79.1 99.9L79 99.2V98.4L78.9 97.7V96.9V96.2L78.8 95.4L78.6 94.6L78.2 95.3L77.7 95.9L77.5 96.6L76.9 97.2L76.6 97.9L76.2 98.5L75.8 99.1L75.5 99.8L75.1 100.5L74.9 101.2L74.5 101.9L74.1 102.5L73.8 103.2L73.6 103.9L73.2 104.6L73.1 105.3L72.7 106L72.5 106.7L72.1 107.4L71.9 108.1L71.7 108.8L71.5 109.6L71.3 110.3L71.2 111L70.9 111.8Z" fill="#00643C"/>
<path d="M65.3 169.8L65.1 168.1L65.2 167.3L65.1 165.9L65 165.1V164.4L64.9 162.9L64.7 162.2V160.6L64.6 159.8L64.4 158.3L64.5 157.5L64.4 156.9L64.3 156.1L64.4 155.3L64.3 154.6L64 153L64.1 152.2L63.5 144.7V144L63.3 143.2V142.4L63.2 141.7V140.9L63.1 140.1L63.2 139.3V138.7L63 137.9V137V136.3L62.9 134.9L62.7 134.1V133.3V132.6L62.4 130.3L62.5 128.8L62.1 125.7L62.2 124.9L62.1 124.3L62 123.4V121.9V121.2L61.7 119.7L61.8 118.9L61.7 118.3L61.6 116.6V116L61.4 115.2L61.3 114.4L61.2 111.4L61.1 110.7L61 109.7L61.1 109.1L60.9 108.3L61 107.6L60.8 106.8L60.9 105.9L60.7 103.8L60.5 103L60.6 102.2L60.5 101.4V100.7L60.3 99.9V99.1V98.4L60.2 97.6V96.8L60.1 96.2L62.1 95.9L62.3 96.8L62.2 97.5L62.4 98.2L62.3 99.1V99.8L62.4 100.6L62.5 101.3L62.6 102.1V102.9L62.7 103.6L62.9 106L62.8 106.7L63 107.4L62.9 108.2L63.1 108.9L63 109.8L63.1 110.4L63.2 111.3L63.4 114.9L63.6 115.7V116.6L63.7 118.1L63.8 118.8L63.7 119.6L64 121.1L63.9 122L64 123.3L64.1 124L64.2 124.9L64.1 125.7L64.5 128.7L64.4 130.2L64.7 132.5V133.3V133.9L64.9 134.7L65 136.3V137.1V137.7L65.2 138.6V139.4L65.1 140L65.3 140.8L65.2 141.6L65.3 142.4V143L65.5 143.9V145.3L66.1 152.2L66 152.9L66.3 154.4L66.4 155.2L66.3 156L66.4 156.7L66.5 157.5L66.4 158.3L66.6 159.7L66.7 160.4V161.9L66.9 162.8L67 164.3V165L67.1 166.5L67.2 167.4L67.1 168.1L67.2 169.5L65.3 169.8Z" fill="#201F1A"/>
<path d="M58 182.5L56.1 182L56.6 179.9L56.7 179L57.3 176.6L57.6 176.1V175.3L57.9 174.6L58.1 173.7L58.3 173.1V172.4L58.7 171.6L59.4 168.5L59.6 167.9L59.7 167.3L59.9 166.2L60.2 165.7L60.3 165L60.5 164.1L60.8 163.5L60.9 162.9L61 162L61.3 161.2L61.6 159.9L61.7 159L62.2 157.6L62.4 156.8L62.6 156.1L62.7 155.5L63.1 153.9L63.3 153.1L63.8 151.7L63.9 151.1L64 150.3L64.3 149.6L64.4 148.8L64.8 147.2L65 146.6L65.4 145L65.7 144.4L65.8 143.7L66.4 141.5L66.5 140.6L66.7 140L66.8 139.3L67.1 138.4L67.3 137.8L67.4 137.1L67.6 136.3L67.7 135.7L68 134.7L68.3 134.1L68.5 132.6L68.9 131.9L69.2 130.5L69.4 129.8L69.5 128.9L69.8 128.2L70.5 125.2L70.8 124.5L70.9 124L71 123.1L71.2 122.5L71.4 121.6L71.6 120.9L71.9 119.4L72.2 118.6L72.4 118L72.6 117.2L72.8 116.6L72.9 115.7L73.1 115.1L73.3 114.3L73.7 113V112.1L74.1 111.4V110.7L74.5 109.8L76.3 110.6L76.1 111.1V111.9L75.7 112.6V113.3L75.2 114.8L75 115.6L74.8 116.3L74.7 117.1L74.5 117.8L74.3 118.7L74 119.3L73.8 120L73.5 121.4L73.3 122.1L73.2 123L73 123.6L72.9 124.4L72.6 125.3L72.3 125.9L71.7 128.8L71.4 129.5L71.3 130.3L70.9 131.7L70.7 132.7L70.4 133.2L70.2 134.7L69.9 135.5L69.7 136.1L69.6 136.8L69.4 137.5L69.2 138.5L68.9 139.1L68.8 139.7L68.6 140.7L68.4 141.2L68.3 142.1L68.1 142.8L67.7 144.1L67.6 145.1L67.3 145.7L66.9 147.2L66.7 147.9L66.3 149.2V150L66 150.7L65.9 151.5L65.7 152.3L65.2 153.7L65.1 154.4L64.5 156.8L64.3 157.4L64.1 158.2L63.7 159.6L63.4 161L63.2 162L63 162.5L62.9 163.3L62.7 164.2L62.4 164.8L62.3 165.4L62.2 166.3L61.8 167L61.7 167.6L61.5 168.6L61.3 169.2L60.5 172.2L60.3 172.8V173.6L60 174.3L59.8 175.2L59.6 175.8L59.5 176.6L59.1 177.4L58.6 179.4V180.3L58 182.5Z" fill="#201F1A"/>
<path d="M83.2 188.3H82.4H81.7L80.9 188.2L80.2 188.3L79.4 188.4H78.7L77.9 188.2H77.2L76.4 188.3H75.7H74.9H74.2L73.4 188.2L72.7 188.3L71.9 188.4L71.2 188.2L70.4 188.4L69.7 188.3H68.9H68.2L67.4 188.2H66.7H65.9H65.2H64.4L63.7 188.3L62.9 188.2L62.2 188.3L61.4 188.2L60.7 188.3L59.9 188.2H59.2L58.4 188.3L57.7 188.2L56.9 188.3L56.2 188.4L55.4 188.2H54.7L53.9 188.3H53.2L52.4 188.2H51.7H50.9H50.2L49.3 188.3L49.5 187.5L49.7 186.8L49.8 186V185.3L50 184.6V183.8L50.2 183.1L50.4 182.3L50.5 181.6L50.6 180.8V180.1L50.7 179.3L50.8 178.6L51 177.8L51.1 177.1L51.2 176.3L51.3 175.6L51.4 174.8L51.5 174.1L51.6 173.3L51.7 172.6L51.9 171.9L52 171.1L52.2 170.4L52.3 169.6V168.9V168.1L52.5 167.3L52.7 166.6V165.8L53 165.1L53.1 164.3L53.4 163.6L53.7 163L53.9 162.2L54.2 161.5L54.6 160.9L54.9 160.2L55.3 159.5L55.8 158.9L56.2 158.3L56.7 157.7L57.2 157.1L57 157L57.6 156.5L58.1 156L58.5 155.3L59 154.7L59.3 154.1L59.7 153.4L59.9 152.7L60.3 152.1L60.6 151.4L60.8 150.7L61 150L61.3 149.3L61.5 148.6L61.6 147.8V147.1L61.8 146.3L61.7 145.6L61.8 144.9V144.1V143.3V142.5V141.8V141L61.9 140.2L61.8 139.4H62.5L63.3 139.5L64 139.4L64.8 139.5L65.5 139.3L66.3 139.4H67L67.8 139.3L68.5 139.4H69.3L70 139.5L70.8 139.4V140.2L70.9 141L70.7 141.7L70.9 142.5L70.8 143.3L70.7 144.1L70.8 144.9L70.7 145.6L70.9 146.4V147.1L71.1 147.8L71.2 148.6L71.3 149.3L71.5 150L71.8 150.7L72.1 151.4L72.3 152.1L72.7 152.7L73 153.4L73.3 154L73.7 154.7L74.1 155.3L74.5 155.9L74.9 156.5L75.4 157.1L75.5 157L76 157.6L76.4 158.3L76.9 158.8L77.3 159.5L77.7 160.1L78 160.9L78.3 161.5L78.7 162.2L78.9 162.9L79.1 163.7L79.3 164.4L79.6 165.1L79.8 165.8L79.9 166.6L80.1 167.3V168.1L80.3 168.8L80.4 169.6V170.3L80.6 171.1L80.7 171.8L80.8 172.6V173.3L81.1 174V174.8L81.2 175.6L81.4 176.3V177L81.7 177.8V178.5V179.3L81.9 180L82 180.8L82.2 181.5L82.3 182.2V183L82.4 183.8L82.5 184.5L82.7 185.2L82.8 186L83 186.7L83.1 187.5L83.2 188.3Z" fill="#E6E6E3"/>
<path d="M164.2 60L164.8 59.6L165.3 59L165.8 58.4L166.5 58L167.1 57.6H167.9L168.6 57.8L169.2 58.4L169.3 59.2V59.9V60.7L169.2 61.4V62.1L168.9 62.9L168.7 63.6L168.5 64.3L168.1 65L167.9 65.7L167.5 66.3L167.2 67L166.7 67.6L166.3 68.2L165.8 68.7L165.3 69.3L164.7 69.9L164.2 70.4" fill="#EFC8B6"/>
<path d="M164.9 71.1L163.5 69.7L164.5 68.7L164.9 68.2L165 68.1L165.5 67.6L165.9 67.1L166.4 66.6L166.7 66L167.1 65.4L167.3 64.8C167.3 64.7 167.4 64.7 167.4 64.6L167.7 64.1L167.8 63.5C167.8 63.4 167.8 63.4 167.8 63.3L168.2 62.1V61.5V61.4L168.4 60.1L168.3 59L168.2 58.9L167.9 58.8H167.6L166.6 59.4L165.6 60.4L165.5 60.5L164.9 61L163.7 59.4L164.2 59L165.2 57.9C165.3 57.8 165.3 57.8 165.4 57.7L166.7 56.9C166.8 56.8 167 56.8 167.2 56.7H167.9C168 56.7 168.1 56.7 168.2 56.7L168.9 56.9C169.1 56.9 169.2 57 169.3 57.2L169.9 57.8C170 58 170.1 58.2 170.2 58.4L170.4 60C170.4 60.1 170.4 60.1 170.4 60.2L170.3 60.9L170.2 61.7V62.4C170.2 62.5 170.2 62.6 170.2 62.7L169.7 64.1L169.6 64.8C169.6 64.9 169.5 65 169.5 65.1L169.2 65.6L169 66.2C169 66.3 168.9 66.3 168.9 66.4L168.5 67L168.2 67.6C168.2 67.7 168.1 67.8 168.1 67.8L167.6 68.4L167.2 68.9L167.1 69L166.6 69.5L166.2 70L166.1 70.1L164.9 71.1Z" fill="#201F1B"/>
<path d="M164.3 76.5L164.8 77.1L165.4 77.5L166 78L166.6 78.5L167.3 78.9L167.9 79.4L168.4 80L169.1 80.3L169.7 80.8L170.3 81.5L170.9 81.9L171.4 82.5L171.6 83.2V84L171.1 84.5L170.5 85L170 85.6L169.3 86L168.6 86.3L167.9 86.5H167.1H166.4H165.7L164.9 86.4L164.2 86.1" fill="#EFC8B6"/>
<path d="M167.9 87.5H167.1H166.4H165.6L164.8 87.4C164.7 87.4 164.6 87.4 164.5 87.3L163.8 87L164.5 85.1L165.1 85.3L165.7 85.4H166.4H167.1H167.7L168.8 85L169.3 84.7L169.7 84.2L169.8 84.1L170.3 83.7L170.5 83.5V83.3L170.4 82.9L170.2 82.6L169.7 82.2C169.6 82.2 169.6 82.1 169.5 82L169 81.4L168.6 81L168 80.7C167.9 80.6 167.8 80.6 167.7 80.5L166.7 79.5L166.1 79.2C166 79.2 165.9 79.1 165.9 79L165.3 78.5L164.2 77.7C164.1 77.6 164 77.6 164 77.5L163.5 76.9L165 75.6L165.4 76.1L165.9 76.5L166.6 77L167.1 77.5L167.7 77.8C167.8 77.8 167.9 77.9 168 78L169 79L169.6 79.3C169.7 79.3 169.8 79.4 169.8 79.5L170.4 80L170.5 80.1L170.9 80.6L171.4 81C171.5 81.1 171.6 81.1 171.6 81.2L172.1 81.8C172.2 81.9 172.2 82 172.3 82.1L172.5 82.8C172.5 82.9 172.5 83 172.5 83.1V83.9C172.5 84.1 172.4 84.4 172.3 84.6L171.8 85.2L171.7 85.3L171.2 85.7L170.7 86.2C170.6 86.3 170.6 86.3 170.5 86.3L169.9 86.7C169.8 86.7 169.8 86.8 169.7 86.8L169 87.1L168.2 87.4C168.1 87.5 168 87.5 167.9 87.5Z" fill="#201F1B"/>
<path d="M167.8 107.9L167.3 108.5L166.9 109.2L166.4 109.8L166 110.4L165.7 111.1L165.2 111.8L164.9 112.5L164.5 113.1L164.1 113.8L163.7 114.5L163.3 115.1L163 115.9L162.5 116.5L162.2 117.2L161.6 117.7L161 118.1L160.3 118.3H159.6L158.8 118.2L158.3 117.6L157.9 117L157.6 116.3L157.4 115.5L157.5 114.7L157.7 114L157.9 113.2L158.2 112.6L158.3 111.8L158.5 111.1L158.8 110.4L159.1 109.7L159.2 109L159.5 108.3L159.8 107.6L159.9 106.9L160 106.1L160.3 105.4L160.6 104.8L160.9 104.1L161 103.3L161.3 102.6L161.5 101.9L161.7 101.2" fill="#EFC8B6"/>
<path d="M160.3 119.3H160.2L158.7 119.1C158.5 119.1 158.3 119 158.2 118.8L157.6 118.3C157.5 118.2 157.5 118.2 157.4 118.1L157 117.5L156.6 116.7C156.6 116.6 156.5 116.6 156.5 116.5L156.3 115.7C156.3 115.6 156.3 115.4 156.3 115.3L156.4 114.5C156.4 114.4 156.4 114.4 156.4 114.4L156.6 113.8L156.7 113.1C156.7 113 156.7 112.9 156.8 112.8L157.1 112.3L157.2 111.7L157.4 110.9C157.4 110.8 157.4 110.8 157.5 110.7L158.1 109.4L158.2 108.8C158.2 108.7 158.2 108.7 158.2 108.6L158.7 107.3L158.8 106.7V106.6L159 105.9V105.8L159.8 103.8L159.9 103.1C159.9 103 159.9 102.9 160 102.8L160.3 102.2L160.7 100.8L162.6 101.4L162.2 102.8C162.2 102.9 162.2 102.9 162.1 103L161.8 103.5L161.7 104.1C161.7 104.2 161.7 104.2 161.7 104.3L161.5 105L160.9 106.3L160.8 106.9L160.7 107.6C160.7 107.7 160.7 107.8 160.6 107.9L160.1 109.2L160 109.9C160 110 160 110.1 159.9 110.1L159.3 111.4L159.1 112L159 112.7C159 112.8 159 112.9 158.9 113L158.6 113.5L158.5 114.1C158.5 114.2 158.5 114.2 158.5 114.3L158.3 114.9L158.2 115.4L158.3 115.9L158.9 117L159.1 117.2L160 117.3L160.4 117.2L160.9 116.9L161.3 116.6L161.6 116.1C161.6 116 161.7 116 161.7 116L162.1 115.5L162.4 114.9L162.8 114.1L163.2 113.4L163.5 112.8L163.9 112.1L164.2 111.5L164.3 111.4L164.7 110.9L165 110.3L165.4 109.6L165.5 109.5L165.9 109L166.2 108.4C166.2 108.3 166.3 108.3 166.3 108.2L166.8 107.6L168.4 108.9L168 109.4L167.7 110C167.7 110.1 167.6 110.1 167.6 110.2L167.2 110.8L166.5 112.1C166.5 112.2 166.4 112.2 166.4 112.3L166 112.9L165.7 113.5L165.3 114.2L165 114.8C165 114.8 165 114.9 164.9 114.9L164.1 116.2L163.8 116.8C163.8 116.9 163.7 116.9 163.7 117L163.3 117.6L163 118.2C162.9 118.3 162.9 118.4 162.7 118.5L162.1 119C162.1 119 162 119 162 119.1L161.4 119.5C161.3 119.5 161.3 119.6 161.2 119.6L160.5 119.9C160.6 119.3 160.4 119.3 160.3 119.3Z" fill="#201F1B"/>
<path d="M131.7 148V147.2L131.8 146.5V145.7L131.7 145V144.2L131.6 143.4L131.8 142.6L131.7 141.9V141.1L131.6 140.3L131.7 139.6L131.6 138.8L131.7 138V137.3L131.6 136.5L132.4 136.2L133.1 135.9L133.8 135.7L134.4 135.3L135.1 135L135.7 134.6L136.4 134.2L137.1 133.9L137.6 133.4L138.3 133L138.9 132.5L139.5 132.2L140.1 131.7L140.7 131.3L141.4 130.9L142 130.5L142.4 129.9L143 129.4L143.6 128.9L144.2 128.4L144.7 127.9L145.1 127.3L145.7 126.7L146.1 126.1L146.7 125.6L147.2 125L147.5 124.3L147.9 123.7L148.3 123.1L148.7 122.4L149.1 121.8L149.3 121.1L149.7 120.4L150 119.7L150.2 119L150.6 118.4L150.7 117.6L151 116.9L151.2 116.2L151.3 115.4L151.4 114.7V113.9L151.3 113.2V112.4V111.7V110.9L151.4 110.2L151.3 109.4V108.7L150.6 108.6L149.8 108.7L149.1 108.6L148.3 108.7L147.6 108.6H146.8H146.1L145.3 108.7L144.6 108.6L143.8 108.8L143.1 108.7L142.3 108.8L141.6 108.7L140.8 108.8L140.1 108.6L139.3 108.7H138.6L137.8 108.8L137.1 108.7L136.3 108.6H135.6H134.8H134.1H133.3L132.6 108.7H131.8L131.1 108.8L130.3 108.7L129.5 108.6L128.8 108.8L128 108.7H127.3L126.5 108.6L125.8 108.7L125 108.8L124.3 108.6L123.5 108.7L122.8 108.6L122 108.7H121.2H120.5L119.7 108.8L119 108.6L118.2 108.7L117.5 108.6L116.7 108.7H116H115.2H114.5H113.7H112.9L112.2 108.8L111.4 108.7H110.7H109.9L109.2 108.8L108.4 108.6L107.6 108.7H106.9L106.7 109.4L106.5 110.1V110.9L106.4 111.6L106.2 112.4L106.1 113.1L106 113.9L105.9 114.6L105.7 115.3L105.6 116.1L105.4 116.8V117.6L105.3 118.3L105.1 119V119.8L104.9 120.5L104.7 121.2L104.5 122L104.4 122.7L104.3 123.5L104.2 124.2L104.1 125L103.9 125.7L103.8 126.4L103.7 127.2L103.5 127.9V128.7L103.4 129.4L103.2 130.1L103 130.9V131.6L102.7 132.4V133.1L102.6 133.9L102.4 134.6V135.4L102.1 136.1L102 136.8V137.6L101.8 138.3L101.7 139.1L101.6 139.8L101.4 140.6L101.3 141.3L101.1 142V142.8L100.9 143.5L100.7 144.3V145L100.5 145.8L100.4 146.5L100.3 147.3L100.2 148" fill="#EFC8B6"/>
<path d="M101.2 148.1L99.2 148V147.2V147.1L99.4 145.6V145.5L99.6 144.9V144.3C99.6 144.2 99.6 144.1 99.6 144.1L99.8 143.4L100 142.7V142.1C100 142 100 142 100 141.9L100.2 141.2L100.4 139.7L100.6 139V138.3C100.6 138.2 100.6 138.1 100.7 138L100.9 137.4V136.8C100.9 136.7 100.9 136.7 100.9 136.6L101 135.9C101 135.8 101 135.8 101 135.7L101.2 135.2V134.6C101.2 134.5 101.2 134.4 101.3 134.3L101.5 133.7L101.6 132.3C101.6 132.2 101.6 132.2 101.6 132.1L101.8 131.5L102 130C102 129.9 102 129.9 102 129.8L102.2 129.2L102.3 128.6V127.9V127.8L102.6 126.4V125.7C102.6 125.6 102.6 125.5 102.6 125.5L102.8 124.9L103.2 122L103.4 121.2V121.1L103.6 120.5L103.7 119.9V119.2C103.7 119.1 103.7 119 103.7 119L104 117.7V117.1C104 117 104 116.9 104 116.7L104.2 116.1V115.5C104.2 115.4 104.2 115.3 104.2 115.2L104.4 114.5L104.6 113.2V112.5C104.6 112.4 104.6 112.3 104.6 112.2L104.8 111.6L104.9 111V110.3C104.9 110.2 104.9 110.2 104.9 110.1L105 109.4C105 109.3 105 109.3 105 109.2L105.3 108.5C105.4 108.1 105.8 107.9 106.2 107.9H106.9L107.6 107.8C107.7 107.8 107.8 107.8 107.9 107.8L108.5 107.9L109.1 107.8C109.2 107.8 109.2 107.8 109.3 107.8L110 107.9H110.7H110.8L111.5 108H112.2H112.3H113L113.7 107.9C113.8 107.9 113.8 107.9 113.9 107.9L114.6 108L115.3 107.9H116.1L116.8 107.8C116.9 107.8 117 107.8 117 107.8L117.6 107.9L118.2 107.8C118.3 107.8 118.4 107.8 118.6 107.8L119.2 107.9L119.8 107.8C119.9 107.8 119.9 107.8 120 107.8L120.7 107.9L122.1 107.8C122.2 107.8 122.3 107.8 122.3 107.8L122.9 107.9L123.5 107.8C123.6 107.8 123.8 107.8 123.9 107.8L124.5 108L125.9 107.9C126 107.9 126 107.9 126.1 107.9L126.7 108L127.3 107.9C127.4 107.9 127.4 107.9 127.5 107.9L128.1 108L128.7 107.9C128.8 107.9 128.9 107.9 129 107.9L129.7 108H130.3L131 107.9H131.1H131.8L133.3 107.8H134.1H135.6C135.7 107.8 135.7 107.8 135.8 107.8L136.5 107.9H137.2H137.9H138.6L139.2 107.8C139.3 107.8 139.5 107.8 139.6 107.8L140.2 107.9L140.8 107.8C140.9 107.8 141 107.8 141.1 107.8L141.8 107.9H142.5H143.2L143.8 107.8C143.9 107.8 144 107.8 144.1 107.8L144.7 107.9L145.3 107.8C145.4 107.8 145.4 107.8 145.5 107.8H146.3H147.1C147.2 107.8 147.2 107.8 147.3 107.8L147.9 107.9L148.5 107.8C148.6 107.8 148.7 107.8 148.7 107.8L149.4 107.9L150.1 107.8C150.2 107.8 150.2 107.8 150.3 107.8L151 107.9C151.5 108 151.9 108.4 151.9 108.9V109.6L152 110.3C152 110.4 152 110.6 152 110.7L151.9 111.3V111.9V112.7V113.3L152 114V114.1V114.8V114.9L151.8 116.4L151.6 117.2V117.3L151.4 117.9L151.3 118.6C151.3 118.7 151.2 118.8 151.2 118.9L150.9 119.5L150.7 120.1L150 121.5L149.8 122.1C149.8 122.2 149.7 122.3 149.6 122.4L149.2 122.9L148.9 123.5L148.8 123.6L148 124.7L147.7 125.3C147.7 125.4 147.6 125.5 147.5 125.6L147 126.2L146.9 126.3L146.4 126.7L146.1 127.2C146.1 127.3 146 127.3 146 127.4L145.6 127.8L145.3 128.3C145.3 128.4 145.2 128.4 145.1 128.5L144.6 129L142.9 130.4L142.5 130.9C142.5 131 142.4 131 142.3 131.1L141.7 131.6L141.6 131.7L140.9 132.1L140.4 132.4L139.9 132.9C139.8 133 139.8 133 139.7 133.1L139.1 133.4L138.6 133.8C138.6 133.8 138.5 133.9 138.4 133.9L137.8 134.2L137.3 134.6C137.2 134.7 137.1 134.7 137 134.8L136.4 135.1L134.4 136.2L133.7 136.5H133.6L132.2 137C132.2 137.1 132.2 137.1 132.2 137.2L132 138.7L132.1 139.4C132.1 139.5 132.1 139.5 132.1 139.6V140.3L132.2 141V141.1L132.3 142.6C132.3 142.7 132.3 142.8 132.3 142.9L132.2 143.5L132.3 146.5V147.3V148L130.3 148.1V147.3V147.2L130.4 145.7L130.3 143.5C130.3 143.4 130.3 143.3 130.3 143.3L130.4 142.7L130.2 140.6C130.2 140.5 130.2 140.5 130.2 140.4V139.7L130.1 139C130.1 138.9 130.1 138.8 130.1 138.8L130.3 137.4L130.2 136.7C130.1 136.2 130.4 135.8 130.8 135.6L132.9 134.8L134.8 133.8L135.4 133.4C135.4 133.4 135.5 133.4 135.5 133.3L136 133.1L136.4 132.7C136.5 132.6 136.5 132.6 136.6 132.6L137.2 132.3L137.7 131.9C137.8 131.9 137.8 131.8 137.9 131.8L138.4 131.5L138.9 131.1L139 131L139.6 130.6L140.3 130.2L140.7 129.9L141.1 129.4C141.1 129.3 141.2 129.3 141.3 129.2L143 127.8L143.4 127.4L143.7 126.9C143.7 126.8 143.8 126.7 143.9 126.7L144.4 126.3L144.8 125.8C144.9 125.7 144.9 125.7 145 125.6L145.5 125.2L145.8 124.8L146 124.2C146 124.1 146.1 124.1 146.1 124L146.9 122.8L147.2 122.2C147.2 122.1 147.3 122.1 147.3 122.1L147.6 121.6L147.8 121C147.8 120.9 147.8 120.9 147.9 120.8L148.5 119.5L148.7 118.9C148.7 118.8 148.7 118.8 148.8 118.7L149.1 118.2L149.2 117.6C149.2 117.5 149.2 117.5 149.3 117.4L149.5 116.7L149.7 116L149.9 114.7V114.1L149.8 113.4V113.3V112.6V111.8V111.1C149.8 111 149.8 110.9 149.8 110.8L149.9 110.2L149.8 109.7H149.4C149.3 109.7 149.3 109.7 149.2 109.7L148.6 109.6L148 109.7C147.9 109.7 147.8 109.7 147.7 109.7L147 109.6H146.3H145.7L145 109.7C144.9 109.7 144.8 109.7 144.7 109.7L144.1 109.6L143.5 109.7C143.4 109.7 143.4 109.7 143.3 109.7H142.6H141.9C141.8 109.7 141.8 109.7 141.7 109.7L141.1 109.6L140.5 109.7C140.4 109.7 140.3 109.7 140.2 109.7L139.6 109.6L139 109.7C138.9 109.7 138.9 109.7 138.8 109.7H138H137.3H136.5C136.4 109.7 136.4 109.7 136.3 109.7L135.6 109.6H134.2H133.4L132 109.7H131.9H131.2L130.5 109.8H130.4H129.6H129.5L128.9 109.7L128.3 109.8C128.2 109.8 128.1 109.8 128 109.8L127.3 109.7L126.6 109.8C126.5 109.8 126.5 109.8 126.4 109.8L125.7 109.7L124.3 109.8C124.2 109.8 124.1 109.8 123.9 109.8L123.3 109.7L122.7 109.8C122.6 109.8 122.5 109.8 122.5 109.8L121.9 109.7L120.5 109.8C120.4 109.8 120.4 109.8 120.3 109.8L119.7 109.7L119.1 109.8C119 109.8 118.9 109.8 118.7 109.8L118.1 109.7L117.5 109.8C117.4 109.8 117.3 109.8 117.2 109.8L116.6 109.7L116 109.8H115.2L114.5 109.9C114.5 109.9 114.4 109.9 114.3 109.9H113.6L112.9 110C112.8 110 112.8 110 112.7 110H112H111.3C111.2 110 111.2 110 111.1 110L110.4 109.9H109.7H109.6H109L108.3 110C108.2 110 108.1 110 108 110L107.4 109.9L106.7 110L106.6 110.5V111.2C106.6 111.3 106.6 111.3 106.6 111.4L106.5 112.1C106.5 112.2 106.5 112.2 106.5 112.3L106.3 112.9V113.5V113.6L106 115.1V115.2L105.8 115.8V116.4C105.8 116.5 105.8 116.6 105.8 116.7L105.6 117.2V117.8C105.6 117.9 105.6 118 105.6 118.1L105.3 119.4V120C105.3 120.1 105.3 120.1 105.3 120.2L105.2 120.9V121L105 121.7L104.8 123.1L104.5 125.3C104.5 125.4 104.5 125.4 104.5 125.5L104.3 126.1V126.7V126.8L104 128.2V128.9L103.9 129.7C103.9 129.8 103.9 129.8 103.9 129.9L103.7 130.5L103.5 131.9C103.5 132 103.5 132 103.5 132.1L103.3 132.7L103.2 134.1C103.2 134.2 103.2 134.3 103.2 134.3L103 134.9V135.5C103 135.6 103 135.7 102.9 135.9L102.7 136.5L102.6 137.1V137.8C102.6 137.9 102.6 138 102.5 138.1L102.3 138.7V139.3C102.3 139.4 102.3 139.4 102.3 139.5L102 140.9L101.9 141.6V141.7L101.7 142.3V143C101.7 143.1 101.7 143.2 101.7 143.3L101.5 144L101.4 144.5V145.2C101.4 145.3 101.4 145.4 101.4 145.5L101.2 146.2L101 147.6L101.2 148.1Z" fill="#201F1B"/>
<path d="M164.2 89.9L164.8 90.4L165.4 90.9L166 91.4L166.5 91.9L167 92.5L167.6 93.1L168 93.7L168.3 94.4L168.7 95.1L168.9 95.8L169.2 96.5L169.4 97.3V98L169.7 98.8L169.6 99.6L169.7 100.3V101.1L169.9 101.9L169.8 102.7L170 103.4L169.9 104.2L170 105V105.8L170.1 106.6L169.9 107.2L169.5 107.8L168.9 108.2L168.2 108L167.5 107.7L166.7 107.4L166.2 106.9L165.5 106.5L165 105.9L164.4 105.4L164 104.8L163.7 104.1L163.4 103.4L163 102.7L162.8 102L162.7 101.2" fill="#EFC8B6"/>
<path d="M168.9 109.2C168.8 109.2 168.7 109.2 168.6 109.2L167.9 109L166.4 108.4C166.3 108.4 166.2 108.3 166.1 108.2L165.6 107.7L165 107.4C164.9 107.3 164.8 107.3 164.7 107.2L164.3 106.7L163.8 106.2C163.7 106.1 163.7 106.1 163.6 106L163.2 105.4C163.1 105.3 163.1 105.2 163.1 105.2L162.9 104.5L162.2 103.2C162.2 103.1 162.1 103 162.1 103L161.9 102.3C161.9 102.3 161.9 102.2 161.9 102.1L161.8 101.3L163.8 101.1L163.9 101.8L164 102.4L164.7 103.7V103.8L164.9 104.4L165.2 104.8L165.7 105.2L165.8 105.3L166.2 105.7L166.7 106C166.8 106 166.9 106.1 166.9 106.2L167.3 106.6L168.8 107.1L169 106.8L169.1 106.5L169 106V105.9V105.2L168.9 104.5C168.9 104.4 168.9 104.3 168.9 104.2L169 103.6L168.8 103C168.8 102.9 168.8 102.7 168.8 102.6L168.9 102L168.8 101.4C168.8 101.3 168.8 101.2 168.8 101.2V100.5L168.7 99.8C168.7 99.7 168.7 99.6 168.7 99.5L168.8 98.9L168.6 98.3C168.6 98.2 168.6 98.1 168.6 98V97.4L168 95.5L167.7 95C167.7 95 167.7 94.9 167.6 94.9L167.3 94.2L167 93.7L165.5 92.1L164.4 91.2C164.4 91.2 164.3 91.2 164.3 91.1L163.8 90.6L165.2 89.2L165.7 89.7L166.9 90.6C166.9 90.6 167 90.6 167 90.7L168.6 92.4C168.6 92.4 168.7 92.5 168.7 92.6L169.1 93.3L169.5 94L169.9 94.6C169.9 94.7 170 94.8 170 94.9L170.7 97.1C170.7 97.2 170.8 97.3 170.8 97.4V98L171 98.6C171 98.7 171.1 98.9 171 99L170.9 99.7L171 100.3V100.4V101.1L171.2 101.8C171.2 101.9 171.2 102.1 171.2 102.2L171.1 102.8L171.3 103.4C171.3 103.5 171.3 103.7 171.3 103.8L171.2 104.4L171.3 105V105.1V105.8L171.4 106.5C171.4 106.7 171.4 106.9 171.4 107L171.2 107.7C171.2 107.7 171.2 107.8 171.1 107.8L170.8 108.4C170.7 108.6 170.6 108.7 170.4 108.8L169.7 109.1C169.2 109.1 169 109.2 168.9 109.2Z" fill="#201F1B"/>
<path d="M100.2 148V147.3L100.1 146.5V145.7L100.2 145L100.1 144.2V143.4V142.7V141.9L100.2 141.1L100.1 140.4L100.2 139.6L100.1 138.9L100.2 138.1L100.1 137.3L100.2 136.6L100.1 135.8V135L100.2 134.3L100.1 133.5L100.2 132.7L100.1 132L100.2 131.2L100 130.5L100.2 129.7L100.1 128.9V128.2L100.2 127.4L100.1 126.6L100.2 125.9L100 125.1L100.2 124.3L100.1 123.6V122.8V122L100.2 121.2V120.5V119.7V118.9L100.1 118.2L100.2 117.4L100.1 116.7L100.3 115.9L100.4 115.2V114.4L100.5 113.7V112.9V112.1L100.6 111.4L100.9 110.7L101 109.9L101.1 109.2L101.2 108.4L101.4 107.7V106.9L101.6 106.2L102 105.5L102.1 104.8L102.4 104V103.3L102.7 102.6L103 101.9L103.2 101.1L103.5 100.5L103.7 99.7L103.9 99L104.3 98.3L104.4 97.6L104.8 96.9L104.9 96.1L105.2 95.4L105.5 94.7L105.7 94L106.1 93.3L106.3 92.6L106.5 91.9L106.8 91.2L107 90.4L107.2 89.7L107.6 89L107.7 88.3L108 87.6L108.3 86.9L108.7 86.2L108.8 85.5L109.2 84.8L109.4 84L109.6 83.3L109.8 82.6L110.2 81.9L110.4 81.2L110.7 80.5L110.9 79.8L111.2 79.1L111.5 78.4L111.7 77.6L111.8 76.9L112.2 76.2L112.5 75.5L112.7 74.8L112.9 74L113.1 73.3L113.5 72.6L113.6 71.8L113.9 71.1L114.3 70.5L114.5 69.7L114.8 69L114.9 68.3L115.3 67.6L115.9 67L116.5 66.5L117.2 66.2L118 66.1L118.8 66.2L119.5 66.5L120.1 67L120.7 67.5L121 68.2L121.1 69L121.3 69.7V70.5L121.4 71.2L121.5 71.9V72.7V73.4L121.6 74.2V74.9V75.7V76.4L121.8 77.1V77.9L121.6 78.6L121.8 79.4L121.6 80.1L121.7 80.9L121.6 81.6V82.4L121.5 83.1V83.9L121.3 84.6L121.2 85.4V86.1L121 86.8V87.6L120.8 88.3L120.6 89L120.4 89.8L120.2 90.5L120.1 91.2L119.8 91.9L119.5 92.6L119.4 93.4L119 94L118.8 94.8L118.4 95.4L118 96.1L118.7 96.5L119.3 96.9L119.8 97.5L120.3 98.1L120.9 98.6L121.3 99.2L121.7 99.8L122.1 100.4L122.6 101L123 101.7L123.4 102.3L123.6 103L123.9 103.7L124.2 104.4L124.4 105.1L124.7 105.8L125 106.5L125.2 107.2L125.4 107.9L125.6 108.7L125.9 109.4V110.1L126.1 110.9L126.2 111.6L126.5 112.3L126.4 113.1L126.5 113.8L126.7 114.6L126.8 115.3L126.9 116V116.8L126.8 117.6V118.3L126.9 119.1V119.8" fill="#F1D898"/>
<path d="M162 110.2L161.2 110.3H160.5H159.7L159 110.4L158.2 110.3H157.5H156.7H156L155.2 110.2L154.5 110.3L153.7 110.2L153 110.4H152.2H151.5L150.7 110.3H150H149.2H148.5L147.7 110.4H146.9L146.2 110.3L145.4 110.4L144.7 110.3L143.9 110.4L143.2 110.3H142.4L141.7 110.4L140.9 110.3L140.2 110.2L139.4 110.4L138.7 110.3L137.9 110.2L137.2 110.3L136.4 110.4L135.6 110.2H134.9L134.1 110.4L133.4 110.3H132.6L131.9 110.4L131.1 110.3L130.4 110.4L129.6 110.3L128.9 110.4L128.1 110.3H127.3H126.6H125.8H125.1L124.3 110.2L123.6 110.4L122.8 110.3H122L121.3 110.2L120.5 110.4H119.8L119 110.1L118.2 109.9L117.7 109.3L117.4 108.5L117.3 107.8V107L117.1 106.3L117.2 105.5L117.3 104.8L117.1 104V103.2L117.2 102.5L117.3 101.7L117.2 101L117.3 100.2V99.5L117.1 98.7L117.3 97.9L117.2 97.2V96.4V95.7V94.9V94.2L117.3 93.4L117.2 92.6V91.9V91.1L117.3 90.4L117.1 89.6V88.9L117.2 88.1L117.1 87.3L117.2 86.6L117.3 85.8L117.1 85.1L117.2 84.3V83.5L117.3 82.8L117.1 82V81.3L117.2 80.5L117.1 79.8L117.2 79L117.3 78.2L117.2 77.5L117.3 76.7V76V75.2L117.2 74.5V73.7V72.9V72.2L117.1 71.4L117.3 70.7L117.2 69.9L117.1 69.2L117.3 68.4L117.2 67.6V66.9V66.1L117.1 65.4V64.6L117.2 63.9V63.1L117.1 62.4L117.2 61.6V60.8V60.1V59.3V58.6L117.3 57.8L117.2 57L117.3 56.3V55.5L117.2 54.8L117.1 54L117.2 53.2L117.3 52.5L117.2 51.7V51L117.3 50.2L117.1 49.4L117.3 48.7L117.2 47.9V47.2L117.3 46.4V45.6L117.2 44.9V44.1V43.4L117.3 42.6L117.1 41.8L117.2 41.1V40.3V39.6L117.3 38.8L117.2 38V37.3L117.3 36.5L117.2 35.7L117.1 35L117.2 34.2L117.3 33.5L117.2 32.7V31.9L117.3 31.2L117.1 30.4L117.3 29.6L117.6 28.8L118.3 28.4L119 27.9L119.8 27.8L120.5 27.9L121.3 27.8L122 27.9L122.8 27.8L123.5 27.9H124.3L125 27.8L125.8 28L126.5 27.9L127.3 27.8L128 27.9L128.8 27.8H129.5H130.3H131L131.8 27.9H132.5H133.3H134L134.8 27.8H135.5H136.3H137L137.8 27.9L138.5 28L139.3 27.8L140 27.9L140.8 27.8L141.6 27.9L142.3 27.8H143.1L143.8 27.9L144.6 27.8L145.3 27.9H146.1H146.8H147.6L148.3 27.7L149.1 27.8L149.8 27.9H150.6L151.4 27.8L152.1 27.9L152.9 27.8H153.6L154.4 27.9L155.1 27.8L155.9 27.9L156.7 27.8H157.4H158.2H158.9L159.7 27.9H160.4L161.2 27.8L162 27.9L162.7 28L163.4 28.4L164 28.9L164.4 29.6L164.6 30.4L164.5 31.1V31.9L164.6 32.7V33.4L164.5 34.2L164.4 34.9L164.5 35.7L164.4 36.4L164.6 37.2L164.5 37.9L164.4 38.7L164.5 39.5L164.6 40.2L164.5 41L164.6 41.7L164.4 42.5V43.3L164.6 44V44.8L164.5 45.5L164.6 46.3L164.5 47V47.8L164.6 48.6L164.4 49.3L164.6 50.1V50.8L164.5 51.6V52.3V53.1V53.9V54.6L164.4 55.4L164.5 56.1L164.4 56.9L164.6 57.7L164.4 58.4L164.5 59.2V59.9V60.7L164.6 61.4L164.4 62.2L164.5 63L164.4 63.7L164.5 64.5L164.6 65.2V66L164.5 66.7L164.4 67.5L164.5 68.3V69L164.6 69.8V70.5L164.5 71.3L164.6 72L164.5 72.8L164.6 73.5L164.5 74.3L164.4 75.1L164.5 75.8V76.6L164.6 77.3V78.1L164.4 78.9L164.6 79.6L164.5 80.4L164.4 81.1V81.9L164.6 82.6V83.4L164.5 84.2V84.9V85.7V86.4V87.2V88L164.4 88.7L164.6 89.5V90.2L164.4 91V91.8L164.6 92.5L164.5 93.3L164.4 94L164.6 94.8L164.5 95.6V96.3V97.1V97.8L164.6 98.6V99.4L164.4 100.1L164.5 100.9L164.4 101.7L164.6 102.4L164.4 103.2L164.5 103.9L164.6 104.7L164.5 105.5V106.2V107L164.4 107.8L164.3 108.5L164 109.3L163.4 109.8L162.7 110.2H162Z" fill="#201F1B"/>
<path d="M135.4 32H135.3L134.6 31.9H133.9L133.2 32L133.1 30.5L133.9 30.4H134.7H134.8L135.4 30.5L136 30.4C136.1 30.4 136.1 30.4 136.2 30.4L136.8 30.5L137.4 30.4C137.5 30.4 137.6 30.4 137.6 30.4L138.3 30.5H139H140.5L141.2 30.4C141.3 30.4 141.3 30.4 141.4 30.4L142.9 30.5L143.7 30.6H144.3L145 30.5C145.1 30.5 145.2 30.5 145.3 30.5L146 30.6H147.5H149V32.1H147.5H146H145.9L145.3 32L144.7 32.1H144.6H143.8H143.7L142.9 32L141.6 31.9L140.9 32C140.8 32 140.8 32 140.7 32H139.2H138.5C138.4 32 138.4 32 138.3 32L137.7 31.9L137 32C136.9 32 136.8 32 136.8 32L136.2 31.9L135.6 32C135.4 32 135.4 32 135.4 32Z" fill="white"/>
<path d="M142.8 106.2L142.7 106.9L142.2 107.6L141.6 107.9L140.8 108H140.1L139.5 107.5L139.1 106.9L138.9 106.2L139.1 105.5L139.4 104.8L140.1 104.4L140.8 104.3L141.6 104.5L142.2 104.8L142.7 105.4L142.8 106.2Z" fill="#D9D9D7"/>
<path d="M161 34.2L160.9 35L160.8 35.8L160.9 36.5L161 37.3L160.9 38L161 38.8L160.9 39.6V40.3L161 41.1L160.9 41.8L160.8 42.6V43.3V44.1V44.9V45.6L161 46.4L160.9 47.1V47.9L160.8 48.7L160.9 49.4V50.2V50.9L161 51.7L160.8 52.5V53.2L160.9 54L161 54.7L160.9 55.5L160.8 56.2L160.9 57V57.8L161 58.5L160.8 59.3L161 60L160.9 60.8L160.8 61.6L161 62.3L160.9 63.1V63.8L160.8 64.6L160.9 65.3V66.1L161 66.9V67.6L160.9 68.4L160.8 69.1L160.9 69.9V70.6L160.8 71.4L160.9 72.2V72.9V73.7V74.4L160.8 75.2V76V76.7L160.9 77.5V78.2L160.8 79V79.8L160.9 80.5L161 81.3L160.8 82L161 82.8V83.6V84.3V85.1L160.9 85.9L160.8 86.6L160.9 87.4L160.8 88.1L160.9 88.9V89.7L161 90.4L160.9 91.2L161 91.9L160.9 92.7L160.8 93.5V94.2L160.9 95V95.8L160.8 96.5L160.9 97.3V98.1L160.8 98.8L160.9 99.6V100.3L161 101.1L160.9 101.9H160.1L159.4 101.8L158.6 101.9L157.9 102L157.1 101.9L156.4 101.8L155.7 101.9H154.9L154.2 101.8L153.4 101.9H152.7H151.9H151.2H150.4H149.7H148.9L148.1 102L147.4 101.9L146.6 101.8L145.9 101.9H145.1H144.4L143.6 102L142.9 101.9H142.1H141.4H140.6H139.9L139.1 101.8L138.4 102L137.6 101.8L136.9 101.9H136.1L135.4 102L134.6 101.8L133.9 102H133.1L132.4 101.8L131.6 101.9L130.9 101.8L130.1 101.9H129.3L128.6 102L127.8 101.9H127.1L126.3 101.8H125.6L124.8 101.9H124.1L123.3 101.8H122.5H121.8L121 101.9L121.1 101.1V100.4L121 99.6L120.9 98.9L121.1 98.1L120.9 97.3L121.1 96.6L121 95.8V95.1L121.1 94.3L120.9 93.5L121 92.8L120.9 92L121 91.3L121.1 90.5L121 89.8L120.9 89L121 88.2V87.5L121.1 86.7V86L121 85.2L121.1 84.4L121 83.7V82.9V82.2L121.1 81.4V80.6L120.9 79.9L121 79.1V78.4V77.6L120.9 76.9L121 76.1L121.1 75.3L121 74.6V73.8L121.1 73.1L120.9 72.3L121 71.6V70.8V70V69.3V68.5L120.9 67.8L121.1 67L120.9 66.3V65.5L121.1 64.7L121 64V63.2L120.9 62.4L121 61.7V60.9V60.2V59.4V58.7V57.9L121.1 57.1V56.4L120.9 55.6V54.8L121 54.1V53.3L121.1 52.6L120.9 51.8L121 51V50.3V49.5L121.1 48.8V48L121 47.2L121.1 46.5L121 45.7V45V44.2L121.1 43.4L120.9 42.7L121 41.9V41.1L121.1 40.4L121 39.6L121.1 38.8L120.9 38.1V37.3L121.1 36.6V35.8V35L121 34.2L121.8 34.1L122.5 34.2H123.3H124H124.8H125.5L126.3 34.1L127 34.3H127.8L128.5 34.2H129.2H130H130.8H131.5L132.3 34.3H133H133.8H134.5L135.3 34.1L136 34.3L136.8 34.2L137.5 34.3L138.3 34.2H139L139.8 34.3H140.5H141.3H142L142.8 34.2H143.5L144.3 34.3H145L145.8 34.2H146.5H147.3L148 34.3H148.8H149.5H150.3H151.1L151.8 34.2L152.6 34.3L153.3 34.2L154.1 34.3H154.8L155.6 34.2L156.3 34.3H157.1H157.8L158.6 34.2H159.4L160.1 34.3L161 34.2Z" fill="#DDEDFA"/>
<path d="M156.8 72.9L156.1 73L155.3 72.9L154.5 73.1L153.8 72.9L153 73L152.3 73.1L151.5 73H150.8L150 72.9L149.2 73L148.5 73.1L147.7 73L147 72.9H146.2H145.4H144.7H143.9L143.2 73L142.4 73.1L141.7 73L140.9 72.9H140.1L139.4 73L138.6 72.9L137.9 73L137.1 72.9H136.3H135.6L134.8 73L134.1 72.9L133.3 73L132.5 72.9H131.8L131 73H130.3L129.5 72.9H128.7H128H127.2L126.4 73L125.7 72.9H124.9V72.2V71.4V70.7L125 69.9L124.9 69.2L125 68.4V67.6L124.9 66.9V66.1L125 65.3V64.6V63.8L124.9 63.1V62.3V61.5V60.8V60V59.2L125 58.5L124.9 57.7L125 56.9L124.9 56.2V55.4V54.7L124.8 53.9L124.9 53.1L124.8 52.4L124.9 51.6V50.8L124.8 50.1L124.9 49.3L124.8 48.5L125 47.7L124.9 46.9H125.7L126.4 47H127.2L127.9 46.9H128.7L129.4 47.1L130.2 47L131 46.9L131.7 47L132.5 46.9L133.2 47H134L134.8 47.1L135.5 47H136.3H137H137.8L138.5 46.9L139.3 47.1L140.1 46.9L140.8 47H141.6L142.3 47.1L143.1 46.9L143.9 47L144.6 46.9L145.4 47L146.1 46.9L146.9 47H147.7L148.4 46.9L149.2 47H149.9H150.7H151.5H152.2L153 46.9L153.8 47.1L154.5 46.9L155.3 47L156.1 47.1L156.8 47L156.9 47.7V48.5V49.3L156.8 50V50.8L156.9 51.6V52.3L156.8 53.1L156.9 53.8V54.6V55.4V56.1V56.9L156.8 57.7L156.7 58.4V59.2L156.8 59.9V60.7L156.9 61.5L156.7 62.2L156.8 63L156.9 63.8L156.8 64.5L156.9 65.3L156.7 66.1L156.8 66.8L156.9 67.6L156.8 68.4L156.9 69.1V69.9V70.7V71.4L156.8 72.2V72.9Z" fill="white"/>
<path d="M148.5 73.8L147.7 73.7L146.9 73.6H145.4H144.6L142.4 73.8H142.3L141.5 73.7L140.1 73.6L139.4 73.7H139.3H138.5L137.8 73.8C137.7 73.8 137.7 73.8 137.6 73.8L136.9 73.7H136.2H135.4L134.7 73.8C134.6 73.8 134.6 73.8 134.5 73.8L133.8 73.7L133.1 73.8C133 73.8 133 73.8 132.9 73.8L131.5 73.7L130 73.8C129.9 73.8 129.9 73.8 129.8 73.8L129.1 73.7H128.4H127.6L126.1 73.8H126L125.3 73.7H124.6C124.2 73.7 123.9 73.4 123.8 73L123.7 70.8L123.8 70V69.3L123.9 67.7L123.8 66.3C123.8 66.2 123.8 66.2 123.8 66.1L123.9 65.3V63.9L123.8 63.2C123.8 63.1 123.8 63.1 123.8 63V62.2V60.7L123.9 59.9L123.8 59.2C123.8 59.1 123.8 59.1 123.8 59L123.9 58.3V57.6V57.5L124 56.8L123.9 56.1V56V55.2V54.4L123.8 53.7C123.8 53.6 123.8 53.6 123.8 53.5L123.9 52.8L123.8 52.1C123.8 52.1 123.8 52 123.8 51.9L123.9 51.2L123.8 49.7V48.9V48.2C123.8 48.1 123.8 48.1 123.8 48L123.9 47.4L123.8 46.7C123.8 46.5 123.8 46.3 124 46.1C124.2 45.9 124.3 45.8 124.5 45.8H125.3H125.4L126.8 45.9L127.5 45.8H128.3C128.4 45.8 128.4 45.8 128.5 45.8L129.2 45.9L129.8 45.8L130.5 45.7C130.6 45.7 130.7 45.7 130.8 45.7L131.4 45.8L132 45.7C132.1 45.7 132.2 45.7 132.2 45.7L133 45.8L134.4 45.9L135.1 45.8H135.9L136.7 45.9H137.4L138.1 45.8C138.2 45.8 138.3 45.8 138.4 45.8L139 45.9L139.6 45.8C139.7 45.8 139.7 45.8 139.8 45.8H140.6H141.3H141.4L142 45.9L142.6 45.7C142.7 45.7 142.8 45.7 142.9 45.7L143.6 45.8H144.3L145.1 45.9H145.8L147.4 46L148.1 45.9C148.2 45.9 148.2 45.9 148.3 45.9L149.1 46H149.8L152.8 45.9C152.9 45.9 152.9 45.9 153 45.9L153.6 46L154.2 45.9C154.3 45.9 154.4 45.9 154.5 45.9L155.9 46.1L156.6 46C157 46 157.4 46.3 157.4 46.7L157.5 47.5V48.3V49.1V49.2L157.4 49.9V50.6L157.5 51.3C157.5 51.4 157.5 51.4 157.5 51.5V52.3L157.4 53L157.5 53.6V53.7V54.5V55.3V56V56.8L157.4 57.6V59L157.5 59.7C157.5 59.8 157.5 59.8 157.5 59.9L157.4 60.6L157.5 61.3C157.5 61.4 157.5 61.5 157.5 61.6L157.3 62.3V63L157.4 63.7V63.8V64.6V65.3C157.4 65.4 157.4 65.4 157.4 65.5L157.3 66.1L157.5 67.5C157.5 67.6 157.5 67.6 157.5 67.7L157.4 68.3L157.5 68.9V69V70.5V71.2V71.3L157.4 72.1V72.7C157.4 73.1 157.1 73.4 156.7 73.4H156H155.9L155.3 73.3L154.7 73.4C154.6 73.4 154.5 73.4 154.4 73.4L153.8 73.3L152.4 73.5C152.3 73.5 152.3 73.5 152.2 73.5L151.5 73.4H150.8H150L148.5 73.8ZM147 72.1H147.1L147.9 72.2H148.5L149.9 72.1H150H150.8H151.5H151.6L152.3 72.2L153.7 72C153.8 72 153.9 72 154 72L154.6 72.1L155.2 72C155.3 72 155.4 72 155.4 72L156.1 72.1L156.2 71.3V70.6V69.1L156.1 68.4C156.1 68.3 156.1 68.2 156.1 68.1L156.2 67.4L156 66C156 65.9 156 65.8 156 65.8L156.1 65.1V64.4V63.6L156 62.9V62.1C156 62 156 62 156 61.9L156.1 61.3L156 60.7C156 60.6 156 60.6 156 60.5L156.1 59.8L156 59.1V59V57.4L156.1 56.6V55.9V55.2V54.4V53.7L156 53C156 52.9 156 52.8 156 52.7L156.1 51.9V51.3L156 50.6V49.7C156 49.6 156 49.6 156 49.5L156.1 48.8V48.1V47.4C156 47.4 156 47.4 155.9 47.4L154.5 47.2L153.9 47.3C153.8 47.3 153.7 47.3 153.6 47.3L152.9 47.2H152.2L149.9 47.3H149.1L148.4 47.2L147.7 47.3C147.6 47.3 147.6 47.3 147.5 47.3L146 47.2L145.3 47.3H145.2L144.4 47.2H143.7H143.6L143 47.1L142.4 47.3C142.3 47.3 142.2 47.3 142.1 47.3L141.4 47.2H140.7H140L139.3 47.3C139.2 47.3 139.1 47.3 139 47.3L138.4 47.2L137.8 47.3H137H136.9L136.1 47.2H135.4L134.7 47.3H134.6L132.4 47.1L131.8 47.2C131.7 47.2 131.6 47.2 131.5 47.2L130.9 47.1L130.3 47.2L129.5 47.3C129.4 47.3 129.4 47.3 129.3 47.3L128.6 47.2H127.9L127.2 47.3H127.1L125.7 47.2C125.7 47.3 125.7 47.4 125.7 47.5L125.6 48.2V48.9V49.7L125.7 51.2V51.3L125.6 52L125.7 52.7V52.8L125.6 53.5L125.7 54.2V55.1V55.8L125.8 56.5C125.8 56.6 125.8 56.6 125.8 56.7L125.7 57.4V58.1V58.2L125.6 58.9L125.7 59.6V59.7L125.6 60.5V61.9V62.6L125.7 63.3C125.7 63.4 125.7 63.4 125.7 63.5V65L125.6 65.8L125.7 67.2L125.6 68.8V69.5V69.6L125.5 70.4V71.8H125.6L126.3 71.9L127.8 71.8H128.6L129.3 71.7C129.4 71.7 129.4 71.7 129.5 71.7L130.2 71.8L131.6 71.7H131.7L133.2 71.8L133.9 71.7H134L134.7 71.8L135.4 71.7H135.5H136.3H137C137.1 71.7 137.1 71.7 137.2 71.7L137.9 71.8H138.6H139.4L140.1 71.7H140.2L142.5 71.9H143.2L143.9 71.8L144.7 71.7H145.6L147 72.1Z" fill="#201F1A"/>
<path d="M156.2 72.3H155.4H154.7L154 72.4L153.2 72.3H152.5L151.7 72.4L151 72.3H150.2H149.5L148.7 72.4H148H147.2L146.5 72.3H145.7H145L144.2 72.2L143.5 72.3L142.7 72.4H142L141.2 72.3H140.5L139.7 72.2L139 72.3H138.2H137.5L136.8 72.2L136 72.3H135.3L134.5 72.4L133.8 72.3L133 72.4L132.3 72.3L131.5 72.2L130.7 72.3L130 72.4L129.2 72.2L128.5 72.3H127.7H127L126.2 72.4L125.5 72.3V71.5V70.7V69.9V69.2V68.4H126.2H127H127.7H128.5L129.2 68.3L130 68.4H130.7L131.4 68.5L132.2 68.3H132.9H133.7H134.4L135.2 68.4L135.9 68.3L136.7 68.4H137.4H138.2L138.9 68.3H139.7H140.4H141.2H141.9H142.7L143.4 68.4L144.2 68.3H144.9H145.7H146.4L147.2 68.4L147.9 68.3H148.7H149.4L150.2 68.4L150.9 68.3H151.7L152.4 68.5L153.2 68.4L153.9 68.3L154.7 68.4L155.4 68.3L156.2 68.4V69.1L156.1 69.9L156.2 70.7V71.5V72.3Z" fill="#FDDB00"/>
<path d="M138.7 61.4L137.9 61.3H137.2H137.1L136.4 61.2H135.7L135 61.1L134.3 61.2H132.7H132.6L131.9 61.1L130.6 61.2L130.4 59.7L131.9 59.5C132 59.5 132 59.5 132.1 59.5L132.8 59.6H134.2L134.9 59.5C135 59.5 135 59.5 135.1 59.5L135.8 59.6H136.5L137.3 59.7H138H138.1L138.8 59.8L140.2 59.6C140.3 59.6 140.4 59.6 140.5 59.6L141.2 59.8H141.8L142.5 59.7H142.6H143.3L144.1 59.8L143.9 61.3L143.2 61.2H142.6L141.9 61.3H141.8H141.1C141 61.3 141 61.3 140.9 61.3L140.3 61.2L138.7 61.4C138.8 61.4 138.8 61.4 138.7 61.4Z" fill="#201F1A"/>
<path d="M135 67H134.9L134.3 66.9L133.7 67C133.6 67 133.6 67 133.5 67L132.1 66.9L131.4 67H130.6V65.5L132 65.4L133.5 65.5L134.2 65.4C134.3 65.4 134.4 65.4 134.4 65.4L135 65.5L135.6 65.4C135.7 65.4 135.7 65.4 135.8 65.4L136.5 65.5L137.2 65.4H138H138.8V66.9H138.1L136.7 67H136.6L135.9 66.9L135.2 67C135.1 66.9 135.1 67 135 67Z" fill="#201F1A"/>
<path d="M143.9 64.2L141.7 64H141L140.3 64.1C140.2 64.1 140.2 64.1 140.1 64.1L139.4 64L138 64.1H137.2L136.5 64.2C136.4 64.2 136.3 64.2 136.3 64.2L135.6 64.1L134.2 64.2C134.1 64.2 134.1 64.2 134 64.2L133.4 64.1L132.8 64.2C132.7 64.2 132.6 64.2 132.5 64.2L132 64H131.3L130.6 64.1L130.5 62.6L131.2 62.5H132H132.1L132.7 62.6L133.3 62.5C133.4 62.5 133.5 62.5 133.6 62.5L134.2 62.6L135.6 62.5C135.7 62.5 135.7 62.5 135.8 62.5L136.4 62.6L137 62.5H137.1H137.8L139.2 62.4H139.3L140 62.5L140.7 62.4H141.5H142.3L143.8 62.6L143.9 64.2Z" fill="#201F1A"/>
<path d="M151.2 61.4L150.5 61.3H149.8C149.7 61.3 149.7 61.3 149.6 61.3L149 61.2H147.7L147.1 61.3C147 61.3 146.9 61.3 146.8 61.3L146.1 61.2L146.4 59.7L147 59.8L147.6 59.7H149.2C149.2 59.7 149.3 59.7 149.4 59.7L150 59.8H150.6H150.7L151.4 59.9L151.2 61.4Z" fill="#201F1A"/>
<path d="M146.3 66.9L146.1 65.4L147.5 65.3H148.3H148.4L149.1 65.4H149.7L150.4 65.3H150.5H151.2L151.1 66.8H150.4L149.7 66.9H149.6H148.9H148.8L148.2 66.8L146.9 66.9H146.3Z" fill="#201F1A"/>
<path d="M149.8 64.2H149.7L149 64.1H147.7L147 64.2C146.9 64.2 146.9 64.2 146.8 64.2L146.1 64.1L146.3 62.6L146.9 62.7L147.5 62.6H147.6L149 62.7L149.7 62.8L150.3 62.7L151.1 62.6L151.2 64.1L150.5 64.2L149.8 64.3C149.9 64.2 149.9 64.2 149.8 64.2Z" fill="#201F1A"/>
<path d="M151.3 53.8H150.5L149.8 53.9L149 53.8L148.2 53.9L147.5 53.7L146.7 53.8L145.9 53.9H145.2L144.4 53.7L143.6 53.8L142.9 53.7L142.1 53.8L141.4 53.9H140.6L139.8 53.7L139.1 53.9L138.3 53.8H137.5H136.8L136 53.7L135.2 53.8H134.5H133.7L132.9 53.9L132.2 53.8L131.4 53.9H130.7V54.6L130.6 55.4L130.5 56.3L130.6 57.1V57.9H131.4H132.1H132.9L133.7 57.8L134.4 58L135.2 57.9L136 58L136.7 57.9H137.5H138.3L139 58L139.8 57.9L140.5 57.8L141.3 58L142.1 57.9H142.8L143.6 57.8L144.4 57.9H145.1L145.9 58L146.7 57.9L147.4 58L148.2 57.9L149 57.8L149.7 58H150.5L151.3 57.9V57.1V56.3V55.4V54.6V53.8Z" fill="#ABABAB"/>
<path d="M151.4 51.1L151.5 51.8L152.1 52.2L152.7 52.4L153.3 52.3L153.9 51.9L154 51.1L153.8 50.5L153.4 49.9L152.7 49.8L152 50L151.6 50.5L151.4 51.1Z" fill="#00643C"/>
<path d="M132.2 52C132.1 52 132.1 52 132 52L131.4 51.9L130.8 52C130.7 52 130.6 52 130.5 52L129.8 51.9H129.1H128.3V50.4H129.1H129.8C129.9 50.4 129.9 50.4 130 50.4L130.6 50.5L131.2 50.4C131.3 50.4 131.4 50.4 131.5 50.4L132.1 50.5L132.7 50.4C132.8 50.4 132.8 50.4 132.9 50.4H133.7H134.4L135.2 50.5L135.9 50.4C136 50.4 136 50.4 136.1 50.4L136.7 50.5L137.3 50.3C137.4 50.3 137.4 50.3 137.5 50.3H138.3V51.8H137.6L137 52C136.9 52 136.8 52 136.7 52L136 51.9L135.3 52C135.2 52 135.2 52 135.1 52L134.3 51.9H133.6H132.8L132.1 52C132.3 52 132.3 52 132.2 52Z" fill="#201F1A"/>
<path d="M100.1 148V147.3V146.5L100.2 145.7V145L100.1 144.2L100.2 143.4L100.1 142.7L100.2 141.9V141.1L100.1 140.4V139.6V138.9L100.2 138.1V137.3L100.1 136.6V135.8L100.2 135V134.3V133.5V132.7V132L100.1 131.2L100.2 130.5V129.7L100.1 128.9V128.2V127.4V126.6V125.9V125.1L100.2 124.3L100.1 123.6L100 122.8L100.2 122V121.2V120.5V119.7L100.1 118.9V118.2V117.4V116.7L100.3 115.9L100.2 115.1V114.4L100.5 113.7V112.9L100.6 112.1V111.4L100.8 110.6L101 109.9L101.1 109.2L101.2 108.4L101.3 107.7L101.5 106.9L101.7 106.2L101.8 105.5L102 104.7L102.3 104L102.5 103.3L102.7 102.6L103 101.9L103.1 101.1L103.4 100.4L103.8 99.7L104 99L104.3 98.3L104.5 97.6L104.7 96.8L105 96.2L105.2 95.4L105.5 94.7L105.8 94L106 93.3L106.3 92.6L106.6 91.9L106.8 91.2L107 90.4L107.4 89.8L107.6 89.1L107.8 88.3L108.1 87.6L108.3 86.9L108.6 86.2L108.9 85.5L109.1 84.7L109.3 84L109.7 83.3L109.9 82.6L110.1 81.9L110.4 81.2L110.5 80.4L111 79.8L111.2 79.1L111.3 78.3L111.6 77.6L111.9 76.9L112.1 76.2L112.3 75.4L112.7 74.8L113 74.1L113.2 73.3L113.4 72.6L113.7 71.9L113.9 71.1L114.3 70.5L114.5 69.7L114.7 69L115 68.3L115.4 67.6L115.8 67L116.5 66.5L117.2 66.2L118 66.1L118.8 66.2L119.5 66.6L120.1 67L120.7 67.5L121 68.2L121.3 69L121.2 69.7L121.3 70.5L121.4 71.2L121.5 71.9L121.4 72.7L121.7 73.4L121.6 74.2V74.9V75.7L121.7 76.4L121.8 77.1L121.7 77.9V78.6L121.8 79.4L121.7 80.1L121.6 80.9V81.6V82.4L121.5 83.1L121.4 83.9V84.6L121.3 85.4L121.1 86.1L121 86.8L120.9 87.6V88.3L120.6 89.1L120.5 89.8L120.2 90.5L120.1 91.2L119.9 92L119.6 92.7L119.3 93.4L119 94L118.8 94.8L118.4 95.4L118.1 96.1L118.6 96.6L119.2 97L119.8 97.5L120.4 98L120.9 98.6L121.4 99.1L121.7 99.8L122.1 100.4L122.5 101.1L122.9 101.7L123.2 102.4L123.6 103L123.9 103.7L124.3 104.4L124.5 105.1L124.8 105.8L125 106.5L125.3 107.2L125.6 107.9L125.7 108.6L125.8 109.4L126 110.1L126.2 110.8L126.3 111.6L126.5 112.3V113.1L126.6 113.8V114.6V115.3L126.8 116L126.7 116.8L126.8 117.6L126.9 118.3L126.8 119.1V119.8" fill="#EFC8B6"/>
<path d="M101.1 148.1L99.1 148L99.2 147.2V146.5V145L99.1 144.3C99.1 144.2 99.1 144.1 99.1 144L99.2 143.4L99.1 142.8C99.1 142.7 99.1 142.7 99.1 142.6L99.2 141.2L99.1 140.6C99.1 140.5 99.1 140.5 99.1 140.4V138.9C99.1 138.8 99.1 138.8 99.1 138.7L99.2 138V137.4L99.1 136.7C99.1 136.6 99.1 136.6 99.1 136.5V135.7L99.2 135L99.1 134.4V134.3V133.5V132.7V132L99 131.3C99 131.2 99 131.1 99 130.9L99.1 130.2V129.6L99 128.9C99 128.8 99 128.8 99 128.7V127.2L98.9 126.5V124.9C98.9 124.8 98.9 124.8 98.9 124.7L99 124L98.9 122.6C98.9 122.5 98.9 122.4 98.9 122.3L99 121.6V120.9V120.2V120.1L99.1 119.4L99 118.7V118.6V117.1V117V116.2C99 116.1 99 116.1 99 116L99.1 115.4L99 114.8V114.7V113.9C99 113.8 99 113.7 99.1 113.6L99.3 113L99.4 110.9V110.8L99.6 110.1L99.8 109.4L99.9 108.7V108L100 107.2C100 107.1 100 107.1 100 107L100.4 105.7L100.5 105V104.9L100.7 104.2V104.1L101 103.5L101.2 102.8L101.5 102L101.8 101.3L101.9 100.6C101.9 100.5 101.9 100.5 102 100.4L102.3 99.7V99.6L102.6 99L102.8 98.4L103.3 97L103.4 96.3C103.4 96.2 103.4 96.1 103.5 96.1L103.8 95.5L104.3 94.1C104.3 94.1 104.3 94 104.4 94L104.7 93.4L104.8 92.8C104.8 92.7 104.9 92.6 104.9 92.5L105.2 91.9L105.4 91.3L105.6 90.6L105.7 89.9C105.7 89.8 105.8 89.7 105.8 89.6L106.1 89L106.3 88.5L106.4 87.8C106.4 87.7 106.4 87.7 106.5 87.6L107.6 84.9L107.8 84.2L108.1 83.4C108.1 83.4 108.1 83.3 108.2 83.3L108.5 82.7L109.1 80.7L109.2 80C109.2 79.9 109.3 79.8 109.3 79.7L109.7 79.2L109.9 78.7L110 78C110 77.9 110 77.9 110 77.8L110.6 76.4L111 75C111 74.9 111.1 74.9 111.1 74.8L111.4 74.2L111.6 73.6L111.9 72.2C111.9 72.1 111.9 72.1 112 72L112.3 71.3L112.5 70.6C112.5 70.5 112.5 70.5 112.6 70.4L112.9 69.8L113.1 69.2L113.3 68.5C113.3 68.5 113.3 68.4 113.4 68.4L113.7 67.7V67.6L114.5 66.2C114.6 66.1 114.7 66 114.7 65.9L115.3 65.4C115.4 65.3 115.5 65.3 115.5 65.3L116.2 65C116.3 65 116.4 64.9 116.5 64.9L117.3 64.8H117.4H118.2C118.5 64.8 118.7 64.9 118.9 65.1L120 65.7C120.1 65.7 120.2 65.8 120.2 65.9L120.7 66.5C120.8 66.6 120.8 66.6 120.9 66.7L121.3 67.4C121.3 67.4 121.3 67.5 121.4 67.5L121.7 68.2C121.7 68.3 121.8 68.5 121.7 68.6L121.6 69.2L121.8 70.6V71.4V72L122 72.6C122 72.7 122.1 72.9 122 73L121.9 73.7V74.4L122.1 76.6C122.1 76.7 122.1 76.7 122.1 76.8L122 77.5L122.1 78.8C122.1 78.9 122.1 79 122.1 79L122 79.7L121.9 80.4V81V81.1L121.8 82.6C121.8 82.7 121.8 82.7 121.8 82.8L121.7 83.4V84C121.7 84.1 121.7 84.1 121.7 84.2L121.6 84.9V85L121.4 85.7L121.3 86.3V87L121.2 87.8C121.2 87.9 121.2 88 121.1 88.1L120.9 88.7L120.8 89.3C120.8 89.4 120.8 89.5 120.7 89.5L120.5 90.1L120.2 91.5L119.9 92.3L119.6 93.1C119.6 93.1 119.6 93.2 119.5 93.2L119.2 93.7L119 94.3C119 94.4 119 94.4 118.9 94.5L118.6 95.2L119.1 95.5L119.2 95.6L120.3 96.6L120.9 97.2L121.4 97.8C121.4 97.8 121.5 97.9 121.5 98L121.8 98.6L122.6 99.9L123.7 101.8C123.8 101.9 123.8 102 123.8 102.1L124 102.7L124.3 103.2C124.3 103.3 124.4 103.3 124.4 103.4L124.9 104.8V104.9L125.1 105.6L125.6 107V107.1L125.8 107.8V107.9L125.9 108.6L126 109.2L126.2 109.9C126.2 110 126.2 110 126.2 110.1L126.3 110.8L126.5 111.5C126.5 111.6 126.5 111.6 126.5 111.7V112.4L126.6 113C126.6 113.1 126.6 113.2 126.6 113.2V114V114.6L126.8 115.2C126.8 115.3 126.8 115.5 126.8 115.6L126.7 116.2L126.9 117.6C126.9 117.7 126.9 117.8 126.9 117.9L126.8 118.6V119.3L124.8 119.2V118.4V118.3L124.9 117.7L124.7 116.3C124.7 116.2 124.7 116.1 124.7 116L124.8 115.4L124.7 114.8C124.7 114.7 124.7 114.6 124.7 114.6V113.9V113.2L124.6 112.6C124.6 112.5 124.6 112.5 124.6 112.4V111.8L124.5 111.2V111.1L124.4 110.5L124.2 109.9V109.8L124 109.1V109L123.9 108.3L123.8 107.7L123.3 106.4V106.3L123.1 105.6L122.6 104.3L122.3 103.7C122.3 103.6 122.2 103.5 122.2 103.5L122 102.9L121.7 102.4C121.7 102.4 121.7 102.3 121.6 102.3L120.9 101L120.1 99.8C120.1 99.8 120.1 99.7 120 99.7L119.7 99.1L119.3 98.6L118.8 98.1L117.8 97.2L117.2 96.8C117.1 96.8 117.1 96.7 117 96.7L116.5 96.2C116.2 95.9 116.1 95.5 116.3 95.1L116.9 93.8L117.1 93.2C117.1 93.1 117.2 93 117.2 93L117.5 92.4L117.8 91.8L118.2 90.5L118.3 89.8C118.3 89.7 118.3 89.7 118.3 89.6L118.5 89L118.6 88.4C118.6 88.3 118.6 88.3 118.7 88.2L118.9 87.6L119 86.3C119 86.2 119 86.2 119 86.1L119.1 85.4L119.3 84.6L119.4 84V83.3C119.4 83.2 119.4 83.1 119.4 83L119.6 82.3L119.7 81L119.6 80.3C119.6 80.2 119.6 80.1 119.6 80L119.8 78.7L119.7 78.1V77.3C119.7 77.2 119.7 77.2 119.7 77.1L119.8 76.5V75.9L119.6 74.5V73.7C119.6 73.7 119.6 73.6 119.6 73.5L119.7 73L119.5 72.5C119.5 72.4 119.5 72.3 119.5 72.2V71.5V70.8L119.3 69.4C119.3 69.3 119.3 69.2 119.3 69.2V68.7L119.1 68.2L118.8 67.7L118.5 67.3L117.4 66.7H117L116.4 66.8L115.9 67L115.5 67.3L114.8 68.4L114.5 69L114.3 69.7V69.8L114 70.5C114 70.5 114 70.6 113.9 70.6L113.6 71.2L113.4 71.8V71.9L113.1 72.5L112.7 73.9L112.4 74.7C112.4 74.8 112.4 74.8 112.3 74.9L112 75.5L111.6 76.8V76.9L111.1 78.2L111 78.9C111 79 111 79 111 79.1L110.8 79.8C110.8 79.9 110.7 80 110.7 80L110.4 80.5L110.3 81.1V81.2L110.1 81.9L109.7 83.3C109.7 83.4 109.7 83.4 109.6 83.5L109.3 84.1L109.1 84.7L108.9 85.4V85.5L107.8 88.2L107.7 88.8C107.7 88.9 107.7 88.9 107.7 89L107.4 89.7C107.4 89.8 107.4 89.8 107.3 89.9L107 90.4L106.9 91L106.7 91.8V91.9L106.4 92.6V92.7L106.1 93.2L106 93.8C106 93.9 106 94 105.9 94.1L105.6 94.7L105.2 96V96.1L104.9 96.7L104.8 97.3V97.4L104.6 98.1L104.3 98.9L104.1 99.5C104.1 99.6 104.1 99.6 104 99.7L103.7 100.3L103.5 100.9L104 102C104 102.1 104 102.1 103.9 102.2L103.6 102.9L103.2 104.2V104.3L103 105L102.8 105.6L102.7 106.3V106.4L102.3 107.8L102.2 108.5V109.2L102.1 110V110.1L101.8 111.4L101.7 113.6C101.7 113.7 101.7 113.8 101.6 113.9L101.4 114.5V115L101.5 115.7C101.5 115.8 101.5 115.9 101.5 116.1L101.3 116.8V117.4V118.8L101.4 119.5C101.4 119.6 101.4 119.6 101.4 119.7L101.3 120.4V121.1V121.2V122V122.1L101.2 122.7L101.3 124.1C101.3 124.2 101.3 124.3 101.3 124.3L101.2 125L101.3 127.1V128.6L101.4 129.3C101.4 129.4 101.4 129.4 101.4 129.5V130.3C101.4 130.4 101.4 130.4 101.4 130.5L101.3 131.1L101.4 131.7C101.4 131.8 101.4 131.8 101.4 131.9V132.7V133.4V134.1L101.5 134.8C101.5 134.9 101.5 135 101.5 135L101.4 136.3L101.5 137V137.1V137.9C101.5 138 101.5 138 101.5 138.1L101.4 138.8V140.1L101.5 140.8C101.5 140.9 101.5 141 101.5 141.1L101.4 142.5L101.5 143.2C101.5 143.3 101.5 143.4 101.5 143.5L101.4 144.1L101.5 144.7V144.8V146.4V147.1L101.1 148.1Z" fill="#201F1B"/>
<path d="M136.8 145.5H136.1L135.3 145.6H134.5H133.8L133 145.4H132.3L131.5 145.5H130.8L130 145.4L129.3 145.6L128.5 145.5L127.8 145.4L127 145.5H126.3L125.5 145.4L124.8 145.6L124 145.4L123.3 145.5H122.5H121.7L121 145.6L120.2 145.5L119.5 145.4H118.7L118 145.5L117.2 145.4H116.5L115.7 145.5H115H114.2H113.4L112.7 145.4L111.9 145.5L111.2 145.4H110.4L109.7 145.5H108.9H108.2L107.4 145.6L106.6 145.4L105.9 145.5L105.1 145.4L104.4 145.5L103.6 145.6L102.9 145.4H102.1L101.3 145.5L100.6 145.4L99.8 145.5L99.1 145.4H98.3L97.5 145.5H96.8H96L95.2 145.4L95.3 146.2L95.1 147L95 147.7L95.1 148.5L95 149.3V150L94.7 150.8V151.5L94.8 152.3L94.6 153V153.8V154.5L94.4 155.3L94.5 156L94.4 156.8L94.3 157.6L94.2 158.3L94.1 159.1V159.8V160.6L94 161.4L93.9 162.1V162.9V163.6L93.8 164.4L93.6 165.1V165.9L93.7 166.7L93.4 167.4V168.2L93.3 168.9L93.4 169.7L93.3 170.4L93.1 171.2L93.2 172L93 172.7L93.1 173.5L93 174.2V175L92.8 175.8V176.5L92.7 177.3L92.6 178V178.8V179.6L92.4 180.3L92.5 181.1L92.3 181.8V182.6L92.2 183.4L92.1 184.1V184.9L92 185.6L92.1 186.4L91.9 187.2V187.9L91.8 188.8L92.6 188.7L93.3 188.6H94.1L94.8 188.8L95.6 188.6L96.3 188.8L97.1 188.6H97.9L98.6 188.7L99.4 188.8L100.1 188.7L100.9 188.8H101.6L102.4 188.7L103.1 188.6L103.9 188.7H104.6L105.4 188.8L106.1 188.6L106.9 188.8L107.6 188.7L108.4 188.8L109.1 188.6H109.9H110.6L111.4 188.8H112.1L112.9 188.7H113.7H114.4H115.2L115.9 188.6L116.7 188.7L117.4 188.8H118.2H118.9L119.7 188.7L120.4 188.8L121.2 188.7H122L122.7 188.6H123.5L124.2 188.8H125L125.7 188.7L126.5 188.8H127.2L128 188.7L128.7 188.6L129.5 188.7H130.3H131L131.8 188.6L132.5 188.7L133.3 188.8L134 188.6L134.8 188.7L135.6 188.6L136.3 188.7L137.1 188.6H137.8L138.6 188.7H139.4H140.1L140.2 187.9L140 187.2L139.9 186.4L140 185.7L139.9 184.9L139.7 184.2V183.4V182.7V181.9L139.6 181.2L139.4 180.4V179.7L139.3 178.9L139.2 178.1L139.3 177.4V176.6L139.1 175.9L139 175.1L139.1 174.3L139 173.6V172.8L138.8 172.1L138.9 171.3L138.8 170.6V169.8L138.6 169L138.5 168.3L138.6 167.5L138.4 166.8V166L138.3 165.3V164.5L138.1 163.7V163L138 162.2V161.5L137.9 160.7L138 159.9L137.8 159.2V158.4V157.7L137.7 156.9L137.6 156.1L137.5 155.4L137.6 154.6L137.4 153.9L137.5 153.1L137.3 152.4V151.6L137.2 150.8V150.1L137 149.3V148.5L136.9 147.8L137 147L136.9 146.2L136.8 145.5Z" fill="#DDF7E1"/>
<path d="M94.7 158.5H95.4L96.2 158.4L96.9 158.6L97.6 158.4H98.4H99.1L99.9 158.5H100.6H101.4L102.1 158.4L102.9 158.5L103.6 158.4L104.4 158.5H105.1H105.9L106.6 158.3L107.4 158.4H108.1L108.9 158.5L109.6 158.6L110.4 158.4H111.1H111.9H112.6L113.3 158.5L114.1 158.4H114.8H115.6L116.4 158.5L117.1 158.4H117.9H118.6L119.4 158.5H120.1H120.9L121.6 158.4L122.4 158.5H123.1L123.9 158.4H124.6H125.4L126.1 158.5H126.9H127.6L128.4 158.6L129.1 158.4L129.9 158.5L130.6 158.3L131.4 158.5L132.1 158.4L132.9 158.5H133.6H134.4H135.1L135.9 158.4H136.7L137.4 158.5" fill="white"/>
<path d="M96.9 159.6L96.1 159.4L95.5 159.5H94.6L94.7 157.5H95.3L96.2 157.3L96.9 157.5L97.6 157.3L98.4 157.4L99.2 157.3L100 157.5H100.6H101.3L102.1 157.4L102.8 157.5L103.6 157.4L104.4 157.5H105.1H105.8L106.5 157.3L109.6 157.6L110.4 157.4H112.6L113.3 157.5L114.8 157.4H115.8L116.4 157.5L117.1 157.4H117.8L119.4 157.5H120.8L121.6 157.4L122.4 157.5H123L123.8 157.4H124.6H125.4L126.9 157.5H127.6H128.3L129.1 157.4L129.8 157.5L130.6 157.3L131.4 157.5L132.1 157.4L132.9 157.5H134.4H135.1L136.7 157.4L137.6 157.6L137.2 159.5L136.6 159.4L135.2 159.5H134.3H132.9L132.1 159.4L131.3 159.5L130.6 159.4L129.9 159.5L129.2 159.4L128.4 159.6L127.6 159.5H126.8L125.3 159.4H124.7H123.9L123.2 159.6L122.2 159.5L121.6 159.4L120.9 159.5H119.3L117.8 159.4H117.2L116.3 159.5L115.5 159.4H114.8L113.4 159.5L112.6 159.4H110.4L109.7 159.6L106.7 159.4L105.9 159.5H105.1H104.3L103.6 159.4L102.9 159.5L102.1 159.4L101.4 159.5H100.6L99.8 159.6L99.1 159.4L98.4 159.5L97.7 159.4L96.9 159.6Z" fill="#201F1B"/>
<path d="M130.8 170.3L129.7 170.1L128.8 169.8L128 169L127.5 168.2L127.2 167.3L127.1 166.6V165.5L127.6 164.7L128 163.7L129.9 162.8L130.8 162.7L132.6 163.2L134 164.5L134.4 165.5L134.5 166.5V167.6L133.4 169.1L132.7 169.9L131.7 170.1L130.8 170.3ZM130.3 168.2L130.7 168.3L131.7 168L131.9 167.7L132.5 166.8V166.4V165.9L132.4 165.6L131.7 164.9L130.8 164.6L130.5 164.7L129.6 165.1L129.4 165.6L129.2 166L129.3 166.9L129.5 167.4L129.8 167.8L130.1 168.1L130.3 168.2Z" fill="#201F1B"/>
<path d="M130.9 180L129.7 179.7L128.8 179.3L128 178.6L127.4 177.7L127.2 177L127 176.1L127.1 175L127.4 174L128.8 172.9L129.8 172.3L131 172.4L131.8 172.5L132.7 172.7L133.6 173.4L134.2 174.2L134.6 175.1L134.8 176.1L134.5 177L134.3 178L133.5 178.7L132.8 179.5L131.8 179.7L130.9 180ZM130.3 177.9L130.7 178L131.3 177.8L131.7 177.7L132.4 177.1L132.5 176.6L132.7 176.1L132.6 175.7L132.4 175.3L132.1 174.9L131.8 174.6L131.3 174.5L130.3 174.4L130 174.6L129.2 175.3L129.1 175.6V176.1L129.3 177.1L129.5 177.4L129.9 177.7L130.3 177.9Z" fill="#201F1B"/>
<path d="M171.8 183.3H172.5H173.3L174.1 183.2L174.8 183.3L175.6 183.2L176.3 183.3L177.1 183.4L177.9 183.3H178.6H179.4H180.1H180.9L181.7 183.2H182.4L183.2 183.3H184H184.7H185.5H186.3L187 183.4L187.8 183.2L188.6 183.3H189.3L190.1 183.2L190.9 183.4L191.6 183.3L192.3 183.1L193.1 183.2L193.9 183.1L194.6 182.9L195.3 182.7L196 182.4L196.8 182.3L197.5 182.1L198.1 181.7L198.9 181.5L199.5 181.1L200.2 180.8L200.8 180.4L201.5 180L202.1 179.6L202.7 179.2L203.3 178.8L203.9 178.3L204.5 177.9L205.1 177.3L205.6 176.8L206 176.2L206.6 175.7L207 175L207.4 174.4L207.9 173.8L208.4 173.2L208.7 172.6L209.1 171.9L209.4 171.3L209.7 170.6L210.1 169.9L210.3 169.2L210.6 168.5L210.8 167.8L211 167L211.1 166.3L211.2 165.6L211.4 164.8V164.1V163.3L211.6 162.6V161.8H211.5L211.6 161.1V160.3L211.4 159.6V158.8L211.3 158.1L211.1 157.4L210.9 156.6L210.7 155.9L210.6 155.2L210.2 154.5L210.1 153.8L209.7 153.1L209.5 152.4L209 151.8L208.8 151.1L208.4 150.4L208 149.8L207.5 149.2L206.9 148.7L206.5 148.1L206 147.5L205.5 147L205 146.4L204.4 145.9L203.8 145.5L203.4 144.9L202.8 144.4L202.1 144L201.5 143.6L200.9 143.2L200.2 142.8L199.5 142.5L198.8 142.3L198.2 141.9L197.5 141.6L196.7 141.4L196 141.2L195.3 141L194.6 140.8L193.8 140.7L193.1 140.6L192.4 140.4L191.6 140.3L190.9 140.4H190.1L189.3 140.3H188.6H187.8H187.1L186.3 140.4H185.5H184.8H184H183.2H182.5H181.7H181L180.2 140.5L179.4 140.4L178.7 140.5L177.9 140.4L177.1 140.5L176.4 140.3H175.6L174.8 140.4L174.1 140.3H173.3H172.5H171.8L171 140.4L170.3 140.5H169.5L168.8 140.6L168 140.8L167.3 140.9L166.6 141L165.8 141.2L165.1 141.4L164.4 141.6L163.7 141.9L163.1 142.3L162.3 142.5L161.7 142.8L161.1 143.3L160.4 143.6L159.7 144L159.1 144.4L158.5 144.9L158 145.4L157.3 145.8L156.8 146.4L156.3 146.9L155.8 147.5L155.2 148L154.9 148.7L154.5 149.3L154 149.9L153.6 150.5L153.2 151.1L152.8 151.7L152.5 152.4L152.2 153.1L151.8 153.8L151.6 154.5L151.3 155.2L151.2 155.9L150.8 156.6L150.7 157.3L150.6 158.1L150.5 158.8V159.6L150.3 160.3V161.1V161.8V162.6V163.3L150.5 164.1L150.4 164.8L150.6 165.6L150.7 166.3L150.9 167L151.1 167.8L151.4 168.4L151.6 169.2L151.8 169.9L152.2 170.6L152.6 171.2L152.9 171.9L153.1 172.6L153.5 173.2L153.9 173.9L154.4 174.5L154.9 175L155.3 175.6L155.9 176.2L156.4 176.7L156.8 177.3L157.4 177.8L158 178.2L158.5 178.8L159.1 179.3L159.8 179.6L160.3 180.1L161.1 180.4L161.7 180.8L162.4 181.1L163 181.4L163.7 181.7L164.4 182L165.1 182.2L165.9 182.4L166.5 182.8L167.3 182.9L168 183L168.8 183.1L169.5 183.2H170.3H171L171.8 183.3Z" fill="#E6E6E3"/>
<path d="M203.6 133.8H202.9H202.2L201.4 133.9L200.7 134.1L200 134.4L199.3 134.7L198.6 134.9L198 135.4L197.3 135.7L196.7 136.2L196.1 136.6L195.5 137.1L195.1 137.7L194.5 138.2L194.1 138.8L193.6 139.4L193.4 140.2L193.1 140.9L192.8 141.5L192.6 142.3L192.5 143L192.3 143.7L192.2 144.5V145.3L193 145.2H193.7H194.5L195.2 145.3L196 145.2H196.8L197.5 145.3L198.3 145.2L199.1 145.3L199.8 145.2L200.6 145.3H201.4L202.1 145.2H202.9H203.6V144.5L203.7 143.7L203.8 142.9V142.2L203.6 141.4L203.8 140.6L203.6 139.9V139.1L203.7 138.4L203.8 137.6L203.6 136.8L203.8 136.1L203.6 135.3L203.7 134.5L203.6 133.8Z" fill="#E6E6E3"/>
<path d="M203.4 168H204.2H204.9L205.6 168.1H206.3H207.1L207.8 167.9L208.5 168.1H209.3L210 168L210.7 168.1H211.4H212.2L212.9 167.9L213.6 167.7L214.2 167.4L214.7 166.8L215.1 166.2L215.4 165.6L215.5 164.8L215.4 164.1V163.3V162.5L215.3 161.7L215.4 160.9V160.2L215.3 159.4L215.1 158.7L214.7 158.2L214.2 157.7L213.6 157.2L212.9 157H212.2L211.5 156.9L210.7 157L210 156.9L209.3 157.1L208.5 157H207.8H207.1H206.4H205.6L204.9 156.9H204.2H203.4L202.8 157.1L202 157.2L201.5 157.7L200.9 158.1L200.5 158.7L200.3 159.4L200.2 160.2L200.3 160.9V161.7L200.4 162.5L200.2 163.3V164V164.8L200.4 165.5L200.6 166.2L201 166.8L201.5 167.3L202.1 167.7L202.7 167.9L203.4 168Z" fill="#E6E6E3"/>
<path d="M198.3 154.4L198.4 155.3L198.8 156L199.4 156.5L200.1 157L200.9 157.1L201.7 157L202.4 156.6L203 156L203.3 155.2L203.4 154.4V153.6L202.9 153L202.4 152.3L201.7 152.1L200.9 151.9H200L199.3 152.3L198.7 152.9L198.3 153.6V154.4Z" fill="white"/>
<path d="M200.9 157.9L199.8 157.7L199 157.1L198.2 156.3L197.7 155.5L197.6 154.5V153.5L198.2 152.5L198.9 151.8L199.8 151.2H200.9L202.8 151.7L204.1 153.4V154.6L203.9 155.5L203.6 156.4L202.8 157.3L201.9 157.8L200.9 157.9ZM200.3 156.3L200.8 156.4L201.4 156.3L201.9 156L202.3 155.6L202.5 155L202.6 154.3V153.8L201.9 152.9L200.7 152.6H200.2L199.7 152.9L199.2 153.3L198.9 153.8V154.4V155L199.2 155.5L199.7 156L200.3 156.3Z" fill="#ABABAB"/>
<path d="M190.8 188.5L191.6 188.6L192.3 188.5H193L193.8 188.6L194.5 188.5H195.3L196 188.3L196.7 187.8L197.2 187.3L197.6 186.6L197.9 185.9L198 185.2L197.9 184.4L198 183.7L197.9 182.9L198 182.2V181.4L197.8 180.7L197.6 179.9L197.2 179.3L196.6 178.9L196 178.3L195.3 178.1H194.5H193.8L193.1 178H192.3L191.6 177.9L190.8 178L190.1 178.2L189.3 178.3L188.7 178.7L188.1 179.3L187.8 180L187.4 180.7L187.5 181.4L187.4 182.2V182.9L187.3 183.7V184.4L187.5 185.2V185.9L187.8 186.6L188.1 187.3L188.7 187.9L189.4 188.2L190.1 188.4L190.8 188.5Z" fill="#E6E6E3"/>
<path d="M167.9 188.5L168.6 188.6L169.3 188.7L170.1 188.6L170.8 188.5H171.6L172.3 188.4L173.1 188.2L173.7 187.8L174.2 187.2L174.7 186.7L175 185.9L175.1 185.2L175 184.4L174.9 183.7L175 182.9V182.2V181.4L174.9 180.7L174.6 180L174.2 179.3L173.7 178.7L173 178.4L172.4 178.1H171.6L170.8 178L170.1 178.1L169.4 178H168.6H167.9L167.1 178.1L166.4 178.3L165.7 178.8L165.2 179.3L164.9 180L164.6 180.7L164.4 181.4L164.5 182.2L164.6 182.9V183.7L164.4 184.4V185.2L164.5 185.9L164.8 186.6L165.3 187.2L165.8 187.8L166.4 188.3L167.1 188.5H167.9Z" fill="#E6E6E3"/>
<path d="M190.7 137.2L190.8 137.9L190.5 138.6V139.4L190.3 140.1L190 140.8L189.8 141.5L189.4 142.2L188.9 142.8L188.6 143.5L188.1 144L187.5 144.5L186.9 145L186.4 145.6L185.8 146L185.1 146.3L184.5 146.7L183.7 146.9L183 147L182.3 147.4H181.5L180.8 147.5H180L179.3 147.6L178.5 147.5L177.8 147.3L177 147.2L176.3 146.9L175.7 146.6L175 146.3L174.3 145.9L173.7 145.4L173.1 145L172.5 144.6L171.9 144.1L171.5 143.4L171 142.8L170.6 142.2L170.4 141.5L170 140.9L169.7 140.1V139.4L169.5 138.7L169.3 137.9V137.2V136.4L169.4 135.6L169.5 134.9L169.7 134.2L169.9 133.4L170.3 132.8L170.6 132.1L171.1 131.5L171.5 130.9L172 130.3L172.6 129.8L173.1 129.3L173.7 128.9L174.3 128.4L175 128L175.6 127.6L176.3 127.4L177.1 127.3L177.8 127L178.5 126.9H179.3L180 126.7L180.8 126.9H181.5L182.3 127L183 127.3L183.7 127.5L184.4 127.7L185.1 128L185.8 128.4L186.4 128.8L187 129.2L187.5 129.8L188.1 130.3L188.6 130.8L188.9 131.5L189.4 132.1L189.7 132.8L190 133.5L190.3 134.2L190.6 134.9V135.7V136.4L190.7 137.2Z" fill="#FFCD2C"/>
<path d="M180.8 130.2H181.2L181.7 130.4C181.9 130.5 182 130.5 182.2 130.5H182.7L183 130.6L183.5 131L183.6 131.1L184.2 131.4L184.7 131.8C184.7 131.8 184.8 131.8 184.8 131.9L185.2 132.2L185.5 132.6L185.9 133.2C186 133.3 186 133.4 186.1 133.4L186.5 133.8L186.7 134.1L186.9 134.7L187.1 135.4V135.5L187.3 136V136.5C187.3 136.5 187.3 136.5 187.3 136.6V137.3V137.9L187.2 138.5L187 139C187 139.1 187 139.1 187 139.2V139.6L186.8 140C186.8 140 186.8 140.1 186.7 140.1L186.4 140.7L186.1 141.2L185.7 141.7L185.2 142.2L185.1 142.3L184.8 142.6L184.4 142.8C184.3 142.9 184.2 142.9 184.1 143L183.6 143.4L183.2 143.6L182.7 143.8L182.1 143.9L181.4 144L180.8 144.1H180.1C180.1 144.1 180.1 144.1 180 144.1H179.4H179L178.5 143.9C178.4 143.8 178.2 143.8 178 143.8H177.6L177.3 143.6C177.2 143.5 177 143.5 176.9 143.4L176.5 143.3L176.2 143C176.1 142.9 176.1 142.9 176 142.9L175.4 142.5L174.9 142.2L174.6 141.8L174.2 141.2C174.1 141.1 174.1 141 174 141L173.7 140.7L173.5 140.3L173.3 139.6V139.5L173 138.9L172.9 138.5V138V137.9V137.2C172.9 137.1 172.9 137.1 172.9 137L172.8 136.5L172.9 136.1L173.1 135.4C173.1 135.3 173.1 135.3 173.1 135.2L173.2 134.7L173.4 134.3C173.4 134.2 173.5 134.2 173.5 134.1L173.7 133.6L174 133.2C174 133.2 174 133.2 174.1 133.1L174.4 132.6L174.8 132.3L175.4 131.9C175.4 131.9 175.5 131.9 175.5 131.8L175.9 131.4L176.4 131.1C176.4 131.1 176.5 131.1 176.5 131L177 130.7L177.5 130.6C177.6 130.6 177.7 130.5 177.8 130.5L178.2 130.3H178.6C178.7 130.3 178.8 130.3 178.9 130.3L179.4 130.2H179.9H180C180.1 130.2 180.1 130.2 180.2 130.2H180.8ZM180.8 128.7L180 128.8L179.2 128.7L178.5 128.9H177.7L177 129.2L176.3 129.4L175.7 129.8L175 130.1L174.4 130.6L173.8 131L173.2 131.5L172.8 132.1L172.3 132.7L172 133.4L171.6 134.1L171.5 134.9L171.3 135.6L171.1 136.3L171.2 137.1V137.8V138.6L171.4 139.3L171.7 140L171.9 140.7L172.2 141.4L172.7 141.9L173.1 142.5L173.6 143.1L174.2 143.5L174.8 143.9L175.4 144.4L176.1 144.6L176.7 145L177.5 145.1L178.2 145.4L179 145.5L179.8 145.4H180.6L181.3 145.3L182 145.1L182.7 144.9L183.4 144.6L184.1 144.2L184.7 143.7L185.4 143.4L185.9 142.8L186.4 142.3L186.9 141.7L187.3 141.1L187.6 140.4L188 139.8L188.1 139L188.3 138.3L188.4 137.6V136.9V136.2V135.4L188.1 134.7L187.9 134L187.7 133.3L187.4 132.6L186.8 132.1L186.4 131.5L185.9 130.9L185.3 130.5L184.7 130.1L184 129.7L183.4 129.3L182.7 129H181.9L181.2 128.7H180.8Z" fill="white"/>
<path d="M179.8 141L179.1 140.8L178.4 140.6L177.8 140.3L177.3 139.8L177.1 139.1L177 138.5L177.5 138.4H178.1L178.3 139L178.6 139.5L179.1 140L179.7 140.1L179.8 139.4L179.7 138.7V138V137.3L179.8 137.2L179.1 137.1L178.4 136.8L177.8 136.4L177.5 135.7L177.3 135V134.2L177.8 133.6L178.4 133.2L179.1 132.8H179.9L179.8 132H180.5V132.9L181.2 133L181.9 133.4L182.4 134L182.6 134.7L182.8 135.5L182.2 135.4H181.6L181.3 134.8L180.9 134.2L180.3 134L180.2 134.8V135.6L180.3 136.4L181.1 136.6L181.8 137L182.5 137.4L182.9 138.1V138.9V139.7L182.3 140.2L181.8 140.7L181.1 141H180.3L180.4 142H179.7L179.8 141ZM179.8 136.2L179.9 135.4V134.6L179.8 133.8L179.2 134L178.6 134.3L178.3 134.9L178.6 135.5L179.1 135.9L179.8 136.2ZM181.9 138.9L181.8 138.2L181.2 137.8L180.5 137.6L180.6 138.5L180.5 139.4V140.3L181.3 140.1L181.9 139.7V138.9Z" fill="white"/>
<path d="M150.3 162.5H149.5L148.7 162.7L148 163.1L147.3 163.5L146.8 164.1L146.3 164.7L146.2 165.4L146.1 166.1L146.4 166.8L146.8 167.3L147.5 167.5L148.2 167.3L148.5 166.7L148.7 166L148.6 165.2L148.5 164.5L148.2 163.9L147.7 163.3L147.1 162.9L146.5 162.4L145.8 162.2L145.1 162L144.4 161.7" fill="white"/>
<path d="M147.4 168.3L146.3 167.9L145.6 167L145.2 166.1L145.5 164.3L146.4 163.3L146.1 163.1L144.8 162.7L144.1 162.4L144.7 161L145.3 161.3L146.8 161.7L147.6 162.3L148.3 162L149.3 161.6H150.2V163.1H149.5L148.7 163.4L149.1 164.1L149.3 165.9L149 166.9L148.5 167.9L147.4 168.3ZM147.3 166.7L147.5 166.8H147.7L147.8 166.5L147.9 166L147.8 164.9L147.6 164.5L147 165L146.9 166L147.1 166.4L147.3 166.7Z" fill="#ABABAB"/>
<path d="M190.3 145.2L189.6 145.3H188.8H188.1L187.3 145.2L186.5 145.3L185.8 145.2L185 145.3H184.2H183.5H182.7L182 145.2H181.2H180.4H179.7H178.9L178.2 145.3L177.4 145.2L176.6 145.3H175.9L175.1 145.2L174.3 145.3L173.6 145.2L172.8 145.3L172 145.2H171.3L170.5 145.3L169.7 145.1" fill="white"/>
<path d="M170.4 146.1L169.5 145.9L169.9 144.4L170.5 144.6L172.1 144.4L172.8 144.5H173.6H174.3L175.1 144.4L176 144.5L176.6 144.6L177.4 144.5H178.2L179.6 144.4H180.5H182L182.8 144.5L183.5 144.6L184.2 144.5H185L185.8 144.4L186.6 144.5L187.3 144.4L188.1 144.6L188.8 144.5L189.5 144.6L190.2 144.4L190.5 145.9L189.6 146.1L188.8 146L188 146.1L187.3 146L186.5 146.1L185.8 145.9L185.1 146H184.2H183.5H182.6L181.9 145.9H180.4H179.7L178.2 146H177.4L176.7 146.1L175.8 146L175.1 145.9L174.4 146.1L173.6 146H172.8L172 145.9L170.4 146.1Z" fill="#ABABAB"/>
<path d="M1.39999 188.5L2.19999 188.6H2.89999H3.69999L4.39999 188.5H5.19999L5.89999 188.7L6.69999 188.6H7.39999H8.19999L8.99999 188.5L9.69999 188.6L10.5 188.5H11.2L12 188.7L12.7 188.6L13.5 188.5L14.2 188.6L15 188.7L15.7 188.5L16.5 188.7L17.2 188.5L18 188.6H18.8H19.5L20.3 188.5L21 188.6H21.8L22.5 188.5L23.3 188.7H24L24.8 188.6H25.5H26.3H27H27.8L28.6 188.5L29.3 188.7L30.1 188.5L30.8 188.7L31.6 188.5L32.3 188.7L33.1 188.5L33.8 188.6H34.6H35.3H36.1L36.9 188.7L37.6 188.6H38.4L39.1 188.5L39.9 188.7H40.6L41.4 188.5L42.1 188.7H42.9L43.7 188.6H44.4H45.2L45.9 188.5L46.7 188.6L47.4 188.5L48.2 188.7L48.9 188.6L49.7 188.5L50.5 188.7L51.2 188.5L52 188.6L52.7 188.5L53.5 188.6L54.2 188.7H55H55.7L56.5 188.6L57.2 188.7L58 188.5L58.8 188.7L59.5 188.6H60.3L61 188.7L61.8 188.6L62.5 188.7L63.3 188.6L64 188.5L64.8 188.7H65.5L66.3 188.5L67.1 188.7L67.8 188.5L68.6 188.6L69.3 188.5L70.1 188.7L70.8 188.6L71.6 188.7L72.3 188.6H73.1L73.8 188.5L74.6 188.6H75.4H76.1L76.9 188.5H77.6L78.4 188.6L79.1 188.7H79.9L80.6 188.6H81.4H82.2H82.9H83.7L84.4 188.5H85.2H85.9L86.7 188.7L87.4 188.5H88.2L88.9 188.6L89.7 188.7H90.5H91.2L92 188.6L92.7 188.7H93.5L94.2 188.6H95L95.7 188.5L96.5 188.6L97.2 188.7L98 188.6L98.7 188.7L99.5 188.5L100.2 188.6L101 188.5L101.7 188.7L102.5 188.6L103.2 188.7L104 188.6H104.7H105.5H106.2L107 188.5L107.7 188.7L108.5 188.5L109.2 188.6L110 188.5H110.7H111.5L112.2 188.6H113L113.8 188.5L114.5 188.6L115.3 188.7L116 188.5L116.8 188.6L117.5 188.7L118.3 188.5L119 188.6H119.8L120.5 188.5L121.3 188.7L122 188.5L122.8 188.6H123.5L124.3 188.5L125.1 188.6L125.8 188.7H126.6L127.3 188.6L128.1 188.7L128.8 188.6H129.6H130.3H131.1L131.9 188.5L132.6 188.7L133.4 188.6H134.1H134.9L135.6 188.5L136.4 188.6H137.2L137.9 188.5L138.7 188.7L139.4 188.5L140.2 188.7L140.9 188.6L141.7 188.5L142.4 188.6H143.2H143.9L144.7 188.7L145.5 188.5L146.2 188.7L147 188.6H147.7L148.5 188.5H149.2L150 188.7L150.7 188.5L151.5 188.6L152.2 188.7L153 188.6H153.8L154.5 188.5L155.3 188.7L156 188.6L156.8 188.5L157.5 188.6H158.3L159.1 188.5L159.8 188.7L160.6 188.5H161.3L162.1 188.6H162.8L163.6 188.7L164.4 188.6L165.1 188.5H165.9L166.6 188.6L167.4 188.5H168.1L168.9 188.6L169.7 188.7H170.4L171.2 188.5L171.9 188.7H172.7H173.4L174.2 188.5H174.9L175.7 188.7L176.5 188.5L177.2 188.7L178 188.5H178.7H179.5L180.2 188.6H181H181.8L182.5 188.7L183.3 188.6H184L184.8 188.7L185.6 188.5L186.3 188.7L187.1 188.6L187.8 188.7H188.6L189.3 188.6L190.1 188.7L190.9 188.5L191.6 188.6H192.4L193.1 188.7L193.9 188.6L194.6 188.5H195.4L196.2 188.7L196.9 188.5L197.7 188.7L198.4 188.5H199.2L200 188.6L200.7 188.7L201.5 188.6L202.2 188.7H203L203.7 188.6L204.5 188.5L205.3 188.6H206H206.8L207.5 188.5L208.3 188.6H209L209.8 188.7L210.6 188.5H211.3H212.1L212.8 188.7L213.6 188.6H214.3H215.1H215.8H216.6L217.4 188.5H218.1L218.9 188.6L219.6 188.7L220.4 188.6L221.2 188.5L221.9 188.7L222.7 188.6H223.4L224.2 188.5H225L225.7 188.7H226.5L227.2 188.6L228 188.7H228.8L229.5 188.6L230.3 188.5L231 188.6H231.8H232.6L233.3 188.5L234.1 188.6L234.8 188.7L235.6 188.5L236.4 188.6L237.1 188.5L237.9 188.6L238.6 188.5H239.4H240.2L240.9 188.6H241.7L242.5 188.7L243.2 188.5H244L244.7 188.7L245.5 188.6L246.3 188.5L247 188.6L247.8 188.7L248.6 188.6" fill="white"/>
<path d="M196.2 189.9L195.3 189.7H194.7L193.1 189.9L192.3 189.8H191.5L190.8 189.7L190.1 189.9L189.3 189.8L188.6 189.9L187.1 189.8L186.2 189.9L185.5 189.7L184.8 189.8L184 189.7L182.5 189.8L181.8 189.7H181.1H180.1L179.4 189.6H178.1L177.2 189.8L176.5 189.6L175.7 189.8L174.8 189.6H174.3L173.4 189.8H172.6H171.6L171.1 189.7L170.5 189.8L168.8 189.7L168.1 189.6L166.6 189.7L165.2 189.6L164.4 189.7H163.6L161.3 189.6H160.7L159.8 189.7L159 189.6L157.5 189.7L156.8 189.6L156.1 189.7H155.2L154.4 189.5H153.1L152.3 189.6L150.8 189.4L150 189.6L149.1 189.5H148.4L146.1 189.6L145.4 189.5L144.7 189.6L143.9 189.5H143.2H142.2L141.6 189.4L140.1 189.6L139.4 189.5L138.6 189.6L137.8 189.4L137.1 189.5H136.3L135.6 189.4L134.9 189.5H134.1H133.3L132.5 189.6L131.7 189.5L130.3 189.6H129.6L128 189.7L127.3 189.6L126.6 189.7L125 189.6L124.3 189.5L123.6 189.6L122.1 189.5L121.3 189.7L120.5 189.5L119.8 189.6L118.3 189.5L117.5 189.6L116 189.4L115.2 189.6L113.7 189.5L113 189.6H112L111.3 189.5H110.6H109.9L109.2 189.6H108.5L107.7 189.8L106.9 189.6L105.5 189.7H104.7H103.2L102.5 189.6L101.7 189.7L101 189.6L100.3 189.7L99.6 189.6L98.9 189.8L98 189.7H97.2L95.7 189.6H95H94.3L93.5 189.7H92.5L91.9 189.6L91.2 189.7H89.6L88.1 189.6H87.5L86.6 189.7L85.7 189.5H85L83.5 189.6L82.7 189.5H80.5L79.7 189.6L76.7 189.4L76 189.5H75.1H74.3L73.6 189.4L72.9 189.5L72.1 189.4L71.4 189.5L70.6 189.4L69.7 189.5L69 189.3L68.3 189.4L67.6 189.3L66.8 189.5L66 189.3L65.4 189.4H64.4L63.7 189.3H63.1L62.3 189.4L61.5 189.3L60.7 189.4L59.9 189.3H59.2L58.4 189.4L57.7 189.2L57 189.4L56.2 189.3L55.5 189.4L53.1 189.3L52.4 189.2H51.7H51L50.1 189.3L49.3 189.2L48.6 189.3H47.7L47 189.1L46.3 189.2H45.5H44.1H43.4L42.6 189.3H41.6L41 189.2L40.3 189.3H39.4L38.7 189.1L36.5 189.3L35 189.2H32.9L32.1 189.4L31.3 189.2L30.5 189.3L29.8 189.2L29.1 189.4L28.3 189.2L23 189.4L22.3 189.2L21.7 189.3H20.1L17.8 189.4L17.1 189.3L16.3 189.5L15.5 189.3L14.8 189.5L13.2 189.4L11.6 189.6L10.8 189.4L9.40001 189.5L9.00001 189.7L7.60001 189.8H6.80001L5.90001 189.9L5.00001 189.6H4.40001L2.90001 189.7L1.30001 189.6C0.700006 189.5 0.200006 189 0.300006 188.4C0.400007 187.8 0.900006 187.3 1.50001 187.4L2.90001 187.5L4.40001 187.4L5.50001 187.5L6.10001 187.6L6.70001 187.5H7.50001L9.00001 187.4L9.80001 187.5L11.4 187.4L12.1 187.6L13.6 187.5L15 187.6L15.9 187.4L16.7 187.6L17.4 187.4L18.2 187.5L18.8 187.4H20.4H21.9L22.8 187.3L23.6 187.5L28.8 187.3L29.5 187.4L30.3 187.2L31.1 187.4L31.9 187.3L32.6 187.4L33.3 187.2L37.2 187.4L39.5 187.2L40.3 187.4H40.8L41.7 187.2L42.6 187.4H43.2L43.9 187.3H44.7H46.2H47L47.9 187.2L48.7 187.4H49.2L50.1 187.3L50.8 187.4L51.5 187.3H52.4H53.2L54.8 187.4H56.1L56.9 187.3L57.6 187.4L58.4 187.2L59.2 187.4L59.8 187.3H60.7L61.4 187.4L62.1 187.3H62.8L63.6 187.2H64.4L65.2 187.3H65.7L66.6 187.1L67.3 187.3L68 187.1L68.8 187.2L69.6 187.1L70.4 187.3L71.1 187.2L71.8 187.3L72.6 187.2L73.4 187.3L74.2 187.2L75 187.3H75.7H76.4L77.2 187.2L80.2 187.4L81 187.3H83.3L84 187.4L85.5 187.3H86.5L87.1 187.4L87.8 187.3H88.6L90.1 187.4H91.5L92.4 187.3L93.2 187.4H93.8L94.6 187.3H95.5H96.2L97.7 187.4H98.5H99.1L99.9 187.2L100.7 187.3L101.5 187.1L102.3 187.3L103 187.2L103.8 187.3H105.3H106L106.7 187.2L107.7 187.1L108.4 187.2L109.1 187.1H109.9L110.6 187H111.4H112.3L113 187.1H113.6L114.4 187H115.2L115.9 187.1L116.7 186.9L118.2 187.1L118.9 187L120.4 187.1L121.2 187L121.9 187.2L122.6 187.1L124.1 187.2L124.9 187.1L126.5 187.3H127.1L127.9 187.2L128.7 187.3L130.2 187.2H131L132.6 187.1L133.3 187.2L134 187.1L134.8 187.2H135.4L136.2 187.1L137 187.2H137.6L138.5 187.1L139.2 187.3L139.9 187.2L140.7 187.3L142.2 187.1L143 187.2H143.7H144.5L145.2 187.3L146 187.2L146.8 187.4L148.9 187.3H149.9L150.4 187.4L151.1 187.2L152.6 187.4L153.3 187.3H154.1H154.9L155.7 187.5H156.2L157.1 187.4L157.9 187.5L159.5 187.4L160.2 187.5L160.9 187.4H161.7L164 187.5H164.6L165.4 187.4L167 187.5L168.6 187.4L170.2 187.6H170.7L171.6 187.4L172.5 187.6H173.1H173.7L174.6 187.4H175.5L176.1 187.5L176.9 187.3L177.7 187.5L178.4 187.4H180L180.8 187.5H181.5H182.3L183.1 187.6L184.6 187.5L185.3 187.6L186.1 187.4L186.9 187.6L187.6 187.5L189.1 187.6L189.9 187.5L190.6 187.6L191.4 187.4L192.3 187.5H193.1L193.8 187.6L195.3 187.4L196.4 187.5L196.9 187.6L197.6 187.4L198.4 187.6L199.1 187.5L200.8 187.6L201.5 187.7H202.2L203 187.8L204.4 187.7L205.2 187.6L206 187.7H207.3L208.1 187.6L208.9 187.7H209.6L210.3 187.8L211.1 187.7H211.9L212.8 187.8L213.4 187.9L214.8 187.8H215.6H216.4L217.1 187.9L217.8 187.8H218.7L219.5 187.9H220.2H220.9L221.8 187.8L222.6 187.9L223.3 187.8H224.1L224.9 187.7L225.9 187.8L226.6 187.9H227.2L228 187.8L228.8 187.9H229.4L230.1 187.8H231.1L231.9 187.9H232.6H233.3L234.1 187.8L235 187.9H235.5L236.3 187.7L237.1 187.8L237.8 187.7L238.6 187.8L240.1 187.7L241.6 187.8H242.4L243 187.9L243.7 187.8H244.8L245.4 187.9H246L246.8 187.8L248.5 188H249.2C249.8 188 250.3 188.5 250.3 189.1C250.3 189.7 249.8 190.2 249.2 190.2H248.3L246.9 190L246.1 190.1H245.2L244.4 190H243.9L243 190.2L242.1 190H241.4L239.9 189.9L238.4 190H237.7L236.9 190.1L236.2 190L235.5 190.1H234.6L233.9 190L233.2 190.1L232.4 190L231.6 190.1L230.8 190H230.1L229.3 190.1H228.4L227.7 190L227 190.1L226 190L225.3 189.9H224.7L224 190H223.2L222.3 190.1L221.5 190L220.8 190.1H220H219.1L218.3 190H217.8L217 190.1L216.2 190H215.5H214.8L214.1 190.1H213.2L212.4 190H211.8H211.2L210.4 190.2L209.6 190.1H208.8L208.1 190L207.4 190.1H205.6L205 190L204.4 190.1L202.7 190.2L202 190.1H201.2L199.1 189.9L198.3 190.1L197.6 189.9H196.2Z" fill="#ABABAB"/>
</g>
<defs>
<clipPath id="clip0_1_250">
<rect width="250" height="190" fill="white"/>
</clipPath>
</defs>
</svg>
