<svg width="32" height="32" viewBox="0 0 32 32" fill="none" xmlns="http://www.w3.org/2000/svg">
<path d="M26.4896 9.84446H22.1133V5.46813C22.1133 2.47212 19.6838 0.0426025 16.6877 0.0426025C13.6917 0.0426025 11.2622 2.47212 11.2622 5.46813V20.6915H26.4896C29.4856 20.6915 31.9151 18.262 31.9151 15.266C31.9151 12.27 29.4856 9.84446 26.4896 9.84446Z" fill="#FFDB00"/>
<path d="M11.2661 22.0878V26.5319C11.2661 29.5279 13.6956 31.9574 16.6916 31.9574C19.6877 31.9574 22.1172 29.5279 22.1172 26.5319V22.0878H11.2661Z" fill="#FFDB00"/>
<path d="M9.79787 9.84448H5.42553C2.42952 9.84448 0 12.27 0 15.266C0 18.262 2.42952 20.6916 5.42553 20.6916H9.79787V9.84448Z" fill="#FFDB00"/>
</svg>
