<svg xmlns="http://www.w3.org/2000/svg" width="233" height="234" viewBox="0 0 233 234" fill="none"><path d="M116.5 234C180.837 234 233 181.613 233 117C233 52.3868 180.837 0 116.5 0C52.1629 0 0 52.3868 0 117C0 181.613 52.1629 234 116.5 234Z" fill="#F8F7F7" fill-opacity="0.4"></path><path d="M116.293 172.673C147.005 172.673 171.906 147.772 171.906 117.06C171.906 86.3476 147.005 61.4467 116.293 61.4467C85.5806 61.4467 60.6797 86.3476 60.6797 117.06C60.6797 147.772 85.5806 172.673 116.293 172.673Z" fill="#F8F7F7"></path><path d="M204.337 52.0182H165.486C163.675 52.0182 162.207 53.5638 162.207 55.465V74.6839C162.207 76.5916 163.675 78.1371 165.486 78.1371H204.337C206.148 78.1371 207.616 76.5916 207.616 74.6839V55.465C207.616 53.5573 206.148 52.0182 204.337 52.0182Z" fill="white"></path><path d="M171.903 69.2067C174.044 69.2067 175.783 67.4672 175.783 65.3267C175.783 63.1862 174.044 61.4467 171.903 61.4467C169.763 61.4467 168.023 63.1862 168.023 65.3267C168.023 67.4672 169.763 69.2067 171.903 69.2067Z" fill="#F44D4D"></path><path d="M184.841 61.4467H197.774C199.915 61.4467 201.654 63.1862 201.654 65.3267C201.654 67.4672 199.915 69.2067 197.774 69.2067H184.841C182.7 69.2067 180.961 67.4672 180.961 65.3267C180.961 63.1862 182.7 61.4467 184.841 61.4467Z" fill="#F44D4D"></path><path fill-rule="evenodd" clip-rule="evenodd" d="M54.4139 80.9566C54.401 80.0319 54.2846 79.1072 54.0582 78.1695C53.2434 74.8844 49.6286 72.7763 45.7744 72.2784C41.9203 71.7804 37.9174 72.9121 36.3719 75.7704C35.486 77.4064 35.3696 78.8162 35.7252 79.9996C36.0874 81.183 36.9345 82.1594 38.092 82.9225C41.3189 85.05 46.9643 85.4833 49.5445 84.5909C50.7344 84.177 51.8984 83.6856 53.0365 83.1165C52.3898 86.8348 49.9713 90.3527 46.7509 93.5214C39.741 100.415 28.8706 105.646 22.9471 107.573C22.6302 107.677 22.4492 108.026 22.5526 108.362C22.6496 108.692 22.9924 108.88 23.3092 108.776C29.3491 106.817 40.433 101.469 47.5786 94.4396C51.2711 90.8053 53.903 86.7184 54.3492 82.4246C62.6912 77.7686 69.5459 69.3166 75.4047 62.2098C75.6245 61.9511 75.5922 61.5502 75.34 61.3238C75.0878 61.0975 74.7063 61.1233 74.4864 61.3885C68.8669 68.2108 62.342 76.32 54.4139 80.9566ZM53.1982 81.6292C53.2434 80.5945 53.1464 79.5404 52.8813 78.4799C52.1764 75.6345 48.956 73.9532 45.6192 73.5264C43.5758 73.2613 41.4741 73.4812 39.8251 74.2507C38.7904 74.7357 37.9368 75.4341 37.4195 76.3912C36.747 77.6392 36.5982 78.7127 36.8763 79.618C37.1544 80.5298 37.8398 81.267 38.7387 81.8555C41.681 83.7955 46.822 84.2029 49.1694 83.3946C50.5533 82.916 51.8984 82.3211 53.2046 81.6292H53.1982Z" fill="#F44D4D"></path><path d="M202.298 144.867C204.441 144.867 206.178 143.129 206.178 140.987C206.178 138.844 204.441 137.107 202.298 137.107C200.155 137.107 198.418 138.844 198.418 140.987C198.418 143.129 200.155 144.867 202.298 144.867Z" fill="#FDDBDB"></path><path fill-rule="evenodd" clip-rule="evenodd" d="M55.7528 167.752C56.4448 167.494 57.1755 167.151 57.7381 166.646C58.4042 166.051 58.6758 165.288 58.8568 164.487C59.0896 163.452 59.1866 162.353 59.4711 161.318C59.5746 160.93 59.7751 160.788 59.8656 160.723C60.0855 160.561 60.3054 160.516 60.5123 160.535C60.758 160.555 61.1008 160.652 61.3206 161.092C61.353 161.156 61.3918 161.247 61.4241 161.383C61.4435 161.48 61.4564 161.777 61.4823 161.9C61.534 162.204 61.5793 162.508 61.6246 162.812C61.7668 163.827 61.8444 164.687 62.2906 165.618C62.892 166.886 63.4934 167.655 64.3147 167.998C65.1036 168.328 66.0542 168.27 67.2635 168.004C67.3799 167.972 67.4898 167.953 67.6062 167.927C68.1365 167.83 68.6474 168.198 68.7508 168.755C68.8543 169.311 68.518 169.854 67.9878 169.977C67.8778 170.003 67.7679 170.028 67.6644 170.048C66.0284 170.475 64.1401 171.994 63.0408 173.32C62.7045 173.727 62.2066 174.878 61.7022 175.609C61.3271 176.146 60.9068 176.502 60.5576 176.631C60.3183 176.715 60.1243 176.702 59.9562 176.657C59.7169 176.592 59.5164 176.456 59.3677 176.243C59.2836 176.127 59.206 175.965 59.1737 175.764C59.1543 175.667 59.1543 175.422 59.1543 175.305C59.0508 174.93 58.928 174.568 58.831 174.193C58.6111 173.294 58.1843 172.725 57.6734 171.975C57.1949 171.27 56.684 170.83 55.9274 170.475C55.8304 170.449 55.0415 170.248 54.7634 170.132C54.356 169.964 54.162 169.673 54.0909 169.518C53.968 169.259 53.9616 169.026 53.981 168.839C54.0133 168.554 54.1362 168.315 54.3496 168.121C54.4789 167.998 54.6794 167.882 54.9445 167.823C55.1514 167.778 55.6882 167.752 55.7658 167.752H55.7528ZM60.3894 166.291C60.4282 166.375 60.467 166.465 60.5058 166.549C61.3853 168.405 62.3747 169.44 63.571 169.938L63.6098 169.957C62.808 170.585 62.0837 171.283 61.5276 171.956C61.3012 172.234 60.9973 172.809 60.6675 173.398C60.37 172.382 59.885 171.665 59.2772 170.766C58.8116 170.08 58.3201 169.563 57.7187 169.143C58.1843 168.89 58.6305 168.593 59.0185 168.25C59.6652 167.675 60.092 167.015 60.383 166.291H60.3894Z" fill="#F44D4D"></path><path fill-rule="evenodd" clip-rule="evenodd" d="M118.954 150.597C125.473 150.597 131.532 148.623 136.568 145.247L157.169 164.912L164.639 156.241L144.763 137.265C148.432 132.098 150.594 125.781 150.594 118.963C150.594 101.49 136.431 87.3281 118.959 87.3281C101.486 87.3281 87.3242 101.49 87.3242 118.963C87.3242 136.435 101.486 150.597 118.959 150.597H118.954ZM145.937 118.963C145.937 133.753 133.946 145.743 119.156 145.743C104.366 145.743 92.3756 133.753 92.3756 118.963C92.3756 104.173 104.366 92.1821 119.156 92.1821C133.946 92.1821 145.937 104.173 145.937 118.963Z" fill="#F89494"></path><path d="M157.164 164.912L164.635 156.241L165.759 157.314C166.852 158.357 167.505 159.81 167.576 161.363C167.647 162.912 167.13 164.431 166.143 165.58C165.151 166.729 163.769 167.417 162.296 167.493C160.824 167.569 159.381 167.027 158.293 165.985L157.169 164.912H157.164Z" fill="#F89494"></path></svg>