<?xml version="1.0" encoding="utf-8"?>
<!-- Generator: Adobe Illustrator 26.0.2, SVG Export Plug-In . SVG Version: 6.00 Build 0)  -->
<svg version="1.1" xmlns="http://www.w3.org/2000/svg" xmlns:xlink="http://www.w3.org/1999/xlink" x="0px" y="0px"
	 viewBox="0 0 500 500" style="enable-background:new 0 0 500 500;" xml:space="preserve">
<style type="text/css">
	.st0{fill:#FFFADB;}
	.st1{fill:#201F1B;}
	.st2{fill:#FBDDCF;}
	.st3{fill:#432F2E;}
	.st4{fill:#FDDB00;}
	.st5{fill:#D6AF9F;}
	.st6{fill:#E8C2B1;}
	.st7{fill:#FCE5DA;}
	.st8{fill:#79534E;}
	.st9{fill-rule:evenodd;clip-rule:evenodd;fill:#DDEDFA;}
	.st10{fill-rule:evenodd;clip-rule:evenodd;fill:#5C403D;}
	.st11{fill:#5C403D;}
	.st12{fill-rule:evenodd;clip-rule:evenodd;fill:#D5BC8A;}
	.st13{fill:#FBD5C3;}
	.st14{fill:#BFA77B;}
	.st15{fill:#8A685B;}
	.st16{fill:#A28075;}
	.st17{fill:#DDEDFA;}
	.st18{fill:#FCEDE6;}
	.st19{fill:#D5BC8A;}
	.st20{fill:#FFFFFF;}
	.st21{fill:#ABABAB;}
	.st22{fill:#EBD19A;}
	.st23{fill:#00643C;}
	.st24{fill:#003676;}
	.st25{fill:#D9D9D7;}
	.st26{fill:#BB998D;}
	.st27{fill:#EBEBEA;}
	.st28{clip-path:url(#SVGID_00000163061461425575459040000002945087818615399347_);fill:#FDDB00;}
	.st29{clip-path:url(#SVGID_00000163061461425575459040000002945087818615399347_);}
	.st30{clip-path:url(#SVGID_00000163061461425575459040000002945087818615399347_);fill:#201F1B;}
	.st31{clip-path:url(#SVGID_00000153670568169983844690000014454460662388684929_);fill:#FFFFFF;}
	.st32{clip-path:url(#SVGID_00000153670568169983844690000014454460662388684929_);fill:#201F1B;}
	.st33{clip-path:url(#SVGID_00000153670568169983844690000014454460662388684929_);}
	.st34{clip-path:url(#SVGID_00000116212857883035376610000014803688308338537637_);fill:#003676;}
	.st35{clip-path:url(#SVGID_00000116212857883035376610000014803688308338537637_);}
	.st36{fill:#D3D3D1;}
	.st37{fill:none;stroke:#201F1B;stroke-width:3.2087;stroke-linejoin:round;stroke-miterlimit:10;}
	.st38{fill:none;stroke:#201F1B;stroke-width:2;stroke-linejoin:round;stroke-miterlimit:10;}
	.st39{fill:none;stroke:#201F1B;stroke-width:2;stroke-miterlimit:10;}
	.st40{fill:none;stroke:#201F1B;stroke-width:3.1292;stroke-miterlimit:10;}
	.st41{fill:#D1D1CF;}
	.st42{fill:#FDD300;}
	.st43{fill-rule:evenodd;clip-rule:evenodd;fill:#00643C;}
	.st44{fill:none;stroke:#3B3A37;stroke-width:1.2239;stroke-miterlimit:10;}
	.st45{fill:none;}
	.st46{fill-rule:evenodd;clip-rule:evenodd;fill:#393835;}
	.st47{fill:#EDFAEF;}
	.st48{fill:none;stroke:#201F1B;stroke-width:2.7956;stroke-miterlimit:10;}
	.st49{fill-rule:evenodd;clip-rule:evenodd;fill:#F29F70;}
	.st50{fill-rule:evenodd;clip-rule:evenodd;fill:#D9D9D7;}
	.st51{fill-rule:evenodd;clip-rule:evenodd;fill:#201F1B;}
	.st52{fill:none;stroke:#201F1B;stroke-width:2.8051;stroke-linejoin:round;stroke-miterlimit:10;}
	.st53{fill:none;stroke:#201F1B;stroke-width:2.0153;stroke-miterlimit:10;}
	.st54{fill:#FFFFFF;stroke:#000000;stroke-width:2.3238;stroke-linejoin:round;stroke-miterlimit:10;}
	.st55{fill:#757575;}
	.st56{fill:none;stroke:#201F1B;stroke-width:2.6054;stroke-miterlimit:10;}
	.st57{fill:none;stroke:#201F1B;stroke-width:2.6054;stroke-linejoin:round;stroke-miterlimit:10;}
	.st58{fill:none;stroke:#201F1B;stroke-width:1.2992;stroke-miterlimit:10;}
	.st59{fill:none;stroke:#201F1B;stroke-width:1.2992;stroke-linejoin:round;stroke-miterlimit:10;}
	.st60{fill:#006738;}
	.st61{fill:#FFDA00;}
	.st62{fill:none;stroke:#201F19;stroke-width:2;stroke-miterlimit:10;}
	.st63{fill:none;stroke:#201F1B;stroke-width:2;stroke-linejoin:bevel;stroke-miterlimit:10;}
	.st64{fill:#FFD700;}
	.st65{fill:#FFF7CB;}
	.st66{fill:none;stroke:#201F1B;stroke-width:4.0093;stroke-miterlimit:10;}
	.st67{fill:#FFFFFF;stroke:#201F1B;stroke-width:2.3706;stroke-miterlimit:10;}
	.st68{fill-rule:evenodd;clip-rule:evenodd;fill:#79534E;}
	.st69{fill:none;stroke:#201F1B;stroke-width:2.6191;stroke-linejoin:round;stroke-miterlimit:10;}
	.st70{fill:#FFF7A6;}
	.st71{fill:#ACACAC;}
	.st72{fill:#FFFFFF;stroke:#201F1B;stroke-width:2;stroke-miterlimit:10;}
	.st73{fill-rule:evenodd;clip-rule:evenodd;fill:#FFFFFF;}
	.st74{fill-rule:evenodd;clip-rule:evenodd;fill:#FF9B6C;}
	.st75{fill-rule:evenodd;clip-rule:evenodd;fill:#ABABAB;}
	.st76{fill:#00653B;}
	.st77{fill:none;stroke:#D9D9D7;stroke-width:2.4706;stroke-miterlimit:10;}
	.st78{fill:#FFDB00;}
	.st79{fill:none;stroke:#201F1A;stroke-width:2.4706;stroke-miterlimit:10;}
	.st80{fill:#F7F8F3;}
	.st81{fill:none;stroke:#201F1B;stroke-width:3.3263;stroke-miterlimit:10;}
	.st82{fill:none;stroke:#201F1B;stroke-width:2.243;stroke-linejoin:round;stroke-miterlimit:10;}
	.st83{fill:none;stroke:#201F1B;stroke-width:2.5712;stroke-linejoin:round;stroke-miterlimit:10;}
	
		.st84{clip-path:url(#SVGID_00000097474376043326987020000014174266070975502730_);fill-rule:evenodd;clip-rule:evenodd;fill:#FDDB00;}
	.st85{fill:#FFE500;}
	.st86{fill:#006434;}
	.st87{fill:#183B77;}
	.st88{fill:#DDEDFA;stroke:#201F1B;stroke-width:2;stroke-miterlimit:10;}
	.st89{fill:#F6D537;}
	.st90{fill:none;stroke:#201F1B;stroke-width:2.5145;stroke-linejoin:round;stroke-miterlimit:10;}
	.st91{fill:none;stroke:#201F1B;stroke-width:3.1036;stroke-miterlimit:10;}
	.st92{fill:#FFFFFF;stroke:#000000;stroke-width:3.5787;stroke-linejoin:round;stroke-miterlimit:10;}
	.st93{fill:none;stroke:#201F1B;stroke-width:3.08;stroke-miterlimit:10;}
	.st94{fill:#FFCD2C;}
	.st95{clip-path:url(#SVGID_00000169518461678220902960000010608229573354141623_);}
	.st96{clip-path:url(#SVGID_00000169518461678220902960000010608229573354141623_);fill:#201F18;}
	.st97{fill:none;stroke:#201F18;stroke-width:2;stroke-miterlimit:10;}
	.st98{fill:#201F18;}
	.st99{fill:#201F19;}
	.st100{fill:#29251D;}
	.st101{fill:none;stroke:#201F19;stroke-width:1.3606;stroke-linejoin:bevel;stroke-miterlimit:10;}
	.st102{fill:none;stroke:#201F19;stroke-width:1.2102;stroke-linejoin:bevel;stroke-miterlimit:10;}
	.st103{fill:#D4EEFE;}
	.st104{fill:none;stroke:#28251D;stroke-width:2;stroke-linejoin:round;stroke-miterlimit:10;}
	.st105{fill-rule:evenodd;clip-rule:evenodd;fill:#FFFADB;}
	.st106{clip-path:url(#SVGID_00000054247100029219008680000006849423877994354057_);fill:#FFFFFF;}
	.st107{clip-path:url(#SVGID_00000054247100029219008680000006849423877994354057_);}
	.st108{clip-path:url(#SVGID_00000054247100029219008680000006849423877994354057_);fill:#00643C;}
	.st109{clip-path:url(#SVGID_00000054247100029219008680000006849423877994354057_);fill:#201F1B;}
	.st110{fill:none;stroke:#1F1F18;stroke-width:2;stroke-miterlimit:10;}
	.st111{fill:#201F1A;}
	.st112{clip-path:url(#SVGID_00000039108449531230012280000004751590912444332672_);fill:#003676;}
	.st113{clip-path:url(#SVGID_00000039108449531230012280000004751590912444332672_);}
	.st114{clip-path:url(#SVGID_00000039108449531230012280000004751590912444332672_);fill:#201F1B;}
	.st115{fill:#FFD100;}
	.st116{clip-path:url(#SVGID_00000078761438604127270380000016512110353157132988_);fill:#DDEDFA;}
	.st117{clip-path:url(#SVGID_00000078761438604127270380000016512110353157132988_);fill:#BB998D;}
	.st118{clip-path:url(#SVGID_00000078761438604127270380000016512110353157132988_);fill:#00643C;}
	.st119{clip-path:url(#SVGID_00000078761438604127270380000016512110353157132988_);}
	.st120{clip-path:url(#SVGID_00000078761438604127270380000016512110353157132988_);fill:#201F1B;}
	.st121{clip-path:url(#SVGID_00000040576202996564048220000013859490568476563387_);fill:#FFFADB;}
	.st122{clip-path:url(#SVGID_00000040576202996564048220000013859490568476563387_);}
	.st123{clip-path:url(#SVGID_00000040576202996564048220000013859490568476563387_);fill:#FFDB00;}
	.st124{clip-path:url(#SVGID_00000040576202996564048220000013859490568476563387_);fill:#FCF6CC;}
	.st125{clip-path:url(#SVGID_00000040576202996564048220000013859490568476563387_);fill:#ABABAB;}
	.st126{clip-path:url(#SVGID_00000040576202996564048220000013859490568476563387_);fill:#201F1B;}
	.st127{clip-path:url(#SVGID_00000006680649671781339650000015493336264492232862_);fill:#FFFADB;}
	.st128{clip-path:url(#SVGID_00000006680649671781339650000015493336264492232862_);fill:#ABABAB;}
	.st129{clip-path:url(#SVGID_00000006680649671781339650000015493336264492232862_);}
	.st130{clip-path:url(#SVGID_00000006680649671781339650000015493336264492232862_);fill:#003676;}
	.st131{clip-path:url(#SVGID_00000006680649671781339650000015493336264492232862_);fill:#FCF6CC;}
	.st132{clip-path:url(#SVGID_00000006680649671781339650000015493336264492232862_);fill:#201F1B;}
	.st133{clip-path:url(#SVGID_00000111903298331941230220000016303946868138145199_);fill:#DDEDFA;}
	.st134{clip-path:url(#SVGID_00000111903298331941230220000016303946868138145199_);}
	.st135{clip-path:url(#SVGID_00000111903298331941230220000016303946868138145199_);fill:#FFFFFF;}
	.st136{clip-path:url(#SVGID_00000111903298331941230220000016303946868138145199_);fill:#201F1B;}
	.st137{clip-path:url(#SVGID_00000111903298331941230220000016303946868138145199_);fill:#D6AF9F;}
	.st138{fill:none;stroke:#201F1B;stroke-width:2.8825;stroke-miterlimit:10;}
	.st139{fill:#D5EEFD;}
	.st140{clip-path:url(#SVGID_00000070095625849621349830000013280795767201280447_);}
	.st141{fill:#D5EEFD;stroke:#201F1B;stroke-width:2.8825;stroke-miterlimit:10;}
	.st142{fill:#FFFFFF;stroke:#D9D9D7;stroke-width:2.8825;stroke-linejoin:round;stroke-miterlimit:10;}
	.st143{fill:#FFFFFF;stroke:#201F1B;stroke-width:2.8825;stroke-linejoin:round;stroke-miterlimit:10;}
	.st144{fill:none;stroke:#201F1A;stroke-width:2.8825;stroke-miterlimit:10;}
	.st145{fill:none;stroke:#201F1B;stroke-width:2.4389;stroke-miterlimit:10;}
	.st146{fill:none;stroke:#D9D9D7;stroke-width:2.4389;stroke-miterlimit:10;}
	.st147{fill:#FFFFFF;stroke:#D9D9D7;stroke-width:2.4389;stroke-linejoin:round;stroke-miterlimit:10;}
	.st148{clip-path:url(#SVGID_00000160902575431695354550000003030038041266278565_);fill:#FDDB00;}
	.st149{clip-path:url(#SVGID_00000160902575431695354550000003030038041266278565_);}
	.st150{clip-path:url(#SVGID_00000160902575431695354550000003030038041266278565_);fill:#201F1B;}
	.st151{clip-path:url(#SVGID_00000067937116299915436840000003333142842892266669_);fill:#296239;}
	.st152{clip-path:url(#SVGID_00000067937116299915436840000003333142842892266669_);fill:#00643C;}
	.st153{clip-path:url(#SVGID_00000067937116299915436840000003333142842892266669_);}
	.st154{clip-path:url(#SVGID_00000067937116299915436840000003333142842892266669_);fill:#201F1B;}
	.st155{clip-path:url(#SVGID_00000132080008124327718920000004375579733352732322_);fill:#FBDDCF;}
	.st156{clip-path:url(#SVGID_00000132080008124327718920000004375579733352732322_);}
	.st157{clip-path:url(#SVGID_00000132080008124327718920000004375579733352732322_);fill:#00643C;}
	.st158{fill:#DDEDFA;stroke:#201F1B;stroke-width:2.2625;stroke-miterlimit:10;}
	.st159{fill:none;stroke:#201F1B;stroke-width:1.7752;stroke-miterlimit:10;}
	.st160{fill:none;stroke:#201F1B;stroke-width:2.2515;stroke-linejoin:bevel;stroke-miterlimit:10;}
	.st161{fill:#D5E9F7;}
	.st162{fill:#FFD531;}
	.st163{fill:none;stroke:#1D1D1A;stroke-width:2;stroke-miterlimit:10;}
	.st164{fill:none;stroke:#1D1D1A;stroke-width:2;stroke-linecap:round;stroke-linejoin:round;stroke-miterlimit:10;}
	.st165{fill:none;stroke:#1D1D1A;stroke-width:2;stroke-linejoin:round;stroke-miterlimit:10;}
	.st166{fill:#1D1D1A;}
	.st167{fill:none;stroke:#1D1D1A;stroke-width:2.8327;stroke-miterlimit:10;}
	.st168{fill:#005936;}
	.st169{display:none;}
	.st170{display:inline;fill:#201F1B;}
	.st171{font-family:'ArialMT';}
	.st172{font-size:12px;}
</style>
<g id="Layer_1">
	<g>
		<circle class="st23" cx="464.99" cy="339.62" r="8.79"/>
		<circle class="st23" cx="470.9" cy="353.07" r="3.85"/>
		<circle class="st23" cx="460.5" cy="357.24" r="2.87"/>
		<polygon class="st1" points="464,341.66 463.96,340.43 463.97,340.26 464.06,339.66 466.04,339.94 465.96,340.46 466,341.59 		"/>
		<polygon class="st1" points="464.02,364.98 463.84,364.04 463.87,363.09 463.99,362.58 463.89,362.07 463.89,361.68 
			464.01,361.06 464.02,360.42 463.98,359.79 464.03,358.92 464.11,357.7 463.92,357.17 463.87,356.75 463.92,356.08 463.91,355.4 
			463.94,355.12 464.1,354.53 464.14,353.31 463.98,352.45 464.02,351.72 463.93,349.71 463.93,349.5 464.06,348.15 463.92,345.96 
			463.94,345.24 463.94,344.54 464.02,343.71 464.15,343.05 464.07,342.48 463.92,341.86 465.87,341.4 466.04,342.12 466.15,342.95 
			466.14,343.28 465.99,344.01 465.94,344.58 465.94,345.26 465.92,345.96 466.06,348.12 466,348.96 465.93,349.62 465.99,350.24 
			466.02,351.75 465.99,352.42 466.15,353.28 466.06,354.93 465.91,355.5 465.92,356.08 465.88,356.7 466.06,357.21 466.11,357.57 
			465.98,359.72 466.02,360.37 465.99,361.35 465.89,361.87 466,362.42 465.99,362.84 465.84,363.45 465.84,363.94 465.97,364.56 		
			"/>
		<polygon class="st1" points="465.55,359.74 464.5,358.05 464.97,357.75 465.43,357.1 465.94,356.63 466.62,355.9 467.15,355.56 
			467.52,355.16 467.88,354.59 468.11,354.34 468.63,353.93 469.18,353.34 469.69,352.92 470.12,352.41 471.66,353.68 471.03,354.4 
			470.51,354.84 469.93,355.46 469.47,355.81 469.05,356.44 468.33,357.17 467.82,357.5 467.34,358.06 466.88,358.49 466.53,359.03 
			466.22,359.33 		"/>
		<polygon class="st1" points="464.14,362.33 463.78,361.82 461.82,360.02 461.3,359.67 461.03,359.39 460.69,358.88 460.19,358.38 
			459.75,357.82 461.33,356.59 461.72,357.09 462.3,357.69 462.59,358.12 463.18,358.54 464.14,359.46 465.34,360.57 465.77,361.17 
					"/>
	</g>
	<g>
		<circle class="st23" cx="70.57" cy="339.62" r="8.79"/>
		<circle class="st23" cx="76.48" cy="353.07" r="3.85"/>
		<circle class="st23" cx="66.08" cy="357.24" r="2.87"/>
		<polygon class="st1" points="71.54,341.81 69.57,341.44 69.66,340.98 69.54,339.91 71.53,339.69 71.66,340.9 71.65,341.2 		"/>
		<polygon class="st1" points="71.44,364.88 69.45,364.67 69.58,363.31 69.55,362.64 69.65,361.2 69.44,359.87 69.5,359.35 
			69.63,359.02 69.48,358.69 69.42,358.04 69.57,357.43 69.58,356.82 69.55,356.14 69.58,355.43 69.49,354.8 69.49,354.51 
			69.59,353.85 69.62,353.26 69.55,352.6 69.56,352.38 69.63,351.81 69.53,351.24 69.53,350.85 69.65,350.31 69.56,349.78 
			69.57,349.42 69.67,348.87 69.58,348.11 69.61,347.46 69.41,345.36 69.47,344.88 69.63,344.5 69.51,344.12 69.48,343.61 
			69.61,343.01 69.57,342.42 69.57,341.62 71.57,341.62 71.57,342.36 71.61,343.02 71.59,343.3 71.49,343.76 71.64,344.23 
			71.62,344.92 71.42,345.4 71.61,347.5 71.58,348.11 71.68,348.74 71.67,349.08 71.56,349.63 71.65,350.18 71.64,350.55 
			71.53,351.07 71.64,351.91 71.56,352.53 71.62,353.26 71.58,354.1 71.49,354.67 71.58,355.43 71.55,356.15 71.58,356.79 
			71.54,357.79 71.45,358.19 71.62,358.59 71.64,359.36 71.46,359.82 71.65,361.25 71.55,362.61 71.58,363.28 71.52,364.13 		"/>
		<polygon class="st1" points="71.49,359.72 70.01,358.38 70.46,357.88 70.99,357.08 72.03,356.14 72.4,355.6 72.75,355.29 
			73.22,355.04 73.5,354.62 73.73,354.37 74.26,353.96 75.64,352.37 77.18,353.65 76.22,354.8 75.54,355.5 75.08,355.86 
			74.75,356.36 74.38,356.69 73.9,356.95 73.45,357.54 72.45,358.46 72.01,359.16 		"/>
		<polygon class="st1" points="69.83,362.47 69.21,361.87 68.85,361.42 68.26,360.95 67.77,360.43 67.24,359.94 66.16,358.74 
			65.96,358.39 65.59,358.22 66.44,356.41 67.11,356.72 67.56,357.14 67.84,357.66 69.67,359.53 70.35,360.08 70.74,360.58 
			71.2,361.01 		"/>
	</g>
	<path class="st23" d="M257.88,233.96h-55.06c-2.76,0-5-2.24-5-5v-67.35c0-2.76,2.24-5,5-5h55.06c2.76,0,5,2.24,5,5v67.35
		C262.88,231.72,260.64,233.96,257.88,233.96z"/>
	<polygon class="st17" points="264.08,221.54 223.76,221.54 223.76,187.49 218.93,165.77 262.88,165.77 264.08,190.94 	"/>
	<ellipse class="st17" cx="264.08" cy="206.24" rx="4.74" ry="5.1"/>
	<ellipse class="st17" cx="264.08" cy="216.44" rx="4.74" ry="5.1"/>
	<ellipse class="st17" cx="264.08" cy="183.48" rx="4.74" ry="5.9"/>
	<ellipse class="st17" cx="223.67" cy="171.67" rx="4.74" ry="5.9"/>
	<ellipse class="st17" cx="223.67" cy="183.48" rx="4.74" ry="5.9"/>
	<ellipse class="st17" cx="223.76" cy="193.16" rx="4.74" ry="5.68"/>
	<ellipse class="st17" cx="223.76" cy="204.51" rx="4.74" ry="5.68"/>
	<ellipse class="st17" cx="223.76" cy="215.86" rx="4.74" ry="5.68"/>
	<ellipse class="st17" cx="264.08" cy="195.29" rx="4.74" ry="5.9"/>
	<g>
		<g>
			<polygon class="st26" points="223.65,230.02 223.36,229.37 223.05,228.73 222.6,228.15 222.45,227.44 222.02,226.85 
				221.78,226.18 221.44,225.55 221.22,224.87 220.88,224.24 220.65,223.56 220.18,222.99 219.99,222.29 219.65,221.66 219.37,221 
				219.05,220.37 218.85,219.67 218.43,219.08 218.13,218.43 217.88,217.76 217.61,217.1 217.17,216.51 217.02,215.79 
				216.72,215.14 216.43,214.49 216.1,213.86 215.83,213.19 215.44,212.58 215.21,211.9 214.81,211.3 214.46,210.68 214.24,210 
				213.94,209.35 213.67,208.69 213.29,208.08 213.01,207.42 212.64,206.8 212.48,206.09 212.13,205.46 211.9,204.77 211.48,204.17 
				211.29,203.47 210.89,202.86 210.62,202.19 210.32,201.54 210.07,200.87 209.73,200.23 209.37,199.6 209.12,198.92 
				208.82,198.29 209.17,197.68 209.72,197.2 210.08,196.55 210.53,195.98 211.03,195.45 211.53,194.93 211.84,194.25 212.32,193.7 
				212.75,193.13 213.22,192.57 213.66,191.98 214.1,191.4 214.61,190.88 214.01,190.46 213.36,190.13 212.67,189.88 212.1,189.39 
				211.45,189.05 210.78,188.75 210.16,188.34 209.42,188.16 208.79,187.79 208.22,187.3 207.56,186.96 206.89,186.64 206.2,186.38 
				205.61,185.91 204.93,185.62 204.26,185.3 203.6,184.99 203.03,184.47 202.36,184.15 201.67,183.86 201.02,183.39 200.61,184.07 
				200.18,184.64 199.57,185.07 199.16,185.67 198.68,186.21 198.21,186.76 197.78,187.34 197.28,187.87 196.84,188.44 
				196.3,188.93 195.91,189.54 195.49,190.15 195.02,190.7 194.48,191.2 194.06,191.79 193.61,192.35 193.25,192.97 192.74,193.5 
				192.59,194.22 192.34,194.89 192.09,195.56 191.88,196.24 191.76,196.95 191.81,197.67 191.8,198.38 191.8,199.09 191.9,199.8 
				192.01,200.51 192.26,201.18 192.43,201.88 192.81,202.5 193.15,203.13 193.58,203.71 193.84,204.4 194.32,204.95 194.58,205.64 
				195.01,206.23 195.38,206.85 195.88,207.4 196.08,208.11 196.48,208.69 196.91,209.26 197.3,209.85 197.57,210.52 198.07,211.05 
				198.29,211.75 198.75,212.3 199.04,212.96 199.53,213.49 199.8,214.16 200.23,214.72 200.53,215.37 200.97,215.94 201.28,216.58 
				201.69,217.17 202.11,217.74 202.47,218.36 202.88,218.94 203.26,219.54 203.62,220.16 203.94,220.8 204.22,221.46 204.71,222 
				204.96,222.68 205.42,223.23 205.84,223.81 206.17,224.43 206.47,225.08 206.95,225.61 207.33,226.22 207.56,226.91 
				208.02,227.47 208.34,228.11 208.73,228.71 209.13,229.3 209.51,229.9 209.85,230.53 210.16,231.18 210.59,231.76 210.97,232.36 
				211.32,232.99 211.77,233.55 212.02,234.24 212.42,234.84 212.83,235.43 213.21,236.05 212.54,236.1 211.87,236.1 211.2,236.02 
				210.53,236.05 209.86,236.3 209.2,236.62 208.98,237.31 208.86,237.99 208.84,238.76 208.69,239.53 208.73,240.31 208.7,241.08 
				208.83,241.86 208.68,242.64 209.02,243.38 209.39,244.09 210.1,244.48 210.82,244.64 211.53,244.83 212.28,244.81 213,244.96 
				213.71,245.17 214.44,245.25 215.18,245.32 215.92,245.27 216.66,245.26 217.39,245.25 218.13,245.23 218.86,245.2 
				219.59,245.07 220.3,244.88 221.01,244.67 221.67,244.33 222.3,243.94 222.75,243.35 223.22,242.78 223.44,242.08 223.66,241.37 
				223.71,240.63 223.67,239.93 223.67,239.23 223.71,238.52 223.66,237.82 223.73,237.11 223.6,236.4 223.59,235.69 223.67,234.98 
				223.68,234.27 223.6,233.56 223.61,232.86 223.62,232.16 223.5,231.45 223.57,230.74 			"/>
		</g>
		<path class="st1" d="M215.17,246.32l-1.75-0.19l-0.66-0.2l-0.56-0.11l-0.78,0.02l-1.8-0.48l-0.98-0.54l-1.01-2.05l0.18-0.92
			l-0.12-0.7l0.04-0.88l-0.04-0.81l0.16-0.8l0.03-0.84l0.15-0.82l0.36-1.09l1.13-0.56l0.95-0.3l0.76-0.04l0.11,0.01l-0.26-0.45
			l-0.19-0.53l-0.44-0.57l-0.7-1.17l-0.5-0.69l-0.62-1.23l-1.18-1.83l-0.26-0.53l-0.52-0.61l-0.25-0.76l-0.26-0.42l-0.59-0.72
			l-0.58-1.17l-0.38-0.52l-0.53-0.63l-0.24-0.67l-0.47-0.52l-0.64-1.39l-0.69-1.13l-0.39-0.54l-0.41-0.69l-0.87-1.23l-0.26-0.55
			l-0.49-0.68l-0.25-0.55l-0.49-0.71l-0.2-0.5l-0.49-0.52l-0.3-0.69l-0.49-0.59l-0.22-0.67l-0.47-0.5l-0.31-0.75l-0.33-0.52
			l-0.91-1.26l-0.19-0.64l-0.46-0.54l-0.34-0.58l-0.53-0.78l-0.2-0.53l-0.48-0.56l-0.27-0.72l-0.42-0.58l-0.82-1.48l-0.16-0.65
			l-0.28-0.81l-0.22-1.58l0.01-1.43l-0.06-0.76l0.17-0.95l0.7-2.01l0.19-0.92l0.63-0.66l0.38-0.63l0.98-1.27l0.5-0.45l0.39-0.47
			l0.93-1.35l0.47-0.42l0.45-0.59l0.46-0.48l0.39-0.53l0.97-1.11l0.48-0.69l0.62-0.45l0.31-0.41l0.94-1.58l1.45,1.05l1.54,0.75
			l0.45,0.41l2.09,0.99l0.46,0.37l0.54,0.2l1.63,0.84l0.5,0.43l0.43,0.25l0.77,0.19l0.7,0.46l0.6,0.27l0.88,0.5l0.44,0.37l0.63,0.24
			l0.77,0.4l1.56,1.09l-1.29,1.32l-2.17,2.74l-0.32,0.7l-1.11,1.17l-0.34,0.44l-0.4,0.72l-0.56,0.5l0.11,0.25l0.21,0.6l0.73,1.34
			l0.25,0.67l0.52,1.2l0.47,0.81l0.15,0.54l0.45,0.72l0.2,0.6l0.4,0.8l0.13,0.56l0.35,0.6l0.26,0.6l0.4,0.69l0.79,1.96l0.3,0.55
			l0.47,0.76l0.19,0.57l0.41,0.68l0.25,0.61l0.31,0.58l0.68,1.58l0.1,0.5l0.43,0.63l0.76,1.86l0.47,0.66l0.22,0.76l0.28,0.55
			l0.29,0.68l0.41,0.81l0.13,0.49l0.45,0.54l0.26,0.77l0.38,0.73l0.19,0.59l0.36,0.69l0.19,0.54l0.47,0.64l0.15,0.7l0.42,0.57
			l0.73,1.57l-0.17,1.55l0.12,0.67l-0.02,1.43l0.08,0.71l-0.02,0.87l-0.08,0.65l0,0.56l0.15,0.76l-0.08,0.77l0.05,0.69l-0.05,0.77
			l0.05,1.35l-0.1,1.03l-0.5,1.59l-1.13,1.43l-0.79,0.49l-0.9,0.45l-1.45,0.41l-0.95,0.16L215.17,246.32z M213.91,244.19l1.28,0.13
			l3.56-0.12l0.66-0.12l1.22-0.35l0.98-0.55l0.71-0.9l0.35-1.11l0.04-0.56l-0.04-1.4l0.04-0.7l-0.06-0.73l0.07-0.65l-0.12-0.75
			l0-0.77l0.08-0.72l0.01-0.59l-0.08-0.76l0.02-1.33l-0.13-0.75l0.14-1.3l-0.44-0.93l-0.53-0.67l-0.15-0.73l-0.44-0.67l-0.21-0.6
			l-0.38-0.73l-0.19-0.59l-0.37-0.71l-0.17-0.51l-0.49-0.6l-0.21-0.79l-0.33-0.61l-0.28-0.66l-0.36-0.74l-0.16-0.53l-0.42-0.62
			l-0.3-0.65l-0.48-1.25l-0.5-0.66l-0.17-0.83l-1.13-2.46l-0.44-0.75l-0.19-0.56l-0.33-0.49l-0.46-0.86l-0.21-0.63l-0.54-1.23
			l-0.39-0.67l-0.26-0.6l-0.45-0.84l-0.13-0.57l-0.36-0.68l-0.18-0.55l-0.43-0.62l-0.2-0.71l-0.4-0.65l-0.81-1.96l-0.73-1.34
			l-0.23-0.64l-0.51-1.06l0.7-1.2l0.54-0.48l0.36-0.62l0.45-0.57l0.95-1.01l0.4-0.76l0.48-0.55l1.5-1.94l-0.11-0.06l-0.8-0.3
			l-0.63-0.53l-0.55-0.3l-0.75-0.34l-0.47-0.31l-0.84-0.24l-0.79-0.48l-0.47-0.41l-1.19-0.59l-0.77-0.28l-0.6-0.49l-2.17-1.05
			l-0.46-0.42l-1.15-0.51l-0.56,0.66l-0.46,0.33l-0.38,0.55l-0.95,1.08l-0.46,0.62l-0.46,0.48l-0.53,0.67l-0.44,0.4l-0.81,1.21
			l-0.56,0.65l-0.46,0.42l-0.79,1.05l-0.47,0.74l-0.31,0.33l-0.14,0.59l-0.67,1.89l-0.09,0.53l0.04,0.6l0,1.43l0.18,1.23l0.24,0.68
			l0.14,0.56l0.63,1.09l0.52,0.77l0.2,0.52l0.47,0.55l0.27,0.72l0.41,0.56l0.32,0.54l0.58,0.65l0.22,0.77l1.23,1.8l0.2,0.49
			l0.53,0.56l0.23,0.73l0.49,0.65l0.21,0.5l0.5,0.54l0.29,0.71l0.46,0.65l0.25,0.55l0.48,0.65l0.27,0.57l0.78,1.08l0.41,0.7
			l0.77,1.15l0.73,1.34l0.24,0.57l0.51,0.56l0.25,0.7l0.35,0.41l0.54,0.76l0.59,1.18l0.49,0.56l0.48,0.83l0.17,0.51l0.47,0.6
			l0.29,0.59l1.14,1.76l0.66,1.29l0.37,0.5l0.76,1.26l0.51,0.63l0.26,0.74l1.14,1.75l0.85,1.41l-3.1,0.16l-0.65-0.08l-0.43,0.03
			l-0.71,0.28l-0.08,0.23l-0.09,0.53l-0.03,0.87l-0.13,0.65l0.03,0.66l-0.03,0.75l0.15,0.86l-0.13,0.64l0.42,0.85l0.33,0.18
			l1.19,0.29l0.72-0.02l0.92,0.19L213.91,244.19z"/>
	</g>
	<path class="st17" d="M209.31,200.18l-14.61-14.61l19.72-19.72c2.41-2.41,6.31-2.41,8.72,0l10.25,10.25L209.31,200.18z"/>
	<path class="st1" d="M217.41,198.25l-2.01-2.23c15.77-14.22,4.86-32.7,4.75-32.88l2.57-1.55
		C222.84,161.79,235,182.39,217.41,198.25z"/>
	<g>
		<g>
			<polyline class="st20" points="212.48,236.61 212.51,237.35 212.63,238.09 212.49,238.83 212.58,239.57 212.54,240.31 
				212.63,241.05 212.49,241.8 212.46,242.54 			"/>
		</g>
		<polygon class="st1" points="213.46,242.57 211.46,242.51 211.5,241.61 211.62,241.01 211.54,240.34 211.58,239.6 211.48,238.79 
			211.62,238.08 211.51,237.4 211.48,236.65 213.48,236.56 213.51,237.25 213.65,238.1 213.5,238.86 213.58,239.53 213.55,240.28 
			213.64,241.09 213.48,241.9 		"/>
	</g>
	<g>
		<g>
			<polygon class="st26" points="245.71,174.07 245.71,174.19 244.99,174.06 244.25,174.03 243.56,173.76 242.89,173.47 
				242.25,173.11 241.59,172.77 241.1,172.22 240.62,171.66 240.25,171.04 239.88,170.42 239.46,169.79 239.33,169.06 239.1,168.35 
				239.18,167.6 239.21,166.89 239.06,166.19 239.24,165.47 239.26,164.76 239.1,164.04 239.2,163.33 239.1,162.61 239.19,161.9 
				239.15,161.18 239.18,160.47 239.11,159.75 239.08,159.03 239.22,158.31 239.16,157.6 239.15,156.88 239.18,156.16 239.1,155.44 
				239.22,154.72 239.22,154.06 239.85,154.1 240.54,154.21 241.23,154.32 241.91,154.48 242.59,154.65 243.28,154.78 
				243.98,154.82 244.64,155.12 245.34,155.22 246.03,155.3 246.74,155.36 247.42,155.52 248.11,155.7 248.82,155.73 249.49,155.96 
				250.19,156.04 250.89,156.13 251.56,156.38 252.22,156.5 252.32,157.2 252.36,157.94 252.34,158.68 252.19,159.42 252.34,160.16 
				252.27,160.91 252.34,161.65 252.34,162.39 252.32,163.13 252.28,163.88 252.25,164.62 252.35,165.36 252.35,166.11 
				252.31,166.86 252.31,167.6 252.19,168.33 252.11,169.06 251.95,169.79 251.53,170.41 251.25,171.09 250.9,171.74 250.34,172.23 
				249.74,172.66 249.18,173.13 248.54,173.48 247.87,173.75 247.18,174.02 246.44,174.06 			"/>
		</g>
		<path class="st1" d="M246.71,175.37l-1.83-0.31l-0.84-0.04l-1.55-0.64l-1.52-0.8l-1.2-1.4l-1.26-2.01l-0.15-0.87l-0.27-0.84
			l0.12-1.48l-0.17-0.81l0.2-0.83l0.02-0.49l-0.17-0.77l0.11-0.75l-0.11-0.71l0.1-0.76l-0.03-0.63l0.03-0.74l-0.11-1.54l0.14-0.7
			l-0.05-0.57l-0.02-0.78l0.03-0.71l-0.09-0.77l0.12-0.78l0.01-1.63l1.78,0.11l1.38,0.22l2.02,0.45l0.83,0.05l0.7,0.32l2.05,0.23
			l1.28,0.32l0.89,0.08l0.56,0.2l1.54,0.21l0.58,0.22l1.29,0.22l0.2,1.43l0.04,0.83l-0.04,0.99l-0.11,0.54l0.13,0.68l-0.07,0.79
			l0.06,0.65l0,0.84l-0.08,2.18l0.09,0.79l-0.05,2.4l-0.41,2.42l-0.47,0.7l-0.24,0.58l-0.48,0.91l-0.71,0.61l-1.32,1.01l-0.75,0.4
			l-1.52,0.61l-0.68,0.03V175.37z M244.46,173.04l0.71,0.04l1.79-0.04l1.15-0.46l0.5-0.28l0.48-0.41l1.01-0.78l0.26-0.49l0.33-0.76
			l0.31-0.46l0.12-0.54l0.18-1.33l0-0.67l0.04-0.81l0-0.63l-0.1-0.77l0.09-3.02l-0.07-0.74l0.06-0.69l-0.16-0.8l0.17-0.85l0.02-0.65
			l-0.06-0.57l-0.65-0.25l-1.49-0.2l-0.53-0.19l-0.77-0.05l-1.27-0.32l-1.37-0.13l-0.99-0.19l-0.49-0.22l-0.64-0.05l-2.94-0.6
			l-0.05,0.3l0.07,0.67l-0.04,0.8l0.09,1.44l-0.15,0.74l0.1,1.33l-0.03,0.79l0.04,0.71l-0.09,0.67l0.11,0.72l-0.1,0.68l0.15,0.66
			l-0.06,1.04l-0.12,0.5l0.13,0.61l-0.09,1.42l0.2,0.65l0.09,0.52l1.03,1.66l0.78,0.89l1.75,0.88L244.46,173.04z"/>
	</g>
	<g>
		<g>
			<polygon class="st26" points="253.92,163.5 253.2,163.48 252.49,163.59 251.77,163.59 251.06,163.54 250.34,163.62 249.63,163.6 
				248.91,163.51 248.2,163.48 247.48,163.5 246.76,163.45 246.04,163.62 245.32,163.59 244.61,163.42 243.92,163.3 243.24,163.09 
				242.53,162.96 241.92,162.57 241.36,162.13 240.82,161.66 240.39,161.09 239.99,160.51 239.57,159.93 239.23,159.3 
				239.11,158.58 238.9,157.89 238.89,157.17 238.88,156.46 239.01,155.75 238.99,155.05 239.03,154.34 238.88,153.63 
				238.85,152.92 238.97,152.22 238.88,151.51 238.9,150.8 238.91,150.09 239.04,149.38 239.01,148.67 238.99,147.95 238.96,147.24 
				238.94,146.53 238.99,145.82 238.94,145.11 239,144.39 239.03,143.68 238.95,142.96 239.06,142.25 239.11,141.54 239.27,140.84 
				239.59,140.2 239.86,139.53 240.4,139.03 240.81,138.44 241.36,137.99 241.89,137.5 242.59,137.28 243.2,136.91 243.91,136.79 
				244.6,136.54 245.32,136.62 246.03,136.6 246.75,136.67 247.46,136.56 248.18,136.58 248.89,136.58 249.61,136.67 250.32,136.51 
				251.04,136.57 251.76,136.51 252.48,136.58 253.2,136.59 253.92,136.62 254.62,136.71 255.35,136.67 256.02,136.96 
				256.68,137.22 257.28,137.61 257.87,138 258.47,138.41 258.96,138.93 259.4,139.52 259.75,140.15 259.95,140.85 260.19,141.53 
				260.21,142.25 260.23,142.96 260.37,143.67 260.31,144.37 260.38,145.08 260.38,145.78 260.25,146.49 260.21,147.2 
				260.28,147.91 260.22,148.62 260.29,149.33 260.27,150.04 260.31,150.75 260.26,151.46 260.36,152.17 260.2,152.88 
				260.31,153.59 260.2,154.3 260.3,155.02 260.27,155.73 260.39,156.45 260.38,157.17 260.23,157.88 260.11,158.58 259.9,159.26 
				259.61,159.91 259.29,160.54 258.92,161.16 258.48,161.73 257.92,162.18 257.32,162.58 256.68,162.9 256.05,163.28 
				255.32,163.31 254.62,163.44 			"/>
		</g>
		<path class="st1" d="M250.38,164.62l-0.89-0.03l-0.71-0.1l-0.62-0.02l-0.66,0.02l-0.66-0.04l-0.71,0.16l-1.04-0.06l-2.94-0.65
			l-0.86-0.55l-1.27-1.09l-1.34-1.86l-0.44-0.94l-0.12-0.66l-0.23-0.9l-0.02-1.54l0.13-0.7l-0.01-0.6l0.03-0.65l-0.15-0.75
			l-0.03-0.81l0.11-0.66l-0.08-0.64l0.05-1.66l0.11-0.6l-0.09-2.75l0.04-0.74l-0.04-0.72l0.08-1.39l-0.08-0.78l0.12-0.83l0.07-0.8
			l0.24-0.91l0.32-0.64l0.32-0.81l0.62-0.58l0.54-0.7l1.2-1.06l0.8-0.25l0.67-0.42l0.81-0.13l0.81-0.3l0.89,0.1l0.7-0.02l0.65,0.06
			l0.69-0.11l2.15,0.1l0.7-0.16l0.78,0.07l0.72-0.06l0.81,0.08l1.38,0.03l0.7,0.09l0.87-0.05l1.68,0.72l1.99,1.34l0.56,0.61
			l0.51,0.7l0.43,0.84l0.48,1.62l0.03,1.35l0.15,0.76l-0.06,0.75l0.06,0.72l-0.02,0.87l-0.12,0.65l-0.04,0.57l0.08,0.72l-0.07,0.71
			l0.07,0.67l-0.02,0.78l0.04,0.69l-0.05,0.67l0.11,0.78l-0.15,0.71l0.1,0.68l-0.11,0.71l0.09,0.66l-0.04,0.7l0.12,0.7l-0.03,1
			l-0.29,1.5l-0.25,0.8l-0.64,1.33l-0.46,0.77l-0.61,0.75l-0.57,0.45l-0.77,0.5l-1.41,0.79l-0.92,0.05l-0.64,0.11l-0.85,0.08
			l-0.68-0.01l-0.71,0.11l-1.48-0.05L250.38,164.62z M249.7,162.61l0.6,0.02l0.74-0.08l1.38,0.05l0.72-0.11l0.74,0.01l0.66-0.06
			l0.73-0.13l0.48-0.02l1.61-0.94l0.4-0.32l0.33-0.43l0.63-1.14l0.24-0.54l0.17-0.56l0.24-1.3l0.01-0.53l-0.12-0.73l0.04-0.73
			l-0.11-0.77l0.11-0.71l-0.11-0.74l0.16-0.72l-0.09-0.64l0.05-0.75l-0.04-0.65l0.01-0.73l-0.08-0.74l0.07-0.71l-0.07-0.69
			l0.06-0.91l0.11-0.63l0.01-0.57l-0.07-0.74l0.05-0.65l-0.14-0.75l-0.03-1.27l-0.38-1.18l-0.26-0.48l-0.36-0.48l-0.38-0.4
			l-1.6-1.05l-1.05-0.43l-0.59,0.03l-0.8-0.11l-2.03-0.1l-0.71,0.06l-0.65-0.06l-0.73,0.17l-0.83-0.1l-1.31-0.03l-0.74,0.11
			L246,137.6l-0.72,0.02l-0.55-0.06l-0.65,0.22l-0.51,0.08l-0.68,0.38l-0.48,0.15l-0.86,0.74l-0.47,0.64l-0.37,0.34l-0.18,0.46
			l-0.3,0.62l-0.12,0.51l-0.04,0.63l-0.1,0.66l0.07,0.66l-0.08,1.47l0.04,0.71l-0.05,0.77l0.1,2.85l-0.14,0.74l-0.03,1.27l0.1,0.77
			l-0.12,0.75l0.02,0.52l0.16,0.76l-0.05,0.84l0.02,0.73l-0.13,0.71l0.02,1.19l0.19,0.68l0.1,0.55l0.23,0.44l1.14,1.57l0.94,0.79
			l0.4,0.25l0.64,0.12l0.62,0.19l1.3,0.27l0.5,0.02l0.73-0.17l0.86,0.06l0.62-0.02l0.78,0.03L249.7,162.61z"/>
	</g>
	<g>
		<g>
			<polygon class="st26" points="266.49,183.58 267.12,183.27 267.81,183.05 268.46,182.72 269.14,182.48 269.77,182.09 
				270.48,181.92 271.12,181.58 271.84,181.44 272.48,181.09 273.18,180.9 273.8,180.48 274.46,180.19 275.16,179.98 275.86,179.77 
				276.45,179.32 277.11,179.03 277.82,178.86 278.47,178.53 279.1,178.16 279.78,177.9 280.41,177.53 281.08,177.25 281.77,177.02 
				282.36,176.57 283.06,176.34 283.65,175.9 284.31,175.58 284.93,175.19 285.6,174.89 286.22,174.5 286.85,174.14 287.47,173.75 
				288.06,173.32 288.73,173.03 289.32,172.62 289.75,172.02 290.38,171.65 290.78,171.04 291.3,170.55 291.65,169.92 
				291.98,169.28 292.4,168.69 292.76,168.07 292.95,167.38 293.11,166.68 293.41,166.02 293.46,165.3 293.64,164.6 293.61,163.88 
				293.58,163.17 293.53,162.46 293.48,161.75 293.5,161.02 293.32,160.32 293.04,159.66 292.83,158.98 292.5,158.34 292.24,157.67 
				291.92,157.03 291.46,156.47 291.07,155.87 290.49,155.43 290.04,154.89 289.53,154.37 288.9,154.01 288.34,153.57 
				287.74,153.18 287.06,152.9 286.5,152.45 285.92,152.03 285.33,151.62 284.8,151.13 284.19,150.75 283.51,150.47 282.96,150 
				282.33,149.64 281.74,149.24 281.19,148.78 280.56,148.44 280.03,147.95 279.43,147.56 278.85,147.14 278.22,146.79 
				277.67,146.31 277.11,145.87 276.52,145.45 275.89,145.09 275.33,144.64 274.71,144.27 274.06,143.94 273.52,143.46 
				272.94,143.03 272.34,142.63 271.67,142.33 271.15,141.81 270.5,141.48 269.94,141.01 269.35,140.54 268.6,140.58 267.87,140.71 
				267.13,140.64 266.4,140.77 265.66,140.81 264.92,140.68 264.19,140.72 263.45,140.81 262.72,140.8 261.98,140.82 261.25,140.96 
				260.5,140.87 259.77,141.01 259.04,141.06 258.29,141.03 257.55,141.04 256.81,141.12 256.12,141.15 255.73,141.68 
				255.49,142.34 255.06,142.92 254.83,143.59 254.57,144.25 254.29,144.92 254.37,145.65 254.56,146.33 254.85,146.97 
				255.2,147.58 255.62,148.16 256.24,148.51 256.84,148.91 257.56,148.96 258.26,149.14 258.98,149.14 259.71,148.97 
				260.44,149.03 261.16,148.97 261.89,149.1 262.62,148.99 263.35,148.89 264.08,148.96 264.84,148.85 265.35,149.44 
				266.02,149.75 266.6,150.2 267.15,150.67 267.74,151.1 268.29,151.57 268.79,152.1 269.46,152.41 269.94,152.98 270.58,153.34 
				271.11,153.85 271.7,154.27 272.36,154.6 272.83,155.18 273.41,155.62 274.01,156.05 274.58,156.5 275.2,156.89 275.75,157.38 
				276.33,157.82 276.92,158.25 277.54,158.64 278.04,159.19 278.72,159.52 279.21,160.08 279.93,160.48 279.16,160.71 
				278.49,160.98 277.82,161.26 277.14,161.52 276.45,161.75 275.83,162.17 275.11,162.33 274.47,162.7 273.74,162.82 
				273.13,163.23 272.4,163.35 271.73,163.63 271.1,164.03 270.41,164.27 269.71,164.48 269.03,164.73 268.34,164.98 267.71,165.37 
				267.01,165.59 266.32,165.83 265.67,166.18 264.98,166.41 264.28,166.62 263.65,167.03 262.95,167.25 262.24,167.45 
				261.59,167.8 260.91,168.05 261.05,168.75 261.4,169.39 261.66,170.06 261.91,170.72 262.14,171.4 262.35,172.08 262.6,172.74 
				262.81,173.43 262.99,174.13 263.35,174.76 263.46,175.48 263.76,176.14 264.02,176.81 264.26,177.48 264.45,178.18 
				264.86,178.8 265.01,179.51 265.3,180.17 265.46,180.88 265.76,181.53 265.96,182.23 266.32,182.87 			"/>
		</g>
		<path class="st1" d="M265.81,185.02l-0.43-1.79L265,182.5l-0.18-0.62l-0.34-0.78l-0.14-0.62l-0.31-0.77l-0.11-0.52l-0.4-0.6
			l-0.22-0.86l-0.83-2.11l-0.08-0.53l-0.38-0.72l-0.37-1.34l-1.16-3.23l-0.41-0.86l-0.32-1.53l1.41-0.54l0.79-0.4l1.26-0.37
			l0.77-0.45l1.28-0.41l0.71-0.37l1.3-0.44l0.71-0.41l2.65-0.91l0.69-0.43l0.89-0.34l0.52-0.09l0.61-0.41l0.77-0.12l0.76-0.38
			l0.54-0.12l0.71-0.43l1.67-0.62l-0.37-0.18l-0.54-0.59l-1.15-0.78l-1.14-0.94l-0.64-0.41l-1.91-1.47l-0.33-0.42l-0.59-0.31
			l-0.72-0.52l-0.44-0.42l-0.68-0.39l-0.45-0.53l-0.65-0.3l-0.6-0.63l-2.1-1.69l-0.77-0.36l-0.28-0.33l-0.33,0.05l-0.74-0.07
			l-1.49,0.21l-0.76-0.13l-0.68,0.06l-0.66-0.06l-0.79,0.16l-0.86,0.01l-0.73-0.2l-0.89-0.06l-0.82-0.55l-0.75-0.41l-0.54-0.78
			l-0.45-0.76l-0.34-0.79l-0.22-0.84l-0.11-0.98l0.99-2.45l0.34-0.46l0.33-0.78l0.67-0.92l2.69-0.14l0.74,0.03l0.63-0.04l0.82-0.15
			l0.74,0.08l0.74-0.13l0.74-0.02l0.72,0.01l1.58-0.14l0.74,0.13l0.56-0.03l0.81-0.15l0.74,0.07l0.71-0.12l1.14-0.06l1.37,1.12
			l0.7,0.35l0.5,0.51l0.64,0.3l1.23,0.86l0.51,0.45l1.33,0.76l0.5,0.41l0.55,0.32l1.27,0.94l0.5,0.45l0.64,0.36l1.28,0.89l0.43,0.4
			l0.7,0.39l0.51,0.43l0.55,0.38l0.7,0.42l0.44,0.37l0.68,0.3l0.77,0.5l0.47,0.44l1.61,1.19l0.73,0.31l0.6,0.4l0.57,0.44l0.77,0.49
			l0.51,0.52l0.44,0.52l0.63,0.48l0.46,0.7l0.55,0.7l0.36,0.74l0.23,0.61l0.38,0.76l0.19,0.63l0.31,0.76l0.21,0.83l-0.03,0.82
			l0.17,2.98l-0.2,0.75l-0.05,0.8l-0.33,0.74l-0.44,1.57l-0.36,0.62l-0.42,0.6l-0.74,1.37l-0.55,0.52l-0.46,0.7l-0.65,0.38
			l-0.4,0.57l-0.91,0.6l-0.57,0.25l-1.17,0.79l-1.38,0.81l-0.61,0.28l-0.67,0.41l-0.57,0.27l-0.64,0.48l-0.7,0.24l-0.59,0.44
			l-1.39,0.51l-0.72,0.41l-0.6,0.23l-0.56,0.33l-0.92,0.43l-0.63,0.15l-0.47,0.2l-0.64,0.49l-1.52,0.46l-0.53,0.23l-0.67,0.45
			l-0.75,0.21l-0.83,0.39l-0.57,0.11l-0.75,0.36l-0.55,0.13l-0.69,0.4l-0.62,0.21l-0.75,0.37l-0.62,0.19L265.81,185.02z
			 M266.89,181.84l0.21,0.38l0.33-0.1l0.7-0.35l0.58-0.2l0.67-0.42l0.74-0.18l0.81-0.38l0.57-0.11l0.71-0.35l0.54-0.15l0.64-0.41
			l0.77-0.33l1.22-0.37l0.65-0.46l0.83-0.35l0.6-0.14l1.26-0.68l0.61-0.23l0.67-0.38l1.28-0.49l0.59-0.44l0.7-0.24l0.64-0.45
			l0.61-0.29l0.68-0.42l0.61-0.28l2.54-1.6l0.58-0.25l0.37-0.25l0.44-0.63l0.62-0.37l0.42-0.59l0.41-0.39l0.66-1.22l0.66-1.02
			l0.37-1.42l0.23-0.5l0.07-0.73l0.15-0.55l-0.16-2.72l0.02-0.64l-0.12-0.49l-0.29-0.7l-0.18-0.59l-0.34-0.66l-0.24-0.62l-0.25-0.5
			l-0.45-0.56l-0.3-0.46l-0.61-0.5l-0.8-0.9l-0.63-0.37l-1.01-0.73l-0.84-0.38l-1.11-0.86l-0.68-0.48l-0.46-0.43l-0.46-0.28
			l-0.86-0.41l-0.49-0.41l-0.55-0.31L281.1,150l-0.46-0.39l-0.76-0.44l-0.46-0.43l-1.86-1.2l-1.06-0.89l-0.55-0.38l-0.68-0.4
			l-0.5-0.41l-1.36-0.77l-0.54-0.48l-0.99-0.69l-0.77-0.34l-0.54-0.55l-0.69-0.38l-0.84-0.69l-0.31,0.02l-0.81,0.15l-0.74-0.07
			l-0.72,0.12l-0.85,0.05l-0.74-0.13l-1.36,0.13l-0.81-0.02l-0.61,0.02l-0.81,0.15l-0.74-0.08l-0.71,0.12l-0.78,0.05l-0.79-0.03
			l-0.69,0.01l-0.95,0.12l-0.33,0.78l-0.33,0.46l-0.65,1.67l0.04,0.39l0.15,0.54l0.23,0.52l0.56,0.89l0.87,0.53l0.65,0.06l0.57,0.15
			l0.48,0l0.78-0.18l0.8,0.07l0.77-0.07l0.7,0.12l1.43-0.2l0.72,0.07l1.19-0.18l0.72,0.84l0.67,0.34l2.38,1.92l0.37,0.39l0.69,0.32
			l0.51,0.6l0.68,0.42l0.47,0.45l0.48,0.33l0.79,0.4l0.53,0.65l1.62,1.22l0.7,0.46l1.08,0.89l1.33,0.93l0.38,0.41l0.69,0.33
			l0.51,0.58l2.66,1.46l-3.01,0.9l-2.61,1.01l-0.66,0.45l-0.75,0.17l-0.67,0.38l-0.69,0.11l-0.61,0.41l-0.83,0.14l-0.48,0.2
			l-0.76,0.46l-2.65,0.91l-0.76,0.43l-1.29,0.43l-0.73,0.38l-1.29,0.41l-0.76,0.45l-1.33,0.39l-0.49,0.26l0.2,0.38l0.76,2.06
			l0.84,2.67l0.39,0.67l0.11,0.78l0.52,1.24l0.25,0.7l0.17,0.62l0.43,0.64l0.17,0.8l0.3,0.75l0.14,0.6l0.32,0.71L266.89,181.84z"/>
	</g>
	<polygon class="st17" points="278.25,159.12 286.55,179.9 261.04,190.08 256.3,167.87 	"/>
	<path class="st1" d="M266.18,188.07c-4.19-9.77-7.23-23.03-7.36-23.59l2.93-0.66c0.03,0.13,3.1,13.55,7.19,23.07L266.18,188.07z"/>
	<polygon class="st1" points="257.78,135.99 255.98,130.2 233.38,136.86 235.18,142.65 225.97,153.34 269.92,139.66 	"/>
	<g>
		<polygon class="st1" points="242.78,206.58 230.39,204.97 236.36,178.91 243.68,179.87 		"/>
		<polygon class="st1" points="248.65,206.58 261.04,204.97 255.07,178.91 247.75,179.87 		"/>
		<rect x="241.12" y="187.11" class="st1" width="10.1" height="2"/>
	</g>
	<g>
		<ellipse class="st23" cx="390.78" cy="319.55" rx="22.82" ry="22.73"/>
		<ellipse class="st23" cx="409.88" cy="342.51" rx="23.05" ry="22.96"/>
		<ellipse class="st23" cx="376.05" cy="342.51" rx="23.05" ry="22.96"/>
		<rect x="376.05" y="330.33" class="st23" width="37.93" height="34.35"/>
		<polygon class="st1" points="389.69,364.66 389.54,363.03 389.85,361.41 389.94,357.16 389.68,355.7 389.93,354.05 389.92,352.72 
			389.93,351.23 389.64,349.77 389.84,348.29 389.58,346.8 389.8,345.29 389.63,343.81 389.85,342.29 389.77,340.91 389.89,339.28 
			389.79,337.95 389.89,336.32 389.76,335.01 389.84,333.39 389.83,331.97 389.68,330.58 389.9,327.43 389.55,324.51 389.86,322.99 
			389.73,321.53 389.95,319.93 389.89,318.61 389.62,317.08 389.91,315.42 389.87,312.63 389.87,311.11 389.6,309.69 389.65,308.08 
			391.7,308.14 391.66,309.54 391.91,310.94 391.96,314.08 391.94,315.6 391.7,317.08 391.92,318.41 391.99,320.03 391.8,321.58 
			391.92,323.11 391.63,324.57 391.94,327.42 391.73,330.55 391.87,331.86 391.89,333.44 391.8,334.98 391.94,336.3 391.84,337.95 
			391.94,339.29 391.82,340.93 391.91,342.38 391.7,343.83 391.87,345.32 391.66,346.77 391.92,348.24 391.72,349.73 391.96,351.05 
			391.98,352.72 391.97,354.21 391.76,355.67 391.98,357 391.99,358.65 391.88,361.67 391.61,363.13 391.74,364.47 		"/>
		<polygon class="st1" points="389.9,351.79 384.97,346.47 382.69,344.62 378.87,340.3 377.85,339.48 376.76,338.35 375.52,337.36 
			374.73,336.3 373.46,335.36 372.51,334.23 371.53,333.28 372.97,331.81 374.02,332.84 374.95,333.94 376.28,334.95 377.08,336.02 
			378.12,336.83 379.25,337.98 380.28,338.82 384.19,343.21 386.41,345.01 391.4,350.4 		"/>
		<polygon class="st1" points="391.58,332.55 390.1,331.14 393,327.98 394.23,326.95 395.17,326.01 396.13,324.8 397.25,323.88 
			398.25,322.69 399.48,321.87 400.45,320.99 401.42,319.83 402.56,318.91 403.85,320.51 402.79,321.36 401.92,322.41 
			400.73,323.49 399.52,324.31 398.7,325.32 397.53,326.31 396.7,327.37 395.61,328.47 394.42,329.45 		"/>
	</g>
	<ellipse class="st23" cx="145.61" cy="319.55" rx="22.82" ry="22.73"/>
	<ellipse class="st23" cx="164.71" cy="342.51" rx="23.05" ry="22.96"/>
	<ellipse class="st23" cx="130.88" cy="342.51" rx="23.05" ry="22.96"/>
	<rect x="130.88" y="330.33" class="st23" width="37.93" height="34.35"/>
	<polygon class="st1" points="144.52,364.66 144.37,363.03 144.68,361.41 144.77,357.16 144.51,355.7 144.76,354.05 144.75,352.72 
		144.75,351.23 144.47,349.77 144.67,348.29 144.4,346.8 144.63,345.29 144.46,343.81 144.68,342.29 144.6,340.91 144.72,339.28 
		144.62,337.95 144.72,336.32 144.59,335.01 144.67,333.39 144.65,331.97 144.51,330.58 144.73,327.43 144.38,324.51 144.68,322.99 
		144.56,321.53 144.78,319.93 144.71,318.61 144.45,317.08 144.73,315.42 144.7,312.63 144.7,311.11 144.43,309.69 144.48,308.08 
		146.53,308.14 146.49,309.54 146.74,310.94 146.78,314.08 146.77,315.6 146.53,317.08 146.75,318.41 146.82,320.03 146.63,321.58 
		146.75,323.11 146.46,324.57 146.77,327.42 146.56,330.55 146.7,331.86 146.72,333.44 146.63,334.98 146.77,336.3 146.67,337.95 
		146.77,339.29 146.65,340.93 146.74,342.38 146.52,343.83 146.7,345.32 146.48,346.77 146.75,348.24 146.55,349.73 146.79,351.05 
		146.8,352.72 146.8,354.21 146.59,355.67 146.81,357 146.82,358.65 146.71,361.67 146.44,363.13 146.56,364.47 	"/>
	<polygon class="st1" points="144.72,351.79 139.8,346.47 137.52,344.62 133.7,340.3 132.68,339.48 131.59,338.35 130.35,337.36 
		129.56,336.3 128.29,335.36 127.34,334.23 126.36,333.28 127.8,331.81 128.85,332.84 129.77,333.94 131.1,334.95 131.9,336.02 
		132.95,336.83 134.07,337.98 135.11,338.82 139.02,343.21 141.24,345.01 146.23,350.4 	"/>
	<polygon class="st1" points="146.41,332.55 144.93,331.14 147.82,327.98 149.06,326.95 150,326.01 150.96,324.8 152.08,323.88 
		153.08,322.69 154.3,321.87 155.28,320.99 156.25,319.83 157.39,318.91 158.68,320.51 157.62,321.36 156.75,322.41 155.56,323.49 
		154.35,324.31 153.53,325.32 152.36,326.31 151.53,327.37 150.44,328.47 149.25,329.45 	"/>
	<path class="st1" d="M313.2,328.8h-21.3l-3.35-62.29l-50.79-23.41l7.64-21.55h18.68l41.53,27.13c4.73,3.09,7.59,8.36,7.59,14.02
		V328.8z"/>
	<polygon class="st1" points="246.61,346.12 225.82,346.12 223.76,221.54 254.78,221.54 	"/>
	<path class="st1" d="M339.24,364.77h-40.43v-7.51c0-6.15,4.99-11.13,11.13-11.13h29.3V364.77z"/>
	<polygon class="st1" points="463.67,366.04 462.86,365.75 462.26,365.93 461.16,365.8 460.69,365.67 460.04,365.81 458.53,365.64 
		457.93,365.68 457.13,365.8 456.36,365.82 454.96,365.74 453.4,365.92 452.78,365.71 452.1,365.9 451.25,365.93 450.57,365.79 
		449.89,365.9 449.04,365.8 448.28,365.77 447.56,365.66 446.43,365.59 445.71,365.88 444.14,365.72 443.45,365.87 442.58,365.81 
		440.47,365.91 438.38,365.77 437.58,365.89 435.81,365.82 435.36,365.67 434.77,365.8 433.2,365.71 431.82,365.78 431.04,365.76 
		430.46,365.79 429.57,365.93 428.88,365.74 428.25,365.87 427.29,365.94 426.59,365.65 426.05,365.71 425.31,365.69 424.53,365.76 
		423.82,365.64 423.16,365.72 422.51,365.7 421.73,365.91 420.17,365.71 419.65,365.71 418.82,365.96 417.95,365.75 417.34,365.75 
		416.62,365.74 415.91,365.8 415.01,365.74 414.46,365.65 413.82,365.76 412.87,365.74 412.3,365.66 410.79,365.98 410.12,365.76 
		409.57,365.95 408.54,365.96 407.88,365.79 407.12,365.87 406.46,365.67 405.02,365.96 404.18,365.74 403.69,365.72 402.92,365.87 
		402.12,365.77 401.4,365.79 400.78,365.71 399.98,365.9 399.32,365.71 398.56,365.98 397.74,365.68 397.08,365.77 396.46,365.63 
		395.85,365.84 394.22,365.81 393.53,365.75 392.79,365.83 392.09,365.73 391.53,365.82 390.56,365.91 389.84,365.71 387.75,365.87 
		386.26,365.72 385.6,365.72 384.89,365.68 381.92,365.95 381.14,365.74 380.57,365.75 379.2,365.68 378.4,365.9 377.7,365.75 
		376.88,366.01 376.14,365.69 375.54,365.84 374.68,365.89 373.99,365.73 373.49,365.79 372.64,365.98 371.05,365.76 370.47,365.74 
		369.86,365.79 368.88,365.98 368.12,365.63 367.76,365.67 366.84,365.96 366.02,365.69 365.37,365.74 364.79,365.65 364.07,365.87 
		363.27,365.94 362.35,365.87 361.75,365.75 361.16,365.78 360.46,365.88 359.53,365.86 358.94,365.77 358.2,365.85 357.39,365.71 
		356.82,365.67 356.11,365.73 355.38,365.69 353.97,365.83 353.23,365.8 352.41,365.86 351.67,365.67 351.16,365.68 350.36,365.82 
		349.7,365.73 348.98,365.93 348.14,365.8 347.38,365.85 346.67,365.67 346.15,365.7 345.38,365.84 344.54,365.78 343.78,365.8 
		343.06,365.63 342.47,365.64 341.86,365.63 341.05,365.84 340.25,365.87 339.52,365.78 338.78,365.79 338.14,365.69 337.4,365.83 
		336.7,365.69 336.01,365.83 335.2,365.86 334.51,365.78 333.79,365.82 333.07,365.75 332.3,365.8 331.72,365.69 330.89,366 
		330.12,365.67 329.59,365.81 328.79,365.78 328,365.86 327.23,365.73 325.96,365.72 325.14,365.88 324.43,365.72 323.7,365.87 
		322.88,365.68 322.33,365.68 320.97,365.84 319.36,365.88 318.73,365.81 317.96,365.94 316.47,365.68 315.91,365.68 315.29,365.8 
		314.31,365.91 312.98,365.61 312.38,365.77 311.41,365.93 310.72,365.69 310.14,365.83 309.38,365.79 308.6,365.89 307.18,365.65 
		306.55,365.78 305,365.77 304.25,365.8 303.46,365.71 302.78,365.58 301.51,365.63 300.75,365.77 300.05,365.72 299.34,365.88 
		298.39,365.84 297.08,365.67 296.41,365.76 295.69,365.74 294.9,365.84 294.18,365.72 293.52,365.81 292.53,365.75 292.06,365.65 
		291.43,365.81 290.45,365.92 289.72,365.63 289.29,365.67 288.48,365.85 287.06,365.75 286.21,365.89 285.51,365.7 284.9,365.82 
		283.33,365.88 281.89,365.71 281.3,365.71 280.54,365.82 279.82,365.76 278.99,365.9 278.22,365.65 277.77,365.68 276.91,365.89 
		276.15,365.71 274.77,365.86 273.97,365.82 272.7,365.71 271.89,365.92 271.16,365.75 270.44,365.93 269.6,365.74 269.07,365.73 
		268.3,365.86 267.5,365.76 266.67,365.75 266.09,365.65 265.56,365.71 264.73,365.89 263.99,365.8 263.27,365.93 261.83,365.74 
		261.18,365.88 260.33,365.86 259,365.72 258.26,365.9 255.97,365.6 255.42,365.63 254.67,365.75 253.87,365.74 253.08,365.75 
		252.44,365.63 251.76,365.74 250.22,365.77 249.62,365.69 248.95,365.87 248.07,365.83 247.32,365.87 246.66,365.73 245.98,365.84 
		245.26,365.85 244.49,365.83 243.58,365.74 243.01,365.61 241.8,365.67 241.02,365.94 240.05,365.81 239.47,365.78 237.16,365.92 
		236.59,365.7 235.97,365.95 235.09,365.79 234.4,365.84 233.72,365.76 233,365.87 231.53,365.69 230.83,365.76 228.6,365.82 
		227.94,365.71 227.23,365.82 226.48,365.7 224.45,365.91 223.63,365.91 222.86,365.87 222.13,365.88 221.46,365.78 220.72,365.86 
		220,365.74 219.34,365.8 218.55,365.76 217.85,365.79 217.12,365.71 216.5,365.71 215.06,365.89 214.04,365.83 213.42,365.66 
		212.93,365.63 212.17,365.79 211.33,365.82 210.62,365.67 209.36,365.75 208.53,365.88 207.11,365.65 206.59,365.73 205.7,365.97 
		204.93,365.81 204.18,365.92 203.48,365.74 202.05,365.98 200.63,365.68 200,365.79 199.19,365.76 198.5,365.77 197.62,365.72 
		197.1,365.64 196.38,365.82 195.57,365.69 192.73,365.88 191.95,365.77 191.3,365.77 189.85,365.88 188.4,365.61 187.76,365.71 
		187.02,365.66 186.37,365.72 185.52,365.74 184.86,365.67 184.18,365.77 183.38,365.75 182.61,365.81 181.86,365.66 181.32,365.65 
		180.55,365.77 179.84,365.79 178.94,365.77 178.36,365.68 177.68,365.76 176.91,365.79 176.19,365.73 174.74,365.83 174.01,365.72 
		173.35,365.77 172.57,365.74 169.73,365.84 169.08,365.8 168.35,365.95 167.21,365.82 166.69,365.62 165.43,365.7 164.8,365.68 
		164.05,365.86 163.16,365.94 162.37,365.75 161.74,365.71 160.37,365.78 159.68,365.74 158.95,365.83 156.18,365.68 155.49,365.92 
		153.72,365.9 153.1,365.79 152.47,365.81 151.8,365.8 150.99,365.92 150.17,365.76 149.6,365.74 148.78,365.82 148.11,365.66 
		147.43,365.77 146.79,365.77 145.95,365.91 145.2,365.73 144.58,365.8 143.88,365.78 143.04,365.89 142.21,365.67 141.7,365.61 
		140.3,365.9 139.49,365.83 138.77,365.86 137.31,365.68 136.79,365.69 135.98,365.89 135.24,365.78 134.5,365.93 133.71,365.77 
		133.17,365.8 132.26,365.96 131.57,365.72 130.96,365.85 130.25,365.76 129.41,365.96 128.62,365.65 128.06,365.71 127.43,365.67 
		126.64,365.85 125.85,365.87 124.39,365.73 123.88,365.73 123.13,365.94 121.54,365.8 120.88,365.8 118.8,365.68 118.01,365.85 
		117.06,365.82 116.44,365.67 115.94,365.65 115.15,365.79 114.36,365.79 113.67,365.7 112.39,365.8 111.53,365.92 110.86,365.78 
		110.18,365.93 108.73,365.75 108.02,365.88 107.25,365.79 106.57,365.84 105.85,365.81 105.04,365.88 104.34,365.71 102.97,365.83 
		102.29,365.78 101.48,365.9 100.66,365.68 100.21,365.65 99.53,365.83 98.55,365.96 97.82,365.69 97.27,365.75 96.59,365.72 
		95.8,365.86 94.99,365.71 94.48,365.7 93.74,365.89 92.18,365.71 90.9,365.77 90.15,365.93 89.14,365.85 88.53,365.72 
		87.17,365.76 86.54,365.68 85.85,365.84 84.39,365.69 83.61,365.88 82.86,365.68 82.22,365.8 81.43,365.71 80.85,365.73 
		80.04,365.87 79.23,365.74 78.58,365.72 77.83,365.76 77.22,365.67 76.45,365.84 75.62,365.84 74.92,365.69 74.42,365.7 
		73.58,365.9 72.8,365.72 71.32,365.84 70.62,365.65 70.07,365.7 69.27,365.85 68.54,365.71 67.88,365.81 67.13,365.77 
		66.43,365.83 65.54,365.81 64.31,365.67 63.62,365.82 62.68,365.8 62.07,365.72 61.39,365.78 60.68,365.76 58.54,365.92 
		57.74,365.91 56.3,365.7 55.72,365.77 54.82,365.79 54.17,365.68 53.5,365.79 52.67,365.73 51.93,365.73 51.28,365.62 
		49.83,365.84 49.08,365.67 47.61,365.84 46.96,365.66 46.25,365.85 45.48,365.63 44.96,365.7 44.1,365.77 43.38,365.71 
		41.9,365.87 40.55,365.63 39.11,365.96 37.62,365.75 36.92,365.84 36.27,365.85 35.44,365.96 34.71,365.82 33.94,365.89 
		33.21,365.68 31.85,365.77 31.18,365.69 30.49,365.79 29.77,365.81 28.24,365.75 27.6,365.76 26.92,365.72 26.2,365.85 
		24.77,365.72 24.08,365.88 22.58,365.79 21.86,365.85 20.92,365.79 20.21,365.64 20.62,363.68 21.25,363.82 21.83,363.85 
		22.54,363.79 23.92,363.87 24.66,363.7 26.09,363.84 26.8,363.71 27.64,363.76 28.28,363.75 29.77,363.81 30.36,363.79 
		31.15,363.67 31.91,363.77 33.43,363.65 34.13,363.86 34.8,363.8 35.5,363.94 36.18,363.85 36.84,363.84 37.64,363.73 
		39.02,363.93 40.45,363.6 41.97,363.85 43.38,363.71 44.1,363.76 44.75,363.72 45.61,363.59 46.26,363.77 46.98,363.58 
		47.77,363.81 49.19,363.65 49.88,363.8 51.32,363.6 52.1,363.73 53.41,363.78 54.17,363.65 54.96,363.78 55.6,363.77 56.37,363.68 
		57.88,363.91 58.52,363.93 60.62,363.76 61.33,363.78 62.1,363.71 62.87,363.81 63.42,363.81 64.17,363.65 66.36,363.83 
		67.1,363.76 67.78,363.8 68.56,363.68 69.27,363.81 69.81,363.72 70.8,363.63 71.52,363.82 72.91,363.7 73.57,363.84 74.28,363.7 
		75.12,363.69 75.83,363.84 76.31,363.84 77.09,363.63 77.93,363.75 78.56,363.73 79.49,363.75 80.03,363.84 80.72,363.73 
		81.51,363.71 82.15,363.78 82.95,363.63 83.63,363.81 84.28,363.66 85.7,363.82 86.44,363.64 87.25,363.76 88.74,363.71 
		89.49,363.88 90.01,363.92 90.77,363.77 92.26,363.7 93.57,363.86 94.26,363.69 95.27,363.73 95.81,363.83 96.46,363.72 
		97.2,363.75 98.09,363.64 98.78,363.91 99.19,363.86 100,363.64 101.08,363.72 101.59,363.86 102.21,363.76 102.97,363.82 
		104.48,363.69 105.19,363.86 105.81,363.8 106.54,363.84 107.29,363.78 107.95,363.86 108.67,363.72 110.09,363.9 110.84,363.74 
		111.6,363.89 112.88,363.74 113.76,363.69 114.49,363.79 115.04,363.79 115.78,363.64 116.82,363.7 117.42,363.85 117.88,363.85 
		118.66,363.64 119.57,363.76 120.92,363.8 121.65,363.8 122.93,363.92 123.61,363.73 124.46,363.74 125.93,363.87 126.47,363.85 
		127.23,363.65 128.03,363.7 128.91,363.62 129.56,363.87 130.14,363.73 130.87,363.82 131.7,363.64 132.43,363.9 133.01,363.8 
		133.86,363.76 134.49,363.89 135.19,363.75 135.89,363.86 136.62,363.7 137.43,363.67 138.83,363.85 139.55,363.83 140.17,363.88 
		141.64,363.59 142.65,363.72 143.17,363.86 143.78,363.78 144.5,363.79 145.33,363.71 146.02,363.87 146.69,363.78 147.32,363.77 
		148.17,363.62 148.92,363.8 149.54,363.74 150.48,363.78 151.03,363.89 151.66,363.79 152.46,363.81 153.24,363.79 153.96,363.91 
		155.17,363.91 155.9,363.66 158.89,363.83 159.61,363.73 160.35,363.78 161,363.72 161.8,363.72 162.74,363.79 163.3,363.92 
		163.8,363.87 164.57,363.67 165.38,363.7 167.01,363.61 167.78,363.89 168.22,363.93 168.93,363.78 169.8,363.84 172.58,363.74 
		173.31,363.76 174.09,363.71 174.8,363.82 176.22,363.73 176.96,363.78 177.57,363.77 178.38,363.66 179.18,363.78 179.82,363.79 
		180.42,363.77 181.17,363.65 182.18,363.68 182.75,363.8 183.33,363.76 184.06,363.77 184.82,363.66 185.6,363.74 186.98,363.66 
		187.67,363.7 188.48,363.58 189.89,363.86 191.27,363.77 192.16,363.78 192.77,363.87 195.67,363.68 196.29,363.78 197.02,363.59 
		197.89,363.74 198.53,363.77 199.2,363.76 199.86,363.78 200.67,363.64 202.11,363.95 203.55,363.69 204.29,363.89 204.98,363.79 
		205.64,363.92 206.22,363.76 207.09,363.62 208.56,363.85 209.89,363.7 210.78,363.66 211.5,363.81 212.01,363.79 212.77,363.62 
		213.83,363.7 214.43,363.86 214.97,363.88 216.44,363.71 217.22,363.71 217.92,363.78 218.56,363.76 219.29,363.79 220.08,363.72 
		220.79,363.84 221.5,363.77 222.26,363.88 222.9,363.87 223.69,363.91 224.36,363.91 226.54,363.69 227.23,363.8 227.95,363.68 
		228.73,363.82 230.76,363.76 231.56,363.67 232.96,363.85 233.69,363.74 234.45,363.83 235.2,363.78 235.77,363.88 236.58,363.56 
		237.45,363.89 239.46,363.78 240.25,363.82 240.82,363.89 241.46,363.67 242.35,363.67 243.15,363.59 243.96,363.78 245.26,363.85 
		245.86,363.84 246.7,363.69 247.48,363.86 248.07,363.83 248.73,363.86 249.5,363.65 250.35,363.77 251.62,363.75 252.45,363.59 
		253.25,363.75 253.87,363.74 254.53,363.75 255.26,363.63 256.11,363.59 256.89,363.74 258.15,363.87 258.85,363.7 260.99,363.87 
		261.76,363.71 263.21,363.9 263.93,363.78 264.63,363.86 265.3,363.72 266.15,363.64 266.91,363.76 267.68,363.77 268.26,363.84 
		268.92,363.73 269.93,363.76 270.42,363.88 271.14,363.7 271.86,363.86 272.48,363.7 273.34,363.73 274.72,363.86 276.23,363.68 
		276.9,363.83 277.55,363.69 278.47,363.63 279.14,363.85 279.75,363.75 280.48,363.81 281.22,363.71 282.06,363.72 283.44,363.88 
		284.68,363.83 285.58,363.64 286.31,363.85 286.91,363.74 287.73,363.76 288.37,363.83 289.05,363.69 290.02,363.6 290.72,363.88 
		291.13,363.83 292,363.59 292.87,363.78 293.43,363.8 294.21,363.71 294.93,363.82 295.59,363.74 296.31,363.76 297.08,363.66 
		299.16,363.87 299.89,363.71 300.63,363.76 301.38,363.63 302.93,363.57 303.77,363.74 304.32,363.79 304.97,363.77 306.35,363.78 
		307.16,363.61 308.63,363.87 309.29,363.78 309.96,363.81 310.83,363.62 311.58,363.87 312.01,363.8 312.9,363.56 314.44,363.88 
		314.99,363.83 315.81,363.68 316.67,363.69 317.99,363.91 318.66,363.8 319.45,363.88 320.81,363.85 322.28,363.68 323.22,363.7 
		323.73,363.82 324.44,363.68 325.17,363.84 325.78,363.72 327.48,363.74 328.07,363.84 328.73,363.78 329.36,363.8 330.28,363.56 
		330.94,363.85 331.56,363.61 332.43,363.79 333.1,363.74 333.83,363.82 334.56,363.77 335.28,363.85 335.84,363.83 336.67,363.64 
		337.42,363.79 338.12,363.66 338.92,363.79 339.62,363.78 340.33,363.86 340.85,363.84 341.59,363.63 342.46,363.64 343.28,363.62 
		344,363.8 344.58,363.78 345.27,363.83 345.99,363.71 346.85,363.66 347.56,363.83 348.24,363.8 348.85,363.89 349.56,363.69 
		350.33,363.79 351.04,363.69 351.9,363.67 352.59,363.84 353.19,363.8 353.89,363.83 355.36,363.68 356.07,363.73 356.79,363.66 
		357.7,363.73 358.28,363.83 358.97,363.76 359.75,363.87 360.33,363.87 360.99,363.79 361.89,363.75 362.67,363.89 363.25,363.93 
		363.76,363.89 364.59,363.59 365.45,363.73 366.26,363.66 366.85,363.86 367.47,363.68 368.47,363.6 369.12,363.89 369.64,363.8 
		370.42,363.73 371.21,363.77 372.58,363.94 373.22,363.81 374.1,363.71 374.84,363.88 375.32,363.85 376.28,363.58 376.98,363.88 
		377.6,363.68 378.35,363.84 378.99,363.67 380.59,363.75 381.39,363.73 382.06,363.91 382.58,363.84 384.85,363.67 385.66,363.73 
		386.32,363.72 387.78,363.85 390.02,363.69 390.74,363.88 391.28,363.84 392.08,363.7 392.84,363.82 393.51,363.75 395.52,363.84 
		396.35,363.55 397.17,363.74 397.96,363.62 398.57,363.85 399.25,363.61 400.03,363.83 400.68,363.68 401.5,363.79 402.21,363.77 
		402.85,363.85 403.53,363.72 404.59,363.77 405.09,363.91 406.55,363.61 407.31,363.84 408.01,363.77 408.78,363.96 409.23,363.95 
		410.11,363.66 410.88,363.91 412.27,363.64 413.08,363.75 413.65,363.76 414.46,363.62 415.29,363.76 415.89,363.79 416.55,363.74 
		417.35,363.75 418.19,363.75 418.76,363.89 419.36,363.71 420.34,363.72 421.61,363.88 422.27,363.69 423.07,363.72 423.87,363.62 
		424.6,363.75 425.25,363.68 425.97,363.71 426.88,363.61 427.61,363.91 428.04,363.88 428.93,363.68 429.68,363.89 430.31,363.79 
		431.03,363.76 431.79,363.78 433.21,363.71 434.63,363.79 435.47,363.6 436.3,363.88 437.5,363.89 438.23,363.76 440.48,363.9 
		442.63,363.81 443.31,363.86 444.06,363.7 445.41,363.85 446.11,363.57 447.78,363.68 448.52,363.79 449.85,363.88 450.63,363.76 
		451.41,363.92 451.87,363.9 452.77,363.59 453.59,363.87 454.92,363.73 456.41,363.82 457.01,363.8 457.77,363.69 458.57,363.64 
		459.94,363.78 460.75,363.61 461.62,363.86 462.07,363.9 462.91,363.65 463.56,363.88 464.22,363.57 465.19,363.8 465.66,363.82 
		466.49,363.61 467.31,363.6 468.07,363.72 468.65,363.75 469.42,363.66 470.17,363.78 470.77,363.73 471.68,363.72 472.29,363.84 
		473.03,363.66 473.82,363.83 474.42,363.78 475.39,363.81 475.91,363.9 476.56,363.74 477.36,363.75 478.11,363.69 481.01,363.82 
		481.83,363.75 482.42,363.9 483.12,363.63 483.93,363.8 484.58,363.67 485.34,363.72 486.11,363.6 487.58,363.86 488.21,363.74 
		489.04,363.75 489.82,363.69 491.11,363.92 491.79,363.66 493.55,363.81 493.31,365.8 492.1,365.68 491.34,365.97 489.7,365.71 
		489.1,365.75 488.39,365.74 487.55,365.9 486.12,365.63 485.42,365.73 484.72,365.68 483.93,365.85 483.28,365.71 482.54,366 
		481.66,365.77 481.03,365.83 478.14,365.69 477.43,365.76 476.78,365.75 475.98,365.94 475.12,365.79 474.47,365.78 473.69,365.84 
		473.05,365.71 472.34,365.88 471.49,365.72 470.86,365.72 470.09,365.79 469.39,365.68 468.72,365.76 467.81,365.7 467.17,365.6 
		466.66,365.61 465.92,365.82 464.83,365.77 464.44,365.68 	"/>
	<polygon class="st1" points="246.1,365.89 245.43,365.71 244.76,365.88 243.99,365.75 243.34,365.84 242.54,365.82 241.82,365.83 
		241.12,365.76 240.39,365.81 239.75,365.72 238.99,365.88 238.24,365.7 237.61,365.79 236.87,365.74 235.43,365.86 234.69,365.79 
		233.21,365.82 232.49,365.71 231.92,365.69 231.21,365.79 229.8,365.75 228.99,365.89 228.24,365.71 226.9,365.79 225.73,365.84 
		226,363.75 226.18,363.2 226.22,362.41 226.37,361.79 226.44,361.01 226.59,360.4 226.64,359.77 226.62,359.03 226.89,357.62 
		226.94,356.82 227.19,355.46 227.28,354.59 227.47,354.04 227.56,352.67 227.89,350.41 228.06,349.93 227.99,349.22 228.24,348.46 
		228.32,347.67 228.48,347.12 228.53,345.68 228.64,344.99 230.62,345.3 230.51,345.95 230.44,347.54 230.27,348.12 230.18,348.97 
		230.02,349.45 230.09,350.18 229.82,350.95 229.41,354.56 229.21,355.12 229.18,355.7 228.92,357.14 228.87,357.9 228.63,359.22 
		228.64,359.83 228.56,360.79 228.41,361.4 228.33,362.19 228.19,362.78 228.11,363.71 228.38,363.68 229.06,363.85 229.66,363.74 
		231.1,363.79 231.81,363.69 232.74,363.72 233.37,363.82 234.74,363.79 235.43,363.85 236.86,363.73 237.54,363.78 238.34,363.67 
		239.01,363.83 239.68,363.69 240.47,363.8 241.16,363.76 241.89,363.83 242.55,363.82 243.23,363.83 244.02,363.73 244.68,363.84 
		245.44,363.64 246.2,363.84 246.83,363.74 247.54,363.81 248.28,363.67 249.03,363.78 249.73,363.71 250.58,363.72 251.78,363.84 
		252.54,363.67 253.32,363.78 254.05,363.72 254.76,363.83 255.43,363.76 256.8,363.82 257.58,363.69 258.39,363.79 258.98,363.8 
		259.74,363.7 260.5,363.78 261.87,363.67 263.08,363.68 263.01,363.39 263.11,362.59 262.95,359.67 263.1,359 263.01,358.35 
		263.11,356.86 263.1,356.29 262.93,355.56 262.94,354.94 262.65,354.3 262.5,353.73 262.18,353.25 261.83,352.82 260.85,352 
		259.7,351.32 258.52,350.93 257.89,350.88 257.19,350.75 255.83,350.84 255.2,350.83 254.39,351.09 253.84,351.13 253.36,351.38 
		252.7,351.64 252.2,352.01 251.6,352.39 251.24,352.76 250.43,354.08 249.34,355.21 248.51,355.64 247.63,355.98 246.68,355.84 
		245.91,355.88 245.1,355.42 244.29,355.05 243.16,353.63 242.76,351.85 242.75,351.01 242.85,350.17 242.86,349.58 242.72,348.77 
		242.68,347.99 244.68,347.88 244.72,348.61 244.86,349.42 244.84,350.3 244.75,351.11 244.76,351.71 245,352.71 245.57,353.44 
		246.39,353.85 247.75,353.79 248.16,353.58 248.87,352.83 249.17,352.29 249.73,351.45 250.45,350.75 251.09,350.36 251.83,349.84 
		252.53,349.56 253.29,349.16 254.1,349.11 254.85,348.82 255.79,348.84 257.31,348.74 258.16,348.9 259.03,349 260.67,349.57 
		262.05,350.39 263.33,351.49 263.8,352.07 264.35,352.9 264.56,353.7 264.94,354.49 264.93,355.34 265.09,356.15 265.11,356.87 
		265.02,358.31 265.13,359.08 264.96,359.86 265.12,362.66 265.04,363.3 265.19,364.03 264.91,365.84 263.26,365.68 262.63,365.68 
		261.95,365.67 260.45,365.78 259.77,365.71 259.09,365.81 258.19,365.78 257.62,365.71 256.96,365.82 255.46,365.77 254.7,365.84 
		253.98,365.73 253.27,365.79 252.62,365.7 251.95,365.84 251.11,365.81 250.38,365.71 249.78,365.71 249,365.8 248.31,365.7 
		247.62,365.82 246.9,365.75 	"/>
	<polygon class="st1" points="235.13,365.05 233.23,364.44 233.62,363.09 233.8,362.29 234.27,361 234.55,359.61 236.2,359.48 
		237.03,359.62 237.73,359.63 239.2,359.51 240.48,359.38 240.21,361.22 240.36,361.93 240.24,362.69 240.3,363.35 240.23,364.14 
		240.24,364.77 238.24,364.77 238.24,364.07 238.29,363.37 238.22,362.62 238.33,361.97 238.25,361.61 237.76,361.63 236.77,361.61 
		236.21,361.51 236.18,361.6 235.7,362.92 235.36,364.32 	"/>
	<polygon class="st1" points="259.79,361.29 258.31,361.19 257.52,361.25 256.84,361.12 256.14,361.23 255.41,361.12 254.83,361.19 
		254.04,361.23 251.91,361.18 251.14,361.28 250.4,361.19 248.89,361.28 248.26,361.11 247.65,361.25 246.8,361.21 245.34,361.25 
		244.7,361.12 244.09,361.25 243.27,361.24 242.5,361.25 241.79,361.16 241.21,361.17 240.41,361.27 239.65,361.16 237.56,361.28 
		235.45,361.1 233.96,361.18 233.33,361.11 232.57,361.24 231.86,361.24 230.37,361.26 229.04,361.11 228.34,361.2 227.61,361.15 
		226.98,361.21 226.8,359.21 227.59,359.14 228.29,359.19 229,359.11 231.15,359.26 231.83,359.24 232.47,359.24 233.24,359.08 
		234.04,359.17 235.4,359.09 236.19,359.13 237.57,359.27 239.77,359.16 240.43,359.25 241.11,359.17 241.9,359.16 242.62,359.25 
		243.26,359.24 243.9,359.24 244.71,359.08 245.5,359.25 246.84,359.21 247.48,359.24 248.3,359.05 249.1,359.27 250.45,359.18 
		251.13,359.26 251.79,359.18 254.04,359.24 254.67,359.2 255.44,359.1 256.14,359.21 256.87,359.1 257.63,359.23 258.27,359.19 
		259.67,359.27 260.45,359.12 261.25,359.12 261.91,359.23 263.25,359.1 264.06,359.1 264.05,361.1 263.33,361.1 261.86,361.25 
		261.08,361.12 260.55,361.12 	"/>
	<polygon class="st1" points="302.93,347.14 301.22,346.8 300.5,346.9 299.76,346.89 299.04,346.95 296.16,346.85 295.34,347 
		293.62,346.68 293.67,344.4 293.75,343.52 293.87,342.89 293.9,342.13 293.99,341.51 293.96,340.8 294.06,340 294.19,339.31 
		294.2,338.58 294.28,337.87 294.4,337.19 294.38,336.58 294.42,335.66 294.53,335.03 294.52,334.28 294.7,333.53 294.85,331.35 
		294.96,330.81 294.87,330.15 294.93,329.32 296.92,329.48 296.88,330.08 296.99,330.88 296.82,331.69 296.66,333.92 296.52,334.51 
		296.53,335.19 296.4,335.93 296.37,336.59 296.41,337.33 296.2,338.74 296.17,339.61 295.97,340.87 296,341.62 295.88,342.36 
		295.85,343.19 295.72,343.85 295.65,344.91 295.99,344.84 299,344.94 299.69,344.9 300.42,344.9 301.17,344.78 301.39,344.03 
		301.64,343.52 301.78,342.67 302.03,342.09 302.27,340.82 303.86,340.57 304.64,340.56 306.23,340.7 307.85,340.62 308.08,342.36 
		307.98,343.11 308,343.81 307.92,344.42 308.05,344.97 308.31,344.96 309.07,344.78 310.08,344.83 310.73,344.95 311.31,344.96 
		312.04,344.89 312.78,344.91 313.51,344.84 315.75,344.97 316.39,344.93 317.14,344.83 317.96,344.87 318.69,344.84 319.39,344.95 
		320.85,344.84 321.63,344.95 322.22,344.97 323,344.87 323.76,344.96 324.4,344.92 325.85,344.94 326.66,344.8 327.42,344.94 
		328.09,344.86 328.83,344.91 329.61,344.82 330.3,344.94 330.79,344.84 330.73,344.53 330.79,343.04 330.7,341.63 330.73,340.82 
		330.7,340.12 330.78,339.34 330.78,338.76 330.71,337.99 330.78,337.3 330.68,336.61 330.7,335.98 330.55,335.59 330.11,334.96 
		329.8,334.36 329.5,333.9 329.1,333.55 328.45,333.14 327.98,332.76 327.42,332.53 326.68,332.29 326.13,332.03 324.91,331.87 
		324.23,331.87 323.55,331.87 322.26,332.02 321.75,332.27 321.04,332.54 319.92,333.12 319.5,333.55 318.96,334.01 317.68,335.81 
		316.22,336.66 315.52,336.95 315.51,337.27 312.76,336.71 311.32,335.44 310.82,334.7 310.41,333.02 310.51,332.13 310.49,331.42 
		310.54,330.54 310.53,329.93 310.4,329.23 312.36,328.85 312.53,329.81 312.54,330.59 312.49,331.46 312.52,332.22 312.44,332.88 
		312.69,333.89 312.91,334.21 313.63,334.84 314.43,335.01 315.01,335 315.39,334.84 316.29,334.31 317.58,332.56 318.14,332.08 
		318.84,331.43 320.27,330.7 320.96,330.43 321.73,330.06 322.66,329.98 323.48,329.87 324.22,329.87 325.01,329.86 326.85,330.16 
		327.47,330.45 328.11,330.66 329.11,331.11 329.64,331.54 330.36,331.99 331.09,332.68 331.55,333.4 331.85,333.98 332.36,334.74 
		332.72,335.63 332.68,336.5 332.8,337.25 332.72,338 332.78,338.68 332.77,339.45 332.7,340.18 332.73,340.82 332.69,341.63 
		332.79,343 332.74,344.38 332.87,345.09 332.79,347.08 331.08,346.82 330.34,346.97 329.55,346.84 328.87,346.91 328.15,346.87 
		327.36,346.96 326.65,346.84 326,346.95 324.45,346.92 323.7,346.96 323,346.89 322.32,346.97 321.4,346.94 320.77,346.85 
		319.32,346.97 318.57,346.84 317.95,346.87 317.22,346.83 316.59,346.92 315.69,346.98 314.88,346.88 313.56,346.85 312.83,346.91 
		312.12,346.89 311.39,346.96 310.44,346.93 309.78,346.81 309.26,346.79 308.46,346.96 307.64,346.98 305.93,346.69 306.06,345.24 
		305.89,344.51 306,343.71 305.97,343.01 306.02,342.69 304.57,342.56 303.97,342.57 303.91,342.78 303.67,343.32 303.59,344.07 
		303.23,344.82 303.09,345.34 	"/>
	<polygon class="st1" points="303.02,346.11 301.07,345.68 301.98,342.01 302.45,340.75 303.83,340.71 304.68,340.73 306.22,340.61 
		307.84,340.82 308.01,342.33 307.97,343.02 308.08,343.81 307.91,344.54 307.96,345.18 307.96,345.88 305.96,345.88 305.96,345.22 
		305.88,344.4 306.05,343.71 305.97,343.1 305.99,342.64 305.53,342.69 304.69,342.73 303.86,342.7 	"/>
	<polygon class="st1" points="306,342.39 305.22,342.25 304.56,342.29 303.91,342.24 303.2,342.37 301.02,342.21 300.28,342.32 
		298.7,342.3 298.08,342.19 296.8,342.25 296.05,342.36 295.33,342.29 294.73,342.37 294.48,340.38 295.3,340.28 296,340.34 
		296.59,340.26 298.23,340.19 298.95,340.31 300.2,340.32 300.97,340.19 301.83,340.3 303.08,340.36 303.79,340.23 304.57,340.28 
		305.34,340.24 305.99,340.35 306.65,340.24 307.44,340.19 308.92,340.38 309.55,340.38 310.28,340.38 310.93,340.34 311.71,340.34 
		313.92,340.24 314.57,340.34 315.26,340.25 316.72,340.2 317.5,340.26 318.83,340.24 319.71,340.26 320.27,340.35 320.99,340.23 
		321.74,340.35 322.39,340.3 323.07,340.32 323.78,340.2 324.72,340.22 325.29,340.31 325.94,340.21 327.46,340.24 328.24,340.21 
		328.92,340.34 329.59,340.26 330.36,340.34 331.71,340.28 331.83,342.28 330.28,342.34 329.6,342.27 328.84,342.36 328.08,342.21 
		327.48,342.24 326.07,342.22 325.29,342.33 324.49,342.21 323.93,342.2 323.2,342.32 322.45,342.3 321.67,342.37 320.99,342.26 
		320.28,342.37 319.48,342.25 318.83,342.24 317.43,342.25 316.7,342.2 314.55,342.36 313.77,342.24 313.14,342.24 311.76,342.34 
		310.98,342.34 310.33,342.38 309.55,342.38 308.76,342.38 307.4,342.2 306.83,342.23 	"/>
	<rect x="415.08" y="354.96" class="st1" width="19.94" height="10.5"/>
	<rect x="102.48" y="354.96" class="st1" width="19.94" height="10.5"/>
	<rect x="115.67" y="351.08" class="st1" width="6.75" height="14.39"/>
	<polygon class="st25" points="287.02,137.46 286.07,135.7 287.28,135.09 287.85,134.6 288.61,134.31 289.07,134.04 289.67,133.51 
		290.41,133.2 292.15,132.09 292.87,131.59 293.46,131.33 294.7,130.53 295.35,130.21 297.87,128.67 298.37,128.48 298.93,127.95 
		299.62,127.72 300.17,127.21 300.94,126.98 302.2,126.1 302.79,125.88 303.88,125.22 304.5,124.69 305.27,124.24 305.81,124.03 
		306.35,123.61 307.19,123.11 307.78,122.93 308.84,122.26 309.58,121.69 310.12,121.46 310.72,120.96 311.48,120.72 311.95,120.4 
		313.23,119.64 313.85,119.18 315.11,118.47 315.63,118.11 316.93,117.4 317.59,116.91 319.48,115.96 320.14,115.52 320.63,115.28 
		321.24,114.71 322.04,114.27 322.57,114.08 323.11,113.63 324.52,112.83 325.1,112.6 326.39,111.77 326.95,111.54 327.6,111.06 
		328.14,110.8 328.74,110.3 329.45,110.02 330.04,109.6 331.27,108.87 332.32,110.57 331.08,111.31 330.31,111.83 329.77,112.04 
		329.13,112.54 328.56,112.82 327.85,113.33 327.25,113.58 325.93,114.42 325.31,114.67 324.22,115.3 323.58,115.84 322.8,116.12 
		322.37,116.37 321.82,116.93 321.08,117.29 320.42,117.72 318.59,118.65 317.92,119.14 316.69,119.8 316.17,120.16 314.89,120.88 
		314.37,121.28 312.21,122.59 311.7,122.75 311.05,123.23 310.52,123.47 309.95,123.92 308.5,124.79 307.92,124.98 307.47,125.27 
		306.67,125.84 306.07,126.07 305.62,126.35 304.96,126.91 303.6,127.71 303.03,127.92 301.85,128.79 301.2,128.98 300.68,129.49 
		299.97,129.71 299.46,130.2 298.72,130.49 297.57,131.25 295.64,132.29 294.32,133.14 293.76,133.38 293.28,133.74 291.26,135.01 
		290.75,135.22 290.17,135.71 289.41,136.14 288.89,136.34 288.25,136.85 	"/>
	<polygon class="st25" points="294.82,142.7 294.36,140.75 295.17,140.56 295.79,140.5 296.51,140.29 299.16,139.8 299.99,139.43 
		301.3,139.24 302.03,138.95 302.73,138.93 303.44,138.64 304.31,138.5 304.81,138.5 305.47,138.19 306.29,137.99 307.04,138 
		307.57,137.88 309.09,137.41 309.67,137.35 310.46,137.06 311.13,136.98 311.9,136.81 312.44,136.75 313.14,136.41 313.99,136.4 
		314.47,136.29 315.34,135.95 317.34,135.64 318.78,135.19 320.14,134.99 321.58,134.52 322.41,134.38 322.93,134.36 323.58,134.04 
		324.35,133.97 325.18,133.71 325.83,133.66 326.47,133.51 326.91,135.46 326.06,135.64 325.47,135.69 324.66,135.96 324.12,136 
		323.44,136.33 322.57,136.38 321.98,136.48 320.49,136.96 319.18,137.15 317.75,137.6 315.73,137.92 315.02,138.21 314.1,138.4 
		313.61,138.4 313,138.7 312.17,138.79 311.43,138.95 310.84,139.03 310.03,139.32 309.41,139.39 308.06,139.83 307.24,140 
		306.52,139.99 306.06,140.1 305.3,140.49 304.42,140.5 303.92,140.59 303.18,140.92 302.43,140.94 301.7,141.2 300.45,141.39 
		299.69,141.73 298.32,142.03 296.91,142.25 296.11,142.47 295.45,142.55 	"/>
	<polygon class="st1" points="233.67,137.8 233.08,135.89 233.92,135.64 234.51,135.56 235.82,135.01 236.61,134.8 237.95,134.57 
		239.86,133.92 240.63,133.6 241.46,133.4 242,133.34 242.61,133.03 243.41,132.9 245.45,132.24 246.71,131.94 247.39,131.62 
		248.26,131.36 248.9,131.27 249.44,131.12 250.18,130.79 250.88,130.71 251.53,130.4 252.38,130.15 252.98,130.08 254.3,129.64 
		255.1,129.41 255.81,129.27 256.18,131.24 255.51,131.36 253.35,132.05 252.72,132.13 252.2,132.29 251.46,132.66 250.71,132.74 
		250.07,133.02 249.23,133.25 248.61,133.33 248.08,133.5 247.3,133.85 245.93,134.18 243.79,134.86 243.25,134.95 242.58,135.29 
		241.74,135.38 241.2,135.52 240.52,135.81 238.37,136.52 236.99,136.76 236.43,136.92 234.9,137.53 234.27,137.61 	"/>
	<rect x="238.16" y="165.77" class="st1" width="2" height="13.51"/>
	<rect x="251.27" y="165.77" class="st1" width="2" height="15.07"/>
</g>
<g id="Labels" class="st169">
	<text transform="matrix(1 0 0 1 21.1201 475.7973)" class="st170 st171 st172">AT PHARMACY</text>
</g>
</svg>
